{
.appVersion = "3312";
.formatVersion = 3;
customParameters = (
{
name = glyphOrder;
value = (
space,
exclam,
quotedbl,
numbersign,
dollar,
percent,
ampersand,
quotesingle,
parenleft,
parenright,
asterisk,
plus,
comma,
minus,
period,
slash,
zero,
one,
two,
three,
four,
five,
six,
seven,
eight,
nine,
colon,
semicolon,
less,
equal,
greater,
question,
at,
A,
B,
C,
D,
E,
F,
G,
H,
I,
J,
K,
L,
M,
N,
O,
P,
Q,
R,
S,
T,
U,
V,
W,
X,
Y,
Z,
bracketleft,
backslash,
bracketright,
asciicircum,
underscore,
grave,
a,
b,
c,
d,
e,
f,
g,
h,
i,
j,
k,
l,
m,
n,
o,
p,
q,
r,
s,
t,
u,
v,
w,
x,
y,
z,
braceleft,
bar,
braceright,
asciitilde,
Adieresis,
Aring,
Ccedilla,
Eacute,
Ntilde,
Odieresis,
Udieresis,
aacute,
agrave,
acircumflex,
adieresis,
atilde,
aring,
ccedilla,
eacute,
egrave,
ecircumflex,
edieresis,
iacute,
igrave,
icircumflex,
idieresis,
ntilde,
oacute,
ograve,
ocircumflex,
odieresis,
otilde,
uacute,
ugrave,
ucircumflex,
udieresis,
dagger,
degree,
cent,
sterling,
section,
bullet,
paragraph,
germandbls,
registered,
copyright,
trademark,
acute,
dieresis,
notequal,
AE,
Oslash,
infinity,
plusminus,
lessequal,
greaterequal,
yen,
micro,
partialdiff,
summation,
product,
pi,
integral,
ordfeminine,
ordmasculine,
Omega,
ae,
oslash,
questiondown,
exclamdown,
logicalnot,
radical,
florin,
approxequal,
increment,
guillemetleft,
guillemetright,
ellipsis,
Agrave,
Atilde,
Otilde,
OE,
oe,
hyphen,
emdash,
quotedblleft,
quotedblright,
quoteleft,
quoteright,
divide,
lozenge,
ydieresis,
.notdef
);
}
);
date = "2024-07-24 14:50:30 +0000";
familyName = "Mac Geneva";
fontMaster = (
{
id = m01;
metricValues = (
{
pos = 2300;
},
{
pos = 2200;
},
{
pos = 1400;
},
{
},
{
pos = -600;
},
{
}
);
name = "24";
}
);
glyphs = (
{
glyphname = exclam;
lastChange = "2024-07-24 17:29:14 +0000";
layers = (
{
layerId = m01;
shapes = (
{
closed = 1;
nodes = (
(400,0,l),
(400,200,l),
(300,200,l),
(300,0,l)
);
},
{
closed = 1;
nodes = (
(400,400,l),
(400,1800,l),
(300,1800,l),
(300,400,l)
);
}
);
width = 600;
}
);
unicode = 33;
},
{
glyphname = quotedbl;
lastChange = "2024-07-24 17:29:18 +0000";
layers = (
{
layerId = m01;
shapes = (
{
closed = 1;
nodes = (
(200,1400,l),
(300,1400,l),
(300,1800,l),
(200,1800,l)
);
},
{
closed = 1;
nodes = (
(600,1400,l),
(700,1400,l),
(700,1800,l),
(600,1800,l)
);
}
);
width = 1000;
}
);
unicode = 34;
},
{
glyphname = numbersign;
lastChange = "2024-07-24 17:29:08 +0000";
layers = (
{
layerId = m01;
shapes = (
{
closed = 1;
nodes = (
(800,1600,l),
(400,1600,l),
(400,1500,l),
(700,1500,l),
(700,1300,l),
(800,1300,l),
(800,1500,l),
(1100,1500,l),
(1100,1300,l),
(1200,1300,l),
(1200,1500,l),
(1600,1500,l),
(1600,1600,l),
(1300,1600,l),
(1300,1800,l),
(1200,1800,l),
(1200,1600,l),
(900,1600,l),
(900,1800,l),
(800,1800,l)
);
},
{
closed = 1;
nodes = (
(600,1300,l),
(600,1100,l),
(200,1100,l),
(200,1000,l),
(500,1000,l),
(500,800,l),
(600,800,l),
(600,1000,l),
(900,1000,l),
(900,800,l),
(1000,800,l),
(1000,1000,l),
(1400,1000,l),
(1400,1100,l),
(1100,1100,l),
(1100,1300,l),
(1000,1300,l),
(1000,1100,l),
(700,1100,l),
(700,1300,l)
);
}
);
width = 1800;
}
);
unicode = 35;
},
{
glyphname = dollar;
lastChange = "2024-07-24 17:29:23 +0000";
layers = (
{
layerId = m01;
shapes = (
{
closed = 1;
nodes = (
(300,1700,l),
(300,1600,l),
(400,1600,l),
(400,1700,l)
);
},
{
closed = 1;
nodes = (
(600,1700,l),
(600,1100,l),
(500,1100,l),
(500,1000,l),
(600,1000,l),
(600,100,l),
(400,100,l),
(400,0,l),
(600,0,l),
(600,-200,l),
(700,-200,l),
(700,0,l),
(900,0,l),
(900,100,l),
(700,100,l),
(700,900,l),
(800,900,l),
(800,1000,l),
(700,1000,l),
(700,1700,l),
(900,1700,l),
(900,1800,l),
(700,1800,l),
(700,2000,l),
(600,2000,l),
(600,1800,l),
(400,1800,l),
(400,1700,l)
);
},
{
closed = 1;
nodes = (
(1000,1600,l),
(1000,1700,l),
(900,1700,l),
(900,1600,l)
);
},
{
closed = 1;
nodes = (
(1000,1400,l),
(1100,1400,l),
(1100,1600,l),
(1000,1600,l)
);
},
{
closed = 1;
nodes = (
(200,1300,l),
(300,1300,l),
(300,1600,l),
(200,1600,l)
);
},
{
closed = 1;
nodes = (
(400,1200,l),
(400,1300,l),
(300,1300,l),
(300,1200,l)
);
},
{
closed = 1;
nodes = (
(500,1100,l),
(500,1200,l),
(400,1200,l),
(400,1100,l)
);
},
{
closed = 1;
nodes = (
(900,800,l),
(900,900,l),
(800,900,l),
(800,800,l)
);
},
{
closed = 1;
nodes = (
(1000,700,l),
(1000,800,l),
(900,800,l),
(900,700,l)
);
},
{
closed = 1;
nodes = (
(1000,200,l),
(1100,200,l),
(1100,700,l),
(1000,700,l)
);
},
{
closed = 1;
nodes = (
(900,200,l),
(900,100,l),
(1000,100,l),
(1000,200,l)
);
},
{
closed = 1;
nodes = (
(400,100,l),
(400,200,l),
(300,200,l),
(300,100,l)
);
},
{
closed = 1;
nodes = (
(300,200,l),
(300,400,l),
(200,400,l),
(200,200,l)
);
}
);
width = 1400;
}
);
unicode = 36;
},
{
glyphname = percent;
lastChange = "2024-07-24 17:29:08 +0000";
layers = (
{
layerId = m01;
shapes = (
{
closed = 1;
nodes = (
(300,1700,l),
(300,1600,l),
(400,1600,l),
(400,1700,l)
);
},
{
closed = 1;
nodes = (
(600,1700,l),
(600,1800,l),
(400,1800,l),
(400,1700,l)
);
},
{
closed = 1;
nodes = (
(200,1600,l),
(200,1200,l),
(300,1200,l),
(300,1600,l)
);
},
{
closed = 1;
nodes = (
(400,1100,l),
(400,1200,l),
(300,1200,l),
(300,1100,l)
);
},
{
closed = 1;
nodes = (
(600,1000,l),
(600,1100,l),
(400,1100,l),
(400,1000,l)
);
},
{
closed = 1;
nodes = (
(700,1100,l),
(700,1200,l),
(600,1200,l),
(600,1100,l)
);
},
{
closed = 1;
nodes = (
(800,1200,l),
(800,1600,l),
(700,1600,l),
(700,1200,l)
);
},
{
closed = 1;
nodes = (
(700,1600,l),
(700,1700,l),
(600,1700,l),
(600,1600,l)
);
},
{
closed = 1;
nodes = (
(1500,1700,l),
(1500,1800,l),
(700,1800,l),
(700,1700,l)
);
},
{
closed = 1;
nodes = (
(1500,1500,l),
(1600,1500,l),
(1600,1700,l),
(1500,1700,l)
);
},
{
closed = 1;
nodes = (
(1400,1500,l),
(1400,1400,l),
(1500,1400,l),
(1500,1500,l)
);
},
{
closed = 1;
nodes = (
(1300,1400,l),
(1300,1300,l),
(1400,1300,l),
(1400,1400,l)
);
},
{
closed = 1;
nodes = (
(1200,1300,l),
(1200,1200,l),
(1300,1200,l),
(1300,1300,l)
);
},
{
closed = 1;
nodes = (
(1100,1200,l),
(1100,1100,l),
(1200,1100,l),
(1200,1200,l)
);
},
{
closed = 1;
nodes = (
(1000,1100,l),
(1000,1000,l),
(1100,1000,l),
(1100,1100,l)
);
},
{
closed = 1;
nodes = (
(900,1000,l),
(900,900,l),
(1000,900,l),
(1000,1000,l)
);
},
{
closed = 1;
nodes = (
(800,900,l),
(800,800,l),
(900,800,l),
(900,900,l)
);
},
{
closed = 1;
nodes = (
(700,800,l),
(700,700,l),
(800,700,l),
(800,800,l)
);
},
{
closed = 1;
nodes = (
(600,700,l),
(600,600,l),
(700,600,l),
(700,700,l)
);
},
{
closed = 1;
nodes = (
(500,600,l),
(500,500,l),
(600,500,l),
(600,600,l)
);
},
{
closed = 1;
nodes = (
(400,500,l),
(400,300,l),
(500,300,l),
(500,500,l)
);
},
{
closed = 1;
nodes = (
(300,300,l),
(300,0,l),
(400,0,l),
(400,300,l)
);
},
{
closed = 1;
nodes = (
(1400,200,l),
(1400,100,l),
(1500,100,l),
(1500,200,l)
);
},
{
closed = 1;
nodes = (
(1600,200,l),
(1600,600,l),
(1500,600,l),
(1500,200,l)
);
},
{
closed = 1;
nodes = (
(1500,600,l),
(1500,700,l),
(1400,700,l),
(1400,600,l)
);
},
{
closed = 1;
nodes = (
(1400,700,l),
(1400,800,l),
(1200,800,l),
(1200,700,l)
);
},
{
closed = 1;
nodes = (
(1100,700,l),
(1100,600,l),
(1200,600,l),
(1200,700,l)
);
},
{
closed = 1;
nodes = (
(1000,600,l),
(1000,200,l),
(1100,200,l),
(1100,600,l)
);
},
{
closed = 1;
nodes = (
(1200,100,l),
(1200,200,l),
(1100,200,l),
(1100,100,l)
);
},
{
closed = 1;
nodes = (
(1400,0,l),
(1400,100,l),
(1200,100,l),
(1200,0,l)
);
}
);
width = 1800;
}
);
unicode = 37;
},
{
glyphname = ampersand;
lastChange = "2024-07-24 17:29:30 +0000";
layers = (
{
layerId = m01;
shapes = (
{
closed = 1;
nodes = (
(400,200,l),
(400,300,l),
(300,300,l),
(300,200,l)
);
},
{
closed = 1;
nodes = (
(500,100,l),
(500,200,l),
(400,200,l),
(400,100,l)
);
},
{
closed = 1;
nodes = (
(900,0,l),
(900,100,l),
(500,100,l),
(500,0,l)
);
},
{
closed = 1;
nodes = (
(1000,100,l),
(1000,200,l),
(900,200,l),
(900,100,l)
);
},
{
closed = 1;
nodes = (
(1100,200,l),
(1100,300,l),
(1000,300,l),
(1000,200,l)
);
},
{
closed = 1;
nodes = (
(1200,300,l),
(1200,400,l),
(1100,400,l),
(1100,300,l)
);
},
{
closed = 1;
nodes = (
(1300,400,l),
(1300,500,l),
(1200,500,l),
(1200,400,l)
);
},
{
closed = 1;
nodes = (
(1200,500,l),
(1200,600,l),
(1100,600,l),
(1100,500,l)
);
},
{
closed = 1;
nodes = (
(1400,500,l),
(1400,600,l),
(1300,600,l),
(1300,500,l)
);
},
{
closed = 1;
nodes = (
(1400,300,l),
(1400,400,l),
(1300,400,l),
(1300,300,l)
);
},
{
closed = 1;
nodes = (
(1500,200,l),
(1500,300,l),
(1400,300,l),
(1400,200,l)
);
},
{
closed = 1;
nodes = (
(1600,100,l),
(1600,200,l),
(1500,200,l),
(1500,100,l)
);
},
{
closed = 1;
nodes = (
(1700,0,l),
(1700,100,l),
(1600,100,l),
(1600,0,l)
);
},
{
closed = 1;
nodes = (
(1500,600,l),
(1500,700,l),
(1400,700,l),
(1400,600,l)
);
},
{
closed = 1;
nodes = (
(1600,700,l),
(1600,800,l),
(1500,800,l),
(1500,700,l)
);
},
{
closed = 1;
nodes = (
(1100,600,l),
(1100,700,l),
(1000,700,l),
(1000,600,l)
);
},
{
closed = 1;
nodes = (
(1000,700,l),
(1000,800,l),
(900,800,l),
(900,700,l)
);
},
{
closed = 1;
nodes = (
(800,900,l),
(800,1000,l),
(700,1000,l),
(700,900,l)
);
},
{
closed = 1;
nodes = (
(900,800,l),
(900,900,l),
(800,900,l),
(800,800,l)
);
},
{
closed = 1;
nodes = (
(500,1000,l),
(500,900,l),
(600,900,l),
(600,1000,l)
);
},
{
closed = 1;
nodes = (
(700,1000,l),
(700,1100,l),
(600,1100,l),
(600,1000,l)
);
},
{
closed = 1;
nodes = (
(300,300,l),
(300,600,l),
(200,600,l),
(200,300,l)
);
},
{
closed = 1;
nodes = (
(400,600,l),
(400,800,l),
(300,800,l),
(300,600,l)
);
},
{
closed = 1;
nodes = (
(500,800,l),
(500,900,l),
(400,900,l),
(400,800,l)
);
},
{
closed = 1;
nodes = (
(600,1100,l),
(600,1200,l),
(500,1200,l),
(500,1100,l)
);
},
{
closed = 1;
nodes = (
(500,1200,l),
(500,1600,l),
(400,1600,l),
(400,1200,l)
);
},
{
closed = 1;
nodes = (
(600,1600,l),
(600,1700,l),
(500,1700,l),
(500,1600,l)
);
},
{
closed = 1;
nodes = (
(900,1700,l),
(900,1800,l),
(600,1800,l),
(600,1700,l)
);
},
{
closed = 1;
nodes = (
(1000,1600,l),
(1000,1700,l),
(900,1700,l),
(900,1600,l)
);
},
{
closed = 1;
nodes = (
(1000,1400,l),
(1100,1400,l),
(1100,1600,l),
(1000,1600,l)
);
},
{
closed = 1;
nodes = (
(900,1400,l),
(900,1300,l),
(1000,1300,l),
(1000,1400,l)
);
},
{
closed = 1;
nodes = (
(800,1300,l),
(800,1200,l),
(900,1200,l),
(900,1300,l)
);
},
{
closed = 1;
nodes = (
(700,1200,l),
(700,1100,l),
(800,1100,l),
(800,1200,l)
);
}
);
width = 1800;
}
);
unicode = 38;
},
{
glyphname = quotesingle;
lastChange = "2024-07-24 17:29:46 +0000";
layers = (
{
layerId = m01;
shapes = (
{
closed = 1;
nodes = (
(200,1400,l),
(300,1400,l),
(300,1800,l),
(200,1800,l)
);
}
);
width = 600;
}
);
unicode = 39;
},
{
glyphname = parenleft;
lastChange = "2024-07-24 17:29:54 +0000";
layers = (
{
layerId = m01;
shapes = (
{
closed = 1;
nodes = (
(300,200,l),
(400,200,l),
(400,400,l),
(300,400,l)
);
},
{
closed = 1;
nodes = (
(400,0,l),
(500,0,l),
(500,200,l),
(400,200,l)
);
},
{
closed = 1;
nodes = (
(600,-100,l),
(600,0,l),
(500,0,l),
(500,-100,l)
);
},
{
closed = 1;
nodes = (
(700,-200,l),
(700,-100,l),
(600,-100,l),
(600,-200,l)
);
},
{
closed = 1;
nodes = (
(300,400,l),
(300,1300,l),
(200,1300,l),
(200,400,l)
);
},
{
closed = 1;
nodes = (
(500,1800,l),
(500,1700,l),
(600,1700,l),
(600,1800,l)
);
},
{
closed = 1;
nodes = (
(700,1800,l),
(700,1900,l),
(600,1900,l),
(600,1800,l)
);
},
{
closed = 1;
nodes = (
(400,1700,l),
(400,1500,l),
(500,1500,l),
(500,1700,l)
);
},
{
closed = 1;
nodes = (
(300,1500,l),
(300,1300,l),
(400,1300,l),
(400,1500,l)
);
}
);
width = 1000;
}
);
unicode = 40;
},
{
glyphname = parenright;
lastChange = "2024-07-24 17:29:57 +0000";
layers = (
{
layerId = m01;
shapes = (
{
closed = 1;
nodes = (
(700,400,l),
(600,400,l),
(600,200,l),
(700,200,l)
);
},
{
closed = 1;
nodes = (
(600,200,l),
(500,200,l),
(500,0,l),
(600,0,l)
);
},
{
closed = 1;
nodes = (
(500,0,l),
(400,0,l),
(400,-100,l),
(500,-100,l)
);
},
{
closed = 1;
nodes = (
(400,-100,l),
(300,-100,l),
(300,-200,l),
(400,-200,l)
);
},
{
closed = 1;
nodes = (
(800,1300,l),
(700,1300,l),
(700,400,l),
(800,400,l)
);
},
{
closed = 1;
nodes = (
(400,1900,l),
(300,1900,l),
(300,1800,l),
(400,1800,l)
);
},
{
closed = 1;
nodes = (
(400,1700,l),
(500,1700,l),
(500,1800,l),
(400,1800,l)
);
},
{
closed = 1;
nodes = (
(500,1500,l),
(600,1500,l),
(600,1700,l),
(500,1700,l)
);
},
{
closed = 1;
nodes = (
(600,1300,l),
(700,1300,l),
(700,1500,l),
(600,1500,l)
);
}
);
width = 1000;
}
);
unicode = 41;
},
{
glyphname = asterisk;
lastChange = "2024-07-24 17:30:02 +0000";
layers = (
{
layerId = m01;
shapes = (
{
closed = 1;
nodes = (
(400,1700,l),
(400,1800,l),
(300,1800,l),
(300,1700,l)
);
},
{
closed = 1;
nodes = (
(600,1500,l),
(600,1600,l),
(500,1600,l),
(500,1500,l)
);
},
{
closed = 1;
nodes = (
(500,1600,l),
(500,1700,l),
(400,1700,l),
(400,1600,l)
);
},
{
closed = 1;
nodes = (
(700,1400,l),
(700,1500,l),
(600,1500,l),
(600,1400,l)
);
},
{
closed = 1;
nodes = (
(100,1300,l),
(100,1200,l),
(700,1200,l),
(700,1100,l),
(900,1100,l),
(900,1200,l),
(1500,1200,l),
(1500,1300,l),
(900,1300,l),
(900,1400,l),
(700,1400,l),
(700,1300,l)
);
},
{
closed = 1;
nodes = (
(600,1100,l),
(600,1000,l),
(700,1000,l),
(700,1100,l)
);
},
{
closed = 1;
nodes = (
(1000,1400,l),
(1000,1500,l),
(900,1500,l),
(900,1400,l)
);
},
{
closed = 1;
nodes = (
(1100,1500,l),
(1100,1600,l),
(1000,1600,l),
(1000,1500,l)
);
},
{
closed = 1;
nodes = (
(1200,1600,l),
(1200,1700,l),
(1100,1700,l),
(1100,1600,l)
);
},
{
closed = 1;
nodes = (
(1300,1700,l),
(1300,1800,l),
(1200,1800,l),
(1200,1700,l)
);
},
{
closed = 1;
nodes = (
(500,1000,l),
(500,900,l),
(600,900,l),
(600,1000,l)
);
},
{
closed = 1;
nodes = (
(400,900,l),
(400,800,l),
(500,800,l),
(500,900,l)
);
},
{
closed = 1;
nodes = (
(300,800,l),
(300,700,l),
(400,700,l),
(400,800,l)
);
},
{
closed = 1;
nodes = (
(1000,1000,l),
(1000,1100,l),
(900,1100,l),
(900,1000,l)
);
},
{
closed = 1;
nodes = (
(1100,900,l),
(1100,1000,l),
(1000,1000,l),
(1000,900,l)
);
},
{
closed = 1;
nodes = (
(1200,800,l),
(1200,900,l),
(1100,900,l),
(1100,800,l)
);
},
{
closed = 1;
nodes = (
(1300,700,l),
(1300,800,l),
(1200,800,l),
(1200,700,l)
);
}
);
width = 1600;
}
);
unicode = 42;
},
{
glyphname = plus;
lastChange = "2024-07-24 17:30:06 +0000";
layers = (
{
layerId = m01;
shapes = (
{
closed = 1;
nodes = (
(600,900,l),
(600,500,l),
(700,500,l),
(700,900,l),
(1100,900,l),
(1100,1000,l),
(700,1000,l),
(700,1400,l),
(600,1400,l),
(600,1000,l),
(200,1000,l),
(200,900,l)
);
}
);
width = 1400;
}
);
unicode = 43;
},
{
glyphname = comma;
lastChange = "2024-07-24 17:30:10 +0000";
layers = (
{
layerId = m01;
shapes = (
{
closed = 1;
nodes = (
(400,100,l),
(400,-200,l),
(500,-200,l),
(500,200,l),
(300,200,l),
(300,100,l)
);
},
{
closed = 1;
nodes = (
(300,-200,l),
(300,-300,l),
(400,-300,l),
(400,-200,l)
);
},
{
closed = 1;
nodes = (
(200,-300,l),
(200,-400,l),
(300,-400,l),
(300,-300,l)
);
}
);
width = 800;
}
);
unicode = 44;
},
{
glyphname = minus;
lastChange = "2024-07-24 17:29:08 +0000";
layers = (
{
layerId = m01;
shapes = (
{
closed = 1;
nodes = (
(1200,900,l),
(1200,1000,l),
(200,1000,l),
(200,900,l)
);
}
);
width = 1400;
}
);
unicode = 8722;
},
{
glyphname = period;
lastChange = "2024-07-24 17:30:15 +0000";
layers = (
{
layerId = m01;
shapes = (
{
closed = 1;
nodes = (
(200,0,l),
(300,0,l),
(300,200,l),
(200,200,l)
);
}
);
width = 600;
}
);
unicode = 46;
},
{
glyphname = slash;
lastChange = "2024-07-24 17:30:19 +0000";
layers = (
{
layerId = m01;
shapes = (
{
closed = 1;
nodes = (
(300,0,l),
(300,200,l),
(200,200,l),
(200,0,l)
);
},
{
closed = 1;
nodes = (
(400,200,l),
(400,400,l),
(300,400,l),
(300,200,l)
);
},
{
closed = 1;
nodes = (
(500,400,l),
(500,600,l),
(400,600,l),
(400,400,l)
);
},
{
closed = 1;
nodes = (
(600,600,l),
(600,800,l),
(500,800,l),
(500,600,l)
);
},
{
closed = 1;
nodes = (
(700,800,l),
(700,1000,l),
(600,1000,l),
(600,800,l)
);
},
{
closed = 1;
nodes = (
(800,1000,l),
(800,1200,l),
(700,1200,l),
(700,1000,l)
);
},
{
closed = 1;
nodes = (
(900,1200,l),
(900,1400,l),
(800,1400,l),
(800,1200,l)
);
},
{
closed = 1;
nodes = (
(1000,1400,l),
(1000,1600,l),
(900,1600,l),
(900,1400,l)
);
},
{
closed = 1;
nodes = (
(1100,1600,l),
(1100,1800,l),
(1000,1800,l),
(1000,1600,l)
);
}
);
width = 1400;
}
);
unicode = 47;
},
{
glyphname = zero;
lastChange = "2024-07-24 17:29:08 +0000";
layers = (
{
layerId = m01;
shapes = (
{
closed = 1;
nodes = (
(600,100,l),
(600,200,l),
(500,200,l),
(500,100,l)
);
},
{
closed = 1;
nodes = (
(500,200,l),
(500,300,l),
(400,300,l),
(400,200,l)
);
},
{
closed = 1;
nodes = (
(400,300,l),
(400,500,l),
(300,500,l),
(300,300,l)
);
},
{
closed = 1;
nodes = (
(1000,0,l),
(1000,100,l),
(600,100,l),
(600,0,l)
);
},
{
closed = 1;
nodes = (
(1100,100,l),
(1100,200,l),
(1000,200,l),
(1000,100,l)
);
},
{
closed = 1;
nodes = (
(1200,200,l),
(1200,300,l),
(1100,300,l),
(1100,200,l)
);
},
{
closed = 1;
nodes = (
(1300,300,l),
(1300,500,l),
(1200,500,l),
(1200,300,l)
);
},
{
closed = 1;
nodes = (
(1400,500,l),
(1400,1300,l),
(1300,1300,l),
(1300,500,l)
);
},
{
closed = 1;
nodes = (
(1300,1300,l),
(1300,1500,l),
(1200,1500,l),
(1200,1300,l)
);
},
{
closed = 1;
nodes = (
(1200,1500,l),
(1200,1600,l),
(1100,1600,l),
(1100,1500,l)
);
},
{
closed = 1;
nodes = (
(1100,1600,l),
(1100,1700,l),
(1000,1700,l),
(1000,1600,l)
);
},
{
closed = 1;
nodes = (
(1000,1700,l),
(1000,1800,l),
(600,1800,l),
(600,1700,l)
);
},
{
closed = 1;
nodes = (
(500,1700,l),
(500,1600,l),
(600,1600,l),
(600,1700,l)
);
},
{
closed = 1;
nodes = (
(400,1600,l),
(400,1500,l),
(500,1500,l),
(500,1600,l)
);
},
{
closed = 1;
nodes = (
(300,1500,l),
(300,1300,l),
(400,1300,l),
(400,1500,l)
);
},
{
closed = 1;
nodes = (
(200,1300,l),
(200,500,l),
(300,500,l),
(300,1300,l)
);
}
);
width = 1600;
}
);
unicode = 48;
},
{
glyphname = one;
lastChange = "2024-07-24 17:30:27 +0000";
layers = (
{
layerId = m01;
shapes = (
{
closed = 1;
nodes = (
(700,1500,l),
(700,1600,l),
(600,1600,l),
(600,1500,l)
);
},
{
closed = 1;
nodes = (
(800,1600,l),
(800,0,l),
(900,0,l),
(900,1800,l),
(800,1800,l),
(800,1700,l),
(700,1700,l),
(700,1600,l)
);
}
);
width = 1600;
}
);
unicode = 49;
},
{
glyphname = two;
lastChange = "2024-07-24 17:29:08 +0000";
layers = (
{
layerId = m01;
shapes = (
{
closed = 1;
nodes = (
(300,1300,l),
(300,1500,l),
(200,1500,l),
(200,1300,l)
);
},
{
closed = 1;
nodes = (
(400,1500,l),
(400,1600,l),
(300,1600,l),
(300,1500,l)
);
},
{
closed = 1;
nodes = (
(600,1600,l),
(600,1700,l),
(400,1700,l),
(400,1600,l)
);
},
{
closed = 1;
nodes = (
(1100,1700,l),
(1100,1800,l),
(600,1800,l),
(600,1700,l)
);
},
{
closed = 1;
nodes = (
(1200,1600,l),
(1200,1700,l),
(1100,1700,l),
(1100,1600,l)
);
},
{
closed = 1;
nodes = (
(1300,1500,l),
(1300,1600,l),
(1200,1600,l),
(1200,1500,l)
);
},
{
closed = 1;
nodes = (
(1300,1100,l),
(1400,1100,l),
(1400,1500,l),
(1300,1500,l)
);
},
{
closed = 1;
nodes = (
(1200,1100,l),
(1200,1000,l),
(1300,1000,l),
(1300,1100,l)
);
},
{
closed = 1;
nodes = (
(1100,1000,l),
(1100,900,l),
(1200,900,l),
(1200,1000,l)
);
},
{
closed = 1;
nodes = (
(1000,900,l),
(1000,800,l),
(1100,800,l),
(1100,900,l)
);
},
{
closed = 1;
nodes = (
(900,800,l),
(900,700,l),
(1000,700,l),
(1000,800,l)
);
},
{
closed = 1;
nodes = (
(800,700,l),
(800,600,l),
(900,600,l),
(900,700,l)
);
},
{
closed = 1;
nodes = (
(700,600,l),
(700,500,l),
(800,500,l),
(800,600,l)
);
},
{
closed = 1;
nodes = (
(600,500,l),
(600,400,l),
(700,400,l),
(700,500,l)
);
},
{
closed = 1;
nodes = (
(500,400,l),
(500,300,l),
(600,300,l),
(600,400,l)
);
},
{
closed = 1;
nodes = (
(400,300,l),
(400,200,l),
(500,200,l),
(500,300,l)
);
},
{
closed = 1;
nodes = (
(300,200,l),
(300,100,l),
(200,100,l),
(200,0,l),
(1400,0,l),
(1400,100,l),
(400,100,l),
(400,200,l)
);
}
);
width = 1600;
}
);
unicode = 50;
},
{
glyphname = three;
lastChange = "2024-07-24 17:29:08 +0000";
layers = (
{
layerId = m01;
shapes = (
{
closed = 1;
nodes = (
(1200,1700,l),
(1200,1600,l),
(1300,1600,l),
(1300,1700,l),
(1400,1700,l),
(1400,1800,l),
(200,1800,l),
(200,1700,l)
);
},
{
closed = 1;
nodes = (
(1100,1600,l),
(1100,1500,l),
(1200,1500,l),
(1200,1600,l)
);
},
{
closed = 1;
nodes = (
(1000,1500,l),
(1000,1400,l),
(1100,1400,l),
(1100,1500,l)
);
},
{
closed = 1;
nodes = (
(900,1400,l),
(900,1300,l),
(1000,1300,l),
(1000,1400,l)
);
},
{
closed = 1;
nodes = (
(800,1300,l),
(800,1200,l),
(700,1200,l),
(700,1100,l),
(1000,1100,l),
(1000,1200,l),
(900,1200,l),
(900,1300,l)
);
},
{
closed = 1;
nodes = (
(1100,1000,l),
(1100,1100,l),
(1000,1100,l),
(1000,1000,l)
);
},
{
closed = 1;
nodes = (
(1100,800,l),
(1200,800,l),
(1200,1000,l),
(1100,1000,l)
);
},
{
closed = 1;
nodes = (
(1200,400,l),
(1300,400,l),
(1300,800,l),
(1200,800,l)
);
},
{
closed = 1;
nodes = (
(1100,400,l),
(1100,200,l),
(1200,200,l),
(1200,400,l)
);
},
{
closed = 1;
nodes = (
(900,200,l),
(900,100,l),
(1100,100,l),
(1100,200,l)
);
},
{
closed = 1;
nodes = (
(500,100,l),
(500,0,l),
(900,0,l),
(900,100,l)
);
},
{
closed = 1;
nodes = (
(500,100,l),
(500,200,l),
(300,200,l),
(300,100,l)
);
},
{
closed = 1;
nodes = (
(300,200,l),
(300,300,l),
(200,300,l),
(200,200,l)
);
}
);
width = 1600;
}
);
unicode = 51;
},
{
glyphname = four;
lastChange = "2024-07-24 17:30:36 +0000";
layers = (
{
layerId = m01;
shapes = (
{
closed = 1;
nodes = (
(1400,0,l),
(1400,500,l),
(1600,500,l),
(1600,600,l),
(1400,600,l),
(1400,1800,l),
(1300,1800,l),
(1300,1700,l),
(1200,1700,l),
(1200,1600,l),
(1300,1600,l),
(1300,600,l),
(300,600,l),
(300,700,l),
(200,700,l),
(200,500,l),
(1300,500,l),
(1300,0,l)
);
},
{
closed = 1;
nodes = (
(1100,1600,l),
(1100,1500,l),
(1200,1500,l),
(1200,1600,l)
);
},
{
closed = 1;
nodes = (
(1000,1500,l),
(1000,1400,l),
(1100,1400,l),
(1100,1500,l)
);
},
{
closed = 1;
nodes = (
(900,1400,l),
(900,1300,l),
(1000,1300,l),
(1000,1400,l)
);
},
{
closed = 1;
nodes = (
(800,1300,l),
(800,1200,l),
(900,1200,l),
(900,1300,l)
);
},
{
closed = 1;
nodes = (
(700,1200,l),
(700,1100,l),
(800,1100,l),
(800,1200,l)
);
},
{
closed = 1;
nodes = (
(600,1100,l),
(600,1000,l),
(700,1000,l),
(700,1100,l)
);
},
{
closed = 1;
nodes = (
(500,1000,l),
(500,900,l),
(600,900,l),
(600,1000,l)
);
},
{
closed = 1;
nodes = (
(400,900,l),
(400,800,l),
(500,800,l),
(500,900,l)
);
},
{
closed = 1;
nodes = (
(300,800,l),
(300,700,l),
(400,700,l),
(400,800,l)
);
}
);
width = 1600;
}
);
unicode = 52;
},
{
glyphname = five;
lastChange = "2024-07-24 17:29:08 +0000";
layers = (
{
layerId = m01;
shapes = (
{
closed = 1;
nodes = (
(300,200,l),
(300,300,l),
(200,300,l),
(200,200,l)
);
},
{
closed = 1;
nodes = (
(500,100,l),
(500,200,l),
(300,200,l),
(300,100,l)
);
},
{
closed = 1;
nodes = (
(1000,0,l),
(1000,100,l),
(500,100,l),
(500,0,l)
);
},
{
closed = 1;
nodes = (
(1200,100,l),
(1200,200,l),
(1000,200,l),
(1000,100,l)
);
},
{
closed = 1;
nodes = (
(1300,200,l),
(1300,400,l),
(1200,400,l),
(1200,200,l)
);
},
{
closed = 1;
nodes = (
(1400,400,l),
(1400,800,l),
(1300,800,l),
(1300,400,l)
);
},
{
closed = 1;
nodes = (
(1300,800,l),
(1300,1000,l),
(1200,1000,l),
(1200,800,l)
);
},
{
closed = 1;
nodes = (
(1200,1000,l),
(1200,1100,l),
(1000,1100,l),
(1000,1000,l)
);
},
{
closed = 1;
nodes = (
(1000,1100,l),
(1000,1200,l),
(300,1200,l),
(300,1600,l),
(1300,1600,l),
(1300,1700,l),
(200,1700,l),
(200,1100,l)
);
}
);
width = 1600;
}
);
unicode = 53;
},
{
glyphname = six;
lastChange = "2024-07-24 17:29:08 +0000";
layers = (
{
layerId = m01;
shapes = (
{
closed = 1;
nodes = (
(1000,0,l),
(1000,100,l),
(600,100,l),
(600,0,l)
);
},
{
closed = 1;
nodes = (
(600,100,l),
(600,200,l),
(400,200,l),
(400,100,l)
);
},
{
closed = 1;
nodes = (
(400,200,l),
(400,400,l),
(300,400,l),
(300,200,l)
);
},
{
closed = 1;
nodes = (
(300,400,l),
(300,900,l),
(400,900,l),
(400,1000,l),
(300,1000,l),
(300,1300,l),
(200,1300,l),
(200,400,l)
);
},
{
closed = 1;
nodes = (
(1200,100,l),
(1200,200,l),
(1000,200,l),
(1000,100,l)
);
},
{
closed = 1;
nodes = (
(1300,200,l),
(1300,400,l),
(1200,400,l),
(1200,200,l)
);
},
{
closed = 1;
nodes = (
(1400,400,l),
(1400,800,l),
(1300,800,l),
(1300,400,l)
);
},
{
closed = 1;
nodes = (
(1300,800,l),
(1300,1000,l),
(1200,1000,l),
(1200,800,l)
);
},
{
closed = 1;
nodes = (
(1200,1000,l),
(1200,1100,l),
(1000,1100,l),
(1000,1000,l)
);
},
{
closed = 1;
nodes = (
(1000,1100,l),
(1000,1200,l),
(600,1200,l),
(600,1100,l)
);
},
{
closed = 1;
nodes = (
(400,1100,l),
(400,1000,l),
(600,1000,l),
(600,1100,l)
);
},
{
closed = 1;
nodes = (
(400,1300,l),
(400,1500,l),
(300,1500,l),
(300,1300,l)
);
},
{
closed = 1;
nodes = (
(500,1500,l),
(500,1600,l),
(400,1600,l),
(400,1500,l)
);
},
{
closed = 1;
nodes = (
(700,1600,l),
(700,1700,l),
(500,1700,l),
(500,1600,l)
);
},
{
closed = 1;
nodes = (
(1200,1700,l),
(1200,1800,l),
(700,1800,l),
(700,1700,l)
);
}
);
width = 1600;
}
);
unicode = 54;
},
{
glyphname = seven;
lastChange = "2024-07-24 17:29:08 +0000";
layers = (
{
layerId = m01;
shapes = (
{
closed = 1;
nodes = (
(1300,1700,l),
(1300,1500,l),
(1400,1500,l),
(1400,1800,l),
(200,1800,l),
(200,1700,l)
);
},
{
closed = 1;
nodes = (
(1200,1500,l),
(1200,1300,l),
(1300,1300,l),
(1300,1500,l)
);
},
{
closed = 1;
nodes = (
(1100,1300,l),
(1100,1100,l),
(1200,1100,l),
(1200,1300,l)
);
},
{
closed = 1;
nodes = (
(1000,1100,l),
(1000,900,l),
(1100,900,l),
(1100,1100,l)
);
},
{
closed = 1;
nodes = (
(900,900,l),
(900,700,l),
(1000,700,l),
(1000,900,l)
);
},
{
closed = 1;
nodes = (
(800,700,l),
(800,500,l),
(900,500,l),
(900,700,l)
);
},
{
closed = 1;
nodes = (
(700,500,l),
(700,300,l),
(800,300,l),
(800,500,l)
);
},
{
closed = 1;
nodes = (
(600,300,l),
(600,0,l),
(700,0,l),
(700,300,l)
);
}
);
width = 1600;
}
);
unicode = 55;
},
{
glyphname = eight;
lastChange = "2024-07-24 17:29:08 +0000";
layers = (
{
layerId = m01;
shapes = (
{
closed = 1;
nodes = (
(400,1700,l),
(400,1600,l),
(500,1600,l),
(500,1700,l)
);
},
{
closed = 1;
nodes = (
(1100,1700,l),
(1100,1800,l),
(500,1800,l),
(500,1700,l)
);
},
{
closed = 1;
nodes = (
(1200,1600,l),
(1200,1700,l),
(1100,1700,l),
(1100,1600,l)
);
},
{
closed = 1;
nodes = (
(1200,1200,l),
(1300,1200,l),
(1300,1600,l),
(1200,1600,l)
);
},
{
closed = 1;
nodes = (
(1100,1200,l),
(1100,1100,l),
(1200,1100,l),
(1200,1200,l)
);
},
{
closed = 1;
nodes = (
(500,1100,l),
(500,1000,l),
(1100,1000,l),
(1100,1100,l)
);
},
{
closed = 1;
nodes = (
(400,1000,l),
(400,900,l),
(500,900,l),
(500,1000,l)
);
},
{
closed = 1;
nodes = (
(500,1100,l),
(500,1200,l),
(400,1200,l),
(400,1100,l)
);
},
{
closed = 1;
nodes = (
(400,1200,l),
(400,1600,l),
(300,1600,l),
(300,1200,l)
);
},
{
closed = 1;
nodes = (
(300,900,l),
(300,700,l),
(400,700,l),
(400,900,l)
);
},
{
closed = 1;
nodes = (
(200,700,l),
(200,400,l),
(300,400,l),
(300,700,l)
);
},
{
closed = 1;
nodes = (
(300,200,l),
(400,200,l),
(400,400,l),
(300,400,l)
);
},
{
closed = 1;
nodes = (
(600,100,l),
(600,200,l),
(400,200,l),
(400,100,l)
);
},
{
closed = 1;
nodes = (
(1000,0,l),
(1000,100,l),
(600,100,l),
(600,0,l)
);
},
{
closed = 1;
nodes = (
(1200,100,l),
(1200,200,l),
(1000,200,l),
(1000,100,l)
);
},
{
closed = 1;
nodes = (
(1300,200,l),
(1300,400,l),
(1200,400,l),
(1200,200,l)
);
},
{
closed = 1;
nodes = (
(1400,400,l),
(1400,700,l),
(1300,700,l),
(1300,400,l)
);
},
{
closed = 1;
nodes = (
(1300,700,l),
(1300,900,l),
(1200,900,l),
(1200,700,l)
);
},
{
closed = 1;
nodes = (
(1200,900,l),
(1200,1000,l),
(1100,1000,l),
(1100,900,l)
);
}
);
width = 1600;
}
);
unicode = 56;
},
{
glyphname = nine;
lastChange = "2024-07-24 17:29:08 +0000";
layers = (
{
layerId = m01;
shapes = (
{
closed = 1;
nodes = (
(400,1700,l),
(400,1600,l),
(600,1600,l),
(600,1700,l)
);
},
{
closed = 1;
nodes = (
(1000,1700,l),
(1000,1800,l),
(600,1800,l),
(600,1700,l)
);
},
{
closed = 1;
nodes = (
(300,1600,l),
(300,1400,l),
(400,1400,l),
(400,1600,l)
);
},
{
closed = 1;
nodes = (
(200,1400,l),
(200,1000,l),
(300,1000,l),
(300,1400,l)
);
},
{
closed = 1;
nodes = (
(300,800,l),
(400,800,l),
(400,1000,l),
(300,1000,l)
);
},
{
closed = 1;
nodes = (
(600,700,l),
(600,800,l),
(400,800,l),
(400,700,l)
);
},
{
closed = 1;
nodes = (
(1000,600,l),
(1000,700,l),
(600,700,l),
(600,600,l)
);
},
{
closed = 1;
nodes = (
(1200,700,l),
(1200,800,l),
(1000,800,l),
(1000,700,l)
);
},
{
closed = 1;
nodes = (
(1300,800,l),
(1300,500,l),
(1400,500,l),
(1400,1400,l),
(1300,1400,l),
(1300,900,l),
(1200,900,l),
(1200,800,l)
);
},
{
closed = 1;
nodes = (
(1200,1600,l),
(1200,1700,l),
(1000,1700,l),
(1000,1600,l)
);
},
{
closed = 1;
nodes = (
(1200,1400,l),
(1300,1400,l),
(1300,1600,l),
(1200,1600,l)
);
},
{
closed = 1;
nodes = (
(1200,500,l),
(1200,300,l),
(1300,300,l),
(1300,500,l)
);
},
{
closed = 1;
nodes = (
(1100,300,l),
(1100,200,l),
(1200,200,l),
(1200,300,l)
);
},
{
closed = 1;
nodes = (
(900,200,l),
(900,100,l),
(1100,100,l),
(1100,200,l)
);
},
{
closed = 1;
nodes = (
(500,100,l),
(500,0,l),
(900,0,l),
(900,100,l)
);
}
);
width = 1600;
}
);
unicode = 57;
},
{
glyphname = colon;
lastChange = "2024-07-24 17:30:45 +0000";
layers = (
{
layerId = m01;
shapes = (
{
closed = 1;
nodes = (
(300,0,l),
(300,200,l),
(200,200,l),
(200,0,l)
);
},
{
closed = 1;
nodes = (
(300,1000,l),
(300,1200,l),
(200,1200,l),
(200,1000,l)
);
}
);
width = 600;
}
);
unicode = 58;
},
{
glyphname = semicolon;
lastChange = "2024-07-24 17:30:49 +0000";
layers = (
{
layerId = m01;
shapes = (
{
closed = 1;
nodes = (
(400,1000,l),
(500,1000,l),
(500,1200,l),
(400,1200,l)
);
},
{
closed = 1;
nodes = (
(400,100,l),
(400,-200,l),
(500,-200,l),
(500,200,l),
(300,200,l),
(300,100,l)
);
},
{
closed = 1;
nodes = (
(300,-200,l),
(300,-300,l),
(400,-300,l),
(400,-200,l)
);
},
{
closed = 1;
nodes = (
(200,-300,l),
(200,-400,l),
(300,-400,l),
(300,-300,l)
);
}
);
width = 800;
}
);
unicode = 59;
},
{
glyphname = less;
lastChange = "2024-07-24 17:30:53 +0000";
layers = (
{
layerId = m01;
shapes = (
{
closed = 1;
nodes = (
(400,800,l),
(400,900,l),
(300,900,l),
(300,800,l)
);
},
{
closed = 1;
nodes = (
(500,900,l),
(500,1000,l),
(400,1000,l),
(400,900,l)
);
},
{
closed = 1;
nodes = (
(600,1000,l),
(600,1100,l),
(500,1100,l),
(500,1000,l)
);
},
{
closed = 1;
nodes = (
(700,1100,l),
(700,1200,l),
(600,1200,l),
(600,1100,l)
);
},
{
closed = 1;
nodes = (
(800,1200,l),
(800,1300,l),
(700,1300,l),
(700,1200,l)
);
},
{
closed = 1;
nodes = (
(900,1300,l),
(900,1400,l),
(800,1400,l),
(800,1300,l)
);
},
{
closed = 1;
nodes = (
(1000,1400,l),
(1000,1500,l),
(900,1500,l),
(900,1400,l)
);
},
{
closed = 1;
nodes = (
(500,700,l),
(500,800,l),
(400,800,l),
(400,700,l)
);
},
{
closed = 1;
nodes = (
(600,600,l),
(600,700,l),
(500,700,l),
(500,600,l)
);
},
{
closed = 1;
nodes = (
(700,500,l),
(700,600,l),
(600,600,l),
(600,500,l)
);
},
{
closed = 1;
nodes = (
(800,400,l),
(800,500,l),
(700,500,l),
(700,400,l)
);
},
{
closed = 1;
nodes = (
(900,300,l),
(900,400,l),
(800,400,l),
(800,300,l)
);
},
{
closed = 1;
nodes = (
(1000,200,l),
(1000,300,l),
(900,300,l),
(900,200,l)
);
}
);
width = 1200;
}
);
unicode = 60;
},
{
glyphname = equal;
lastChange = "2024-07-24 17:29:08 +0000";
layers = (
{
layerId = m01;
shapes = (
{
closed = 1;
nodes = (
(1200,700,l),
(1200,800,l),
(200,800,l),
(200,700,l)
);
},
{
closed = 1;
nodes = (
(1200,1100,l),
(1200,1200,l),
(200,1200,l),
(200,1100,l)
);
}
);
width = 1400;
}
);
unicode = 61;
},
{
glyphname = greater;
lastChange = "2024-07-24 17:30:58 +0000";
layers = (
{
layerId = m01;
shapes = (
{
closed = 1;
nodes = (
(300,200,l),
(300,300,l),
(200,300,l),
(200,200,l)
);
},
{
closed = 1;
nodes = (
(400,300,l),
(400,400,l),
(300,400,l),
(300,300,l)
);
},
{
closed = 1;
nodes = (
(500,400,l),
(500,500,l),
(400,500,l),
(400,400,l)
);
},
{
closed = 1;
nodes = (
(600,500,l),
(600,600,l),
(500,600,l),
(500,500,l)
);
},
{
closed = 1;
nodes = (
(700,600,l),
(700,700,l),
(600,700,l),
(600,600,l)
);
},
{
closed = 1;
nodes = (
(800,700,l),
(800,800,l),
(700,800,l),
(700,700,l)
);
},
{
closed = 1;
nodes = (
(900,800,l),
(900,900,l),
(800,900,l),
(800,800,l)
);
},
{
closed = 1;
nodes = (
(700,1000,l),
(700,1100,l),
(600,1100,l),
(600,1000,l)
);
},
{
closed = 1;
nodes = (
(800,900,l),
(800,1000,l),
(700,1000,l),
(700,900,l)
);
},
{
closed = 1;
nodes = (
(600,1100,l),
(600,1200,l),
(500,1200,l),
(500,1100,l)
);
},
{
closed = 1;
nodes = (
(500,1200,l),
(500,1300,l),
(400,1300,l),
(400,1200,l)
);
},
{
closed = 1;
nodes = (
(400,1300,l),
(400,1400,l),
(300,1400,l),
(300,1300,l)
);
},
{
closed = 1;
nodes = (
(300,1400,l),
(300,1500,l),
(200,1500,l),
(200,1400,l)
);
}
);
width = 1200;
}
);
unicode = 62;
},
{
glyphname = question;
lastChange = "2024-07-24 17:31:02 +0000";
layers = (
{
layerId = m01;
shapes = (
{
closed = 1;
nodes = (
(900,0,l),
(900,200,l),
(800,200,l),
(800,0,l)
);
},
{
closed = 1;
nodes = (
(900,400,l),
(900,700,l),
(800,700,l),
(800,400,l)
);
},
{
closed = 1;
nodes = (
(1000,700,l),
(1000,900,l),
(900,900,l),
(900,700,l)
);
},
{
closed = 1;
nodes = (
(1100,900,l),
(1100,1000,l),
(1000,1000,l),
(1000,900,l)
);
},
{
closed = 1;
nodes = (
(1200,1000,l),
(1200,1100,l),
(1100,1100,l),
(1100,1000,l)
);
},
{
closed = 1;
nodes = (
(1300,1100,l),
(1300,1200,l),
(1200,1200,l),
(1200,1100,l)
);
},
{
closed = 1;
nodes = (
(1400,1200,l),
(1400,1600,l),
(1300,1600,l),
(1300,1200,l)
);
},
{
closed = 1;
nodes = (
(1300,1600,l),
(1300,1700,l),
(1200,1700,l),
(1200,1600,l)
);
},
{
closed = 1;
nodes = (
(1200,1700,l),
(1200,1800,l),
(600,1800,l),
(600,1700,l)
);
},
{
closed = 1;
nodes = (
(500,1700,l),
(500,1600,l),
(600,1600,l),
(600,1700,l)
);
},
{
closed = 1;
nodes = (
(400,1600,l),
(400,1500,l),
(500,1500,l),
(500,1600,l)
);
},
{
closed = 1;
nodes = (
(300,1500,l),
(300,1300,l),
(400,1300,l),
(400,1500,l)
);
}
);
width = 1600;
}
);
unicode = 63;
},
{
glyphname = at;
lastChange = "2024-07-24 17:31:07 +0000";
layers = (
{
layerId = m01;
shapes = (
{
closed = 1;
nodes = (
(1300,0,l),
(1300,100,l),
(800,100,l),
(800,0,l)
);
},
{
closed = 1;
nodes = (
(800,100,l),
(800,200,l),
(600,200,l),
(600,100,l)
);
},
{
closed = 1;
nodes = (
(600,200,l),
(600,300,l),
(500,300,l),
(500,200,l)
);
},
{
closed = 1;
nodes = (
(500,300,l),
(500,500,l),
(400,500,l),
(400,300,l)
);
},
{
closed = 1;
nodes = (
(400,500,l),
(400,1100,l),
(300,1100,l),
(300,500,l)
);
},
{
closed = 1;
nodes = (
(500,1100,l),
(500,1300,l),
(400,1300,l),
(400,1100,l)
);
},
{
closed = 1;
nodes = (
(600,1300,l),
(600,1400,l),
(500,1400,l),
(500,1300,l)
);
},
{
closed = 1;
nodes = (
(800,1400,l),
(800,1500,l),
(600,1500,l),
(600,1400,l)
);
},
{
closed = 1;
nodes = (
(1300,1500,l),
(1300,1600,l),
(800,1600,l),
(800,1500,l)
);
},
{
closed = 1;
nodes = (
(1500,1400,l),
(1500,1500,l),
(1300,1500,l),
(1300,1400,l)
);
},
{
closed = 1;
nodes = (
(1600,1300,l),
(1600,1400,l),
(1500,1400,l),
(1500,1300,l)
);
},
{
closed = 1;
nodes = (
(1600,1100,l),
(1700,1100,l),
(1700,1300,l),
(1600,1300,l)
);
},
{
closed = 1;
nodes = (
(1700,600,l),
(1800,600,l),
(1800,1100,l),
(1700,1100,l)
);
},
{
closed = 1;
nodes = (
(1600,600,l),
(1600,500,l),
(1700,500,l),
(1700,600,l)
);
},
{
closed = 1;
nodes = (
(1400,500,l),
(1400,400,l),
(1600,400,l),
(1600,500,l)
);
},
{
closed = 1;
nodes = (
(1400,500,l),
(1400,1100,l),
(1300,1100,l),
(1300,600,l),
(1200,600,l),
(1200,500,l)
);
},
{
closed = 1;
nodes = (
(900,500,l),
(900,400,l),
(1200,400,l),
(1200,500,l)
);
},
{
closed = 1;
nodes = (
(900,500,l),
(900,600,l),
(800,600,l),
(800,500,l)
);
},
{
closed = 1;
nodes = (
(800,600,l),
(800,1000,l),
(700,1000,l),
(700,600,l)
);
},
{
closed = 1;
nodes = (
(900,1000,l),
(900,1100,l),
(800,1100,l),
(800,1000,l)
);
},
{
closed = 1;
nodes = (
(1300,1100,l),
(1300,1200,l),
(900,1200,l),
(900,1100,l)
);
}
);
width = 2000;
}
);
unicode = 64;
},
{
glyphname = A;
lastChange = "2024-07-24 17:31:15 +0000";
layers = (
{
layerId = m01;
shapes = (
{
closed = 1;
nodes = (
(300,0,l),
(300,200,l),
(200,200,l),
(200,0,l)
);
},
{
closed = 1;
nodes = (
(400,200,l),
(400,400,l),
(300,400,l),
(300,200,l)
);
},
{
closed = 1;
nodes = (
(500,400,l),
(500,600,l),
(1400,600,l),
(1400,400,l),
(1500,400,l),
(1500,700,l),
(1400,700,l),
(1400,900,l),
(1300,900,l),
(1300,700,l),
(600,700,l),
(600,900,l),
(500,900,l),
(500,700,l),
(400,700,l),
(400,400,l)
);
},
{
closed = 1;
nodes = (
(700,900,l),
(700,1100,l),
(600,1100,l),
(600,900,l)
);
},
{
closed = 1;
nodes = (
(800,1100,l),
(800,1300,l),
(700,1300,l),
(700,1100,l)
);
},
{
closed = 1;
nodes = (
(800,1300,l),
(900,1300,l),
(900,1500,l),
(800,1500,l)
);
},
{
closed = 1;
nodes = (
(900,1500,l),
(1000,1500,l),
(1000,1800,l),
(900,1800,l)
);
},
{
closed = 1;
nodes = (
(1000,1300,l),
(1100,1300,l),
(1100,1500,l),
(1000,1500,l)
);
},
{
closed = 1;
nodes = (
(1100,1100,l),
(1200,1100,l),
(1200,1300,l),
(1100,1300,l)
);
},
{
closed = 1;
nodes = (
(1200,900,l),
(1300,900,l),
(1300,1100,l),
(1200,1100,l)
);
},
{
closed = 1;
nodes = (
(1500,200,l),
(1600,200,l),
(1600,400,l),
(1500,400,l)
);
},
{
closed = 1;
nodes = (
(1600,0,l),
(1700,0,l),
(1700,200,l),
(1600,200,l)
);
}
);
width = 1800;
}
);
unicode = 65;
},
{
glyphname = B;
lastChange = "2024-07-24 17:29:08 +0000";
layers = (
{
layerId = m01;
shapes = (
{
closed = 1;
nodes = (
(1100,0,l),
(1100,100,l),
(300,100,l),
(300,1000,l),
(1100,1000,l),
(1100,1100,l),
(300,1100,l),
(300,1700,l),
(1100,1700,l),
(1100,1800,l),
(200,1800,l),
(200,0,l)
);
},
{
closed = 1;
nodes = (
(1200,1600,l),
(1200,1700,l),
(1100,1700,l),
(1100,1600,l)
);
},
{
closed = 1;
nodes = (
(1200,1200,l),
(1300,1200,l),
(1300,1600,l),
(1200,1600,l)
);
},
{
closed = 1;
nodes = (
(1100,1200,l),
(1100,1100,l),
(1200,1100,l),
(1200,1200,l)
);
},
{
closed = 1;
nodes = (
(1200,100,l),
(1200,200,l),
(1100,200,l),
(1100,100,l)
);
},
{
closed = 1;
nodes = (
(1300,200,l),
(1300,300,l),
(1200,300,l),
(1200,200,l)
);
},
{
closed = 1;
nodes = (
(1200,900,l),
(1200,1000,l),
(1100,1000,l),
(1100,900,l)
);
},
{
closed = 1;
nodes = (
(1300,800,l),
(1300,900,l),
(1200,900,l),
(1200,800,l)
);
},
{
closed = 1;
nodes = (
(1300,300,l),
(1400,300,l),
(1400,800,l),
(1300,800,l)
);
}
);
width = 1600;
}
);
unicode = 66;
},
{
glyphname = C;
lastChange = "2024-07-24 17:29:08 +0000";
layers = (
{
layerId = m01;
shapes = (
{
closed = 1;
nodes = (
(400,200,l),
(400,400,l),
(300,400,l),
(300,200,l)
);
},
{
closed = 1;
nodes = (
(600,100,l),
(600,200,l),
(400,200,l),
(400,100,l)
);
},
{
closed = 1;
nodes = (
(1200,0,l),
(1200,100,l),
(600,100,l),
(600,0,l)
);
},
{
closed = 1;
nodes = (
(1300,100,l),
(1300,200,l),
(1200,200,l),
(1200,100,l)
);
},
{
closed = 1;
nodes = (
(1400,200,l),
(1400,300,l),
(1300,300,l),
(1300,200,l)
);
},
{
closed = 1;
nodes = (
(300,400,l),
(300,1400,l),
(200,1400,l),
(200,400,l)
);
},
{
closed = 1;
nodes = (
(300,1400,l),
(400,1400,l),
(400,1600,l),
(300,1600,l)
);
},
{
closed = 1;
nodes = (
(600,1600,l),
(600,1700,l),
(400,1700,l),
(400,1600,l)
);
},
{
closed = 1;
nodes = (
(1200,1700,l),
(1200,1800,l),
(600,1800,l),
(600,1700,l)
);
},
{
closed = 1;
nodes = (
(1300,1600,l),
(1300,1700,l),
(1200,1700,l),
(1200,1600,l)
);
},
{
closed = 1;
nodes = (
(1400,1500,l),
(1400,1600,l),
(1300,1600,l),
(1300,1500,l)
);
}
);
width = 1600;
}
);
unicode = 67;
},
{
glyphname = D;
lastChange = "2024-07-24 17:29:08 +0000";
layers = (
{
layerId = m01;
shapes = (
{
closed = 1;
nodes = (
(900,0,l),
(900,100,l),
(300,100,l),
(300,1700,l),
(900,1700,l),
(900,1800,l),
(200,1800,l),
(200,0,l)
);
},
{
closed = 1;
nodes = (
(1100,1600,l),
(1100,1700,l),
(900,1700,l),
(900,1600,l)
);
},
{
closed = 1;
nodes = (
(1200,1500,l),
(1200,1600,l),
(1100,1600,l),
(1100,1500,l)
);
},
{
closed = 1;
nodes = (
(1300,1300,l),
(1300,1500,l),
(1200,1500,l),
(1200,1300,l)
);
},
{
closed = 1;
nodes = (
(1100,100,l),
(1100,200,l),
(900,200,l),
(900,100,l)
);
},
{
closed = 1;
nodes = (
(1200,200,l),
(1200,300,l),
(1100,300,l),
(1100,200,l)
);
},
{
closed = 1;
nodes = (
(1300,300,l),
(1300,500,l),
(1200,500,l),
(1200,300,l)
);
},
{
closed = 1;
nodes = (
(1400,500,l),
(1400,1300,l),
(1300,1300,l),
(1300,500,l)
);
}
);
width = 1600;
}
);
unicode = 68;
},
{
glyphname = E;
lastChange = "2024-07-24 17:29:08 +0000";
layers = (
{
layerId = m01;
shapes = (
{
closed = 1;
nodes = (
(1200,0,l),
(1200,100,l),
(300,100,l),
(300,900,l),
(1000,900,l),
(1000,1000,l),
(300,1000,l),
(300,1700,l),
(1200,1700,l),
(1200,1800,l),
(200,1800,l),
(200,0,l)
);
}
);
width = 1400;
}
);
unicode = 69;
},
{
glyphname = F;
lastChange = "2024-07-24 17:29:08 +0000";
layers = (
{
layerId = m01;
shapes = (
{
closed = 1;
nodes = (
(300,0,l),
(300,900,l),
(1000,900,l),
(1000,1000,l),
(300,1000,l),
(300,1700,l),
(1200,1700,l),
(1200,1800,l),
(200,1800,l),
(200,0,l)
);
}
);
width = 1400;
}
);
unicode = 70;
},
{
glyphname = G;
lastChange = "2024-07-24 17:29:08 +0000";
layers = (
{
layerId = m01;
shapes = (
{
closed = 1;
nodes = (
(400,200,l),
(400,400,l),
(300,400,l),
(300,200,l)
);
},
{
closed = 1;
nodes = (
(600,100,l),
(600,200,l),
(400,200,l),
(400,100,l)
);
},
{
closed = 1;
nodes = (
(1000,0,l),
(1000,100,l),
(600,100,l),
(600,0,l)
);
},
{
closed = 1;
nodes = (
(1200,100,l),
(1200,200,l),
(1000,200,l),
(1000,100,l)
);
},
{
closed = 1;
nodes = (
(1300,200,l),
(1300,400,l),
(1200,400,l),
(1200,200,l)
);
},
{
closed = 1;
nodes = (
(1400,400,l),
(1400,1000,l),
(800,1000,l),
(800,900,l),
(1300,900,l),
(1300,400,l)
);
},
{
closed = 1;
nodes = (
(300,400,l),
(300,1400,l),
(200,1400,l),
(200,400,l)
);
},
{
closed = 1;
nodes = (
(400,1400,l),
(400,1600,l),
(300,1600,l),
(300,1400,l)
);
},
{
closed = 1;
nodes = (
(600,1600,l),
(600,1700,l),
(400,1700,l),
(400,1600,l)
);
},
{
closed = 1;
nodes = (
(1100,1700,l),
(1100,1800,l),
(600,1800,l),
(600,1700,l)
);
},
{
closed = 1;
nodes = (
(1200,1600,l),
(1200,1700,l),
(1100,1700,l),
(1100,1600,l)
);
},
{
closed = 1;
nodes = (
(1300,1500,l),
(1300,1600,l),
(1200,1600,l),
(1200,1500,l)
);
}
);
width = 1600;
}
);
unicode = 71;
},
{
glyphname = H;
lastChange = "2024-07-24 17:29:08 +0000";
layers = (
{
layerId = m01;
shapes = (
{
closed = 1;
nodes = (
(300,0,l),
(300,900,l),
(1300,900,l),
(1300,0,l),
(1400,0,l),
(1400,1800,l),
(1300,1800,l),
(1300,1000,l),
(300,1000,l),
(300,1800,l),
(200,1800,l),
(200,0,l)
);
}
);
width = 1600;
}
);
unicode = 72;
},
{
glyphname = I;
lastChange = "2024-07-24 17:31:29 +0000";
layers = (
{
layerId = m01;
shapes = (
{
closed = 1;
nodes = (
(500,0,l),
(500,1800,l),
(400,1800,l),
(400,0,l)
);
}
);
width = 1000;
}
);
unicode = 73;
},
{
glyphname = J;
lastChange = "2024-07-24 17:32:36 +0000";
layers = (
{
layerId = m01;
shapes = (
{
closed = 1;
nodes = (
(200,200,l),
(200,300,l),
(100,300,l),
(100,200,l)
);
},
{
closed = 1;
nodes = (
(100,300,l),
(100,600,l),
(0,600,l),
(0,300,l)
);
},
{
closed = 1;
nodes = (
(400,100,l),
(400,200,l),
(200,200,l),
(200,100,l)
);
},
{
closed = 1;
nodes = (
(800,0,l),
(800,100,l),
(400,100,l),
(400,0,l)
);
},
{
closed = 1;
nodes = (
(1000,100,l),
(1000,200,l),
(800,200,l),
(800,100,l)
);
},
{
closed = 1;
nodes = (
(1100,200,l),
(1100,400,l),
(1000,400,l),
(1000,200,l)
);
},
{
closed = 1;
nodes = (
(1200,400,l),
(1200,1800,l),
(1100,1800,l),
(1100,400,l)
);
}
);
width = 1400;
}
);
unicode = 74;
},
{
glyphname = K;
lastChange = "2024-07-24 17:32:55 +0000";
layers = (
{
layerId = m01;
shapes = (
{
closed = 1;
nodes = (
(300,0,l),
(300,700,l),
(400,700,l),
(400,800,l),
(300,800,l),
(300,1800,l),
(200,1800,l),
(200,0,l)
);
},
{
closed = 1;
nodes = (
(500,800,l),
(500,900,l),
(400,900,l),
(400,800,l)
);
},
{
closed = 1;
nodes = (
(600,900,l),
(600,1000,l),
(500,1000,l),
(500,900,l)
);
},
{
closed = 1;
nodes = (
(700,1000,l),
(700,1100,l),
(600,1100,l),
(600,1000,l)
);
},
{
closed = 1;
nodes = (
(800,1100,l),
(800,1200,l),
(700,1200,l),
(700,1100,l)
);
},
{
closed = 1;
nodes = (
(900,1200,l),
(900,1300,l),
(800,1300,l),
(800,1200,l)
);
},
{
closed = 1;
nodes = (
(1000,1300,l),
(1000,1400,l),
(900,1400,l),
(900,1300,l)
);
},
{
closed = 1;
nodes = (
(1100,1400,l),
(1100,1500,l),
(1000,1500,l),
(1000,1400,l)
);
},
{
closed = 1;
nodes = (
(1200,1500,l),
(1200,1600,l),
(1100,1600,l),
(1100,1500,l)
);
},
{
closed = 1;
nodes = (
(1300,1600,l),
(1300,1700,l),
(1200,1700,l),
(1200,1600,l)
);
},
{
closed = 1;
nodes = (
(1400,1700,l),
(1400,1800,l),
(1300,1800,l),
(1300,1700,l)
);
},
{
closed = 1;
nodes = (
(700,800,l),
(700,900,l),
(600,900,l),
(600,800,l)
);
},
{
closed = 1;
nodes = (
(800,700,l),
(800,800,l),
(700,800,l),
(700,700,l)
);
},
{
closed = 1;
nodes = (
(900,600,l),
(900,700,l),
(800,700,l),
(800,600,l)
);
},
{
closed = 1;
nodes = (
(1000,500,l),
(1000,600,l),
(900,600,l),
(900,500,l)
);
},
{
closed = 1;
nodes = (
(1100,400,l),
(1100,500,l),
(1000,500,l),
(1000,400,l)
);
},
{
closed = 1;
nodes = (
(1200,300,l),
(1200,400,l),
(1100,400,l),
(1100,300,l)
);
},
{
closed = 1;
nodes = (
(1300,200,l),
(1300,300,l),
(1200,300,l),
(1200,200,l)
);
},
{
closed = 1;
nodes = (
(1400,100,l),
(1400,200,l),
(1300,200,l),
(1300,100,l)
);
},
{
closed = 1;
nodes = (
(1500,0,l),
(1500,100,l),
(1400,100,l),
(1400,0,l)
);
}
);
width = 1600;
}
);
unicode = 75;
},
{
glyphname = L;
lastChange = "2024-07-24 17:29:08 +0000";
layers = (
{
layerId = m01;
shapes = (
{
closed = 1;
nodes = (
(1200,0,l),
(1200,100,l),
(300,100,l),
(300,1800,l),
(200,1800,l),
(200,0,l)
);
}
);
width = 1400;
}
);
unicode = 76;
},
{
glyphname = M;
lastChange = "2024-07-24 17:33:02 +0000";
layers = (
{
layerId = m01;
shapes = (
{
closed = 1;
nodes = (
(200,0,l),
(200,1600,l),
(300,1600,l),
(300,1700,l),
(200,1700,l),
(200,1800,l),
(100,1800,l),
(100,0,l)
);
},
{
closed = 1;
nodes = (
(400,1500,l),
(400,1600,l),
(300,1600,l),
(300,1500,l)
);
},
{
closed = 1;
nodes = (
(500,1400,l),
(500,1500,l),
(400,1500,l),
(400,1400,l)
);
},
{
closed = 1;
nodes = (
(600,1300,l),
(600,1400,l),
(500,1400,l),
(500,1300,l)
);
},
{
closed = 1;
nodes = (
(800,1100,l),
(800,1200,l),
(700,1200,l),
(700,1100,l)
);
},
{
closed = 1;
nodes = (
(700,1200,l),
(700,1300,l),
(600,1300,l),
(600,1200,l)
);
},
{
closed = 1;
nodes = (
(900,1000,l),
(900,1100,l),
(800,1100,l),
(800,1000,l)
);
},
{
closed = 1;
nodes = (
(1000,1100,l),
(1000,1200,l),
(900,1200,l),
(900,1100,l)
);
},
{
closed = 1;
nodes = (
(1100,1200,l),
(1100,1300,l),
(1000,1300,l),
(1000,1200,l)
);
},
{
closed = 1;
nodes = (
(1200,1300,l),
(1200,1400,l),
(1100,1400,l),
(1100,1300,l)
);
},
{
closed = 1;
nodes = (
(1200,1500,l),
(1200,1400,l),
(1300,1400,l),
(1300,1500,l)
);
},
{
closed = 1;
nodes = (
(1400,1500,l),
(1400,1600,l),
(1300,1600,l),
(1300,1500,l)
);
},
{
closed = 1;
nodes = (
(1500,1600,l),
(1500,0,l),
(1600,0,l),
(1600,1800,l),
(1500,1800,l),
(1500,1700,l),
(1400,1700,l),
(1400,1600,l)
);
}
);
width = 1800;
}
);
unicode = 77;
},
{
glyphname = N;
lastChange = "2024-07-24 17:29:08 +0000";
layers = (
{
layerId = m01;
shapes = (
{
closed = 1;
nodes = (
(300,0,l),
(300,1500,l),
(400,1500,l),
(400,1700,l),
(300,1700,l),
(300,1800,l),
(200,1800,l),
(200,0,l)
);
},
{
closed = 1;
nodes = (
(400,1300,l),
(500,1300,l),
(500,1500,l),
(400,1500,l)
);
},
{
closed = 1;
nodes = (
(600,1200,l),
(600,1300,l),
(500,1300,l),
(500,1200,l)
);
},
{
closed = 1;
nodes = (
(600,1000,l),
(700,1000,l),
(700,1200,l),
(600,1200,l)
);
},
{
closed = 1;
nodes = (
(800,900,l),
(800,1000,l),
(700,1000,l),
(700,900,l)
);
},
{
closed = 1;
nodes = (
(800,700,l),
(900,700,l),
(900,900,l),
(800,900,l)
);
},
{
closed = 1;
nodes = (
(1000,600,l),
(1000,700,l),
(900,700,l),
(900,600,l)
);
},
{
closed = 1;
nodes = (
(1100,400,l),
(1100,600,l),
(1000,600,l),
(1000,400,l)
);
},
{
closed = 1;
nodes = (
(1200,300,l),
(1200,400,l),
(1100,400,l),
(1100,300,l)
);
},
{
closed = 1;
nodes = (
(1200,100,l),
(1300,100,l),
(1300,0,l),
(1400,0,l),
(1400,1800,l),
(1300,1800,l),
(1300,300,l),
(1200,300,l)
);
}
);
width = 1600;
}
);
unicode = 78;
},
{
glyphname = O;
lastChange = "2024-07-24 17:33:29 +0000";
layers = (
{
layerId = m01;
shapes = (
{
closed = 1;
nodes = (
(300,300,l),
(300,500,l),
(200,500,l),
(200,300,l)
);
},
{
closed = 1;
nodes = (
(400,200,l),
(400,300,l),
(300,300,l),
(300,200,l)
);
},
{
closed = 1;
nodes = (
(600,100,l),
(600,200,l),
(400,200,l),
(400,100,l)
);
},
{
closed = 1;
nodes = (
(900,0,l),
(900,100,l),
(600,100,l),
(600,0,l)
);
},
{
closed = 1;
nodes = (
(1100,100,l),
(1100,200,l),
(900,200,l),
(900,100,l)
);
},
{
closed = 1;
nodes = (
(1200,200,l),
(1200,300,l),
(1100,300,l),
(1100,200,l)
);
},
{
closed = 1;
nodes = (
(1300,300,l),
(1300,500,l),
(1200,500,l),
(1200,300,l)
);
},
{
closed = 1;
nodes = (
(1300,1300,l),
(1300,1500,l),
(1200,1500,l),
(1200,1300,l)
);
},
{
closed = 1;
nodes = (
(1200,1500,l),
(1200,1600,l),
(1100,1600,l),
(1100,1500,l)
);
},
{
closed = 1;
nodes = (
(1100,1600,l),
(1100,1700,l),
(900,1700,l),
(900,1600,l)
);
},
{
closed = 1;
nodes = (
(900,1700,l),
(900,1800,l),
(600,1800,l),
(600,1700,l)
);
},
{
closed = 1;
nodes = (
(400,1700,l),
(400,1600,l),
(600,1600,l),
(600,1700,l)
);
},
{
closed = 1;
nodes = (
(300,1600,l),
(300,1500,l),
(400,1500,l),
(400,1600,l)
);
},
{
closed = 1;
nodes = (
(200,1500,l),
(200,1300,l),
(300,1300,l),
(300,1500,l)
);
},
{
closed = 1;
nodes = (
(100,1300,l),
(100,500,l),
(200,500,l),
(200,1300,l)
);
},
{
closed = 1;
nodes = (
(1400,500,l),
(1400,1300,l),
(1300,1300,l),
(1300,500,l)
);
}
);
width = 1600;
}
);
unicode = 79;
},
{
glyphname = P;
lastChange = "2024-07-24 17:33:36 +0000";
layers = (
{
layerId = m01;
shapes = (
{
closed = 1;
nodes = (
(400,0,l),
(400,600,l),
(1000,600,l),
(1000,700,l),
(400,700,l),
(400,1700,l),
(1000,1700,l),
(1000,1800,l),
(300,1800,l),
(300,0,l)
);
},
{
closed = 1;
nodes = (
(1200,1600,l),
(1200,1700,l),
(1000,1700,l),
(1000,1600,l)
);
},
{
closed = 1;
nodes = (
(1200,1400,l),
(1300,1400,l),
(1300,1600,l),
(1200,1600,l)
);
},
{
closed = 1;
nodes = (
(1300,1000,l),
(1400,1000,l),
(1400,1400,l),
(1300,1400,l)
);
},
{
closed = 1;
nodes = (
(1200,1000,l),
(1200,800,l),
(1300,800,l),
(1300,1000,l)
);
},
{
closed = 1;
nodes = (
(1000,800,l),
(1000,700,l),
(1200,700,l),
(1200,800,l)
);
}
);
width = 1600;
}
);
unicode = 80;
},
{
glyphname = Q;
lastChange = "2024-07-24 17:33:40 +0000";
layers = (
{
layerId = m01;
shapes = (
{
closed = 1;
nodes = (
(300,300,l),
(300,500,l),
(200,500,l),
(200,300,l)
);
},
{
closed = 1;
nodes = (
(400,200,l),
(400,300,l),
(300,300,l),
(300,200,l)
);
},
{
closed = 1;
nodes = (
(600,100,l),
(600,200,l),
(400,200,l),
(400,100,l)
);
},
{
closed = 1;
nodes = (
(900,0,l),
(900,100,l),
(600,100,l),
(600,0,l)
);
},
{
closed = 1;
nodes = (
(1100,100,l),
(1100,200,l),
(900,200,l),
(900,100,l)
);
},
{
closed = 1;
nodes = (
(1200,200,l),
(1200,300,l),
(1100,300,l),
(1100,200,l)
);
},
{
closed = 1;
nodes = (
(1300,300,l),
(1300,500,l),
(1200,500,l),
(1200,300,l)
);
},
{
closed = 1;
nodes = (
(1300,1300,l),
(1300,1500,l),
(1200,1500,l),
(1200,1300,l)
);
},
{
closed = 1;
nodes = (
(1200,1500,l),
(1200,1600,l),
(1100,1600,l),
(1100,1500,l)
);
},
{
closed = 1;
nodes = (
(1100,1600,l),
(1100,1700,l),
(900,1700,l),
(900,1600,l)
);
},
{
closed = 1;
nodes = (
(900,1700,l),
(900,1800,l),
(600,1800,l),
(600,1700,l)
);
},
{
closed = 1;
nodes = (
(400,1700,l),
(400,1600,l),
(600,1600,l),
(600,1700,l)
);
},
{
closed = 1;
nodes = (
(300,1600,l),
(300,1500,l),
(400,1500,l),
(400,1600,l)
);
},
{
closed = 1;
nodes = (
(200,1500,l),
(200,1300,l),
(300,1300,l),
(300,1500,l)
);
},
{
closed = 1;
nodes = (
(100,1300,l),
(100,500,l),
(200,500,l),
(200,1300,l)
);
},
{
closed = 1;
nodes = (
(1400,500,l),
(1400,1300,l),
(1300,1300,l),
(1300,500,l)
);
},
{
closed = 1;
nodes = (
(1100,300,l),
(1100,400,l),
(1000,400,l),
(1000,300,l)
);
},
{
closed = 1;
nodes = (
(1000,400,l),
(1000,500,l),
(900,500,l),
(900,400,l)
);
},
{
closed = 1;
nodes = (
(1300,100,l),
(1300,200,l),
(1200,200,l),
(1200,100,l)
);
},
{
closed = 1;
nodes = (
(1400,0,l),
(1400,100,l),
(1300,100,l),
(1300,0,l)
);
}
);
width = 1600;
}
);
unicode = 81;
},
{
glyphname = R;
lastChange = "2024-07-24 17:29:08 +0000";
layers = (
{
layerId = m01;
shapes = (
{
closed = 1;
nodes = (
(300,0,l),
(300,700,l),
(900,700,l),
(900,600,l),
(1000,600,l),
(1000,800,l),
(300,800,l),
(300,1700,l),
(1000,1700,l),
(1000,1800,l),
(200,1800,l),
(200,0,l)
);
},
{
closed = 1;
nodes = (
(1200,1600,l),
(1200,1700,l),
(1000,1700,l),
(1000,1600,l)
);
},
{
closed = 1;
nodes = (
(1200,1400,l),
(1300,1400,l),
(1300,1600,l),
(1200,1600,l)
);
},
{
closed = 1;
nodes = (
(1300,1100,l),
(1400,1100,l),
(1400,1400,l),
(1300,1400,l)
);
},
{
closed = 1;
nodes = (
(1200,1100,l),
(1200,900,l),
(1300,900,l),
(1300,1100,l)
);
},
{
closed = 1;
nodes = (
(1000,900,l),
(1000,800,l),
(1200,800,l),
(1200,900,l)
);
},
{
closed = 1;
nodes = (
(1000,400,l),
(1100,400,l),
(1100,600,l),
(1000,600,l)
);
},
{
closed = 1;
nodes = (
(1100,200,l),
(1200,200,l),
(1200,400,l),
(1100,400,l)
);
},
{
closed = 1;
nodes = (
(1200,0,l),
(1300,0,l),
(1300,200,l),
(1200,200,l)
);
}
);
width = 1600;
}
);
unicode = 82;
},
{
glyphname = S;
lastChange = "2024-07-24 17:29:08 +0000";
layers = (
{
layerId = m01;
shapes = (
{
closed = 1;
nodes = (
(200,200,l),
(300,200,l),
(300,400,l),
(200,400,l)
);
},
{
closed = 1;
nodes = (
(500,100,l),
(500,200,l),
(300,200,l),
(300,100,l)
);
},
{
closed = 1;
nodes = (
(1000,0,l),
(1000,100,l),
(500,100,l),
(500,0,l)
);
},
{
closed = 1;
nodes = (
(1200,100,l),
(1200,200,l),
(1000,200,l),
(1000,100,l)
);
},
{
closed = 1;
nodes = (
(1300,200,l),
(1300,400,l),
(1200,400,l),
(1200,200,l)
);
},
{
closed = 1;
nodes = (
(1400,400,l),
(1400,700,l),
(1300,700,l),
(1300,400,l)
);
},
{
closed = 1;
nodes = (
(1300,700,l),
(1300,900,l),
(1200,900,l),
(1200,700,l)
);
},
{
closed = 1;
nodes = (
(1200,900,l),
(1200,1000,l),
(1000,1000,l),
(1000,900,l)
);
},
{
closed = 1;
nodes = (
(1000,1000,l),
(1000,1100,l),
(500,1100,l),
(500,1000,l)
);
},
{
closed = 1;
nodes = (
(500,1100,l),
(500,1200,l),
(300,1200,l),
(300,1100,l)
);
},
{
closed = 1;
nodes = (
(300,1200,l),
(300,1600,l),
(200,1600,l),
(200,1200,l)
);
},
{
closed = 1;
nodes = (
(400,1600,l),
(400,1700,l),
(300,1700,l),
(300,1600,l)
);
},
{
closed = 1;
nodes = (
(1100,1700,l),
(1100,1800,l),
(400,1800,l),
(400,1700,l)
);
},
{
closed = 1;
nodes = (
(1200,1600,l),
(1200,1700,l),
(1100,1700,l),
(1100,1600,l)
);
},
{
closed = 1;
nodes = (
(1300,1500,l),
(1300,1600,l),
(1200,1600,l),
(1200,1500,l)
);
}
);
width = 1600;
}
);
unicode = 83;
},
{
glyphname = T;
lastChange = "2024-07-24 17:33:46 +0000";
layers = (
{
layerId = m01;
shapes = (
{
closed = 1;
nodes = (
(700,1700,l),
(700,0,l),
(800,0,l),
(800,1700,l),
(1400,1700,l),
(1400,1800,l),
(100,1800,l),
(100,1700,l)
);
}
);
width = 1600;
}
);
unicode = 84;
},
{
glyphname = U;
lastChange = "2024-07-24 17:29:08 +0000";
layers = (
{
layerId = m01;
shapes = (
{
closed = 1;
nodes = (
(200,400,l),
(300,400,l),
(300,1800,l),
(200,1800,l)
);
},
{
closed = 1;
nodes = (
(400,200,l),
(400,400,l),
(300,400,l),
(300,200,l)
);
},
{
closed = 1;
nodes = (
(600,100,l),
(600,200,l),
(400,200,l),
(400,100,l)
);
},
{
closed = 1;
nodes = (
(1000,0,l),
(1000,100,l),
(600,100,l),
(600,0,l)
);
},
{
closed = 1;
nodes = (
(1200,100,l),
(1200,200,l),
(1000,200,l),
(1000,100,l)
);
},
{
closed = 1;
nodes = (
(1300,200,l),
(1300,400,l),
(1200,400,l),
(1200,200,l)
);
},
{
closed = 1;
nodes = (
(1400,400,l),
(1400,1800,l),
(1300,1800,l),
(1300,400,l)
);
}
);
width = 1600;
}
);
unicode = 85;
},
{
glyphname = V;
lastChange = "2024-07-24 17:33:51 +0000";
layers = (
{
layerId = m01;
shapes = (
{
closed = 1;
nodes = (
(300,1600,l),
(400,1600,l),
(400,1800,l),
(300,1800,l)
);
},
{
closed = 1;
nodes = (
(400,1300,l),
(500,1300,l),
(500,1600,l),
(400,1600,l)
);
},
{
closed = 1;
nodes = (
(500,1000,l),
(600,1000,l),
(600,1300,l),
(500,1300,l)
);
},
{
closed = 1;
nodes = (
(600,700,l),
(700,700,l),
(700,1000,l),
(600,1000,l)
);
},
{
closed = 1;
nodes = (
(700,400,l),
(800,400,l),
(800,700,l),
(700,700,l)
);
},
{
closed = 1;
nodes = (
(800,200,l),
(900,200,l),
(900,400,l),
(800,400,l)
);
},
{
closed = 1;
nodes = (
(900,0,l),
(1000,0,l),
(1000,200,l),
(900,200,l)
);
},
{
closed = 1;
nodes = (
(1100,200,l),
(1100,400,l),
(1000,400,l),
(1000,200,l)
);
},
{
closed = 1;
nodes = (
(1200,400,l),
(1200,700,l),
(1100,700,l),
(1100,400,l)
);
},
{
closed = 1;
nodes = (
(1200,700,l),
(1300,700,l),
(1300,1000,l),
(1200,1000,l)
);
},
{
closed = 1;
nodes = (
(1300,1000,l),
(1400,1000,l),
(1400,1300,l),
(1300,1300,l)
);
},
{
closed = 1;
nodes = (
(1500,1300,l),
(1500,1600,l),
(1400,1600,l),
(1400,1300,l)
);
},
{
closed = 1;
nodes = (
(1600,1600,l),
(1600,1800,l),
(1500,1800,l),
(1500,1600,l)
);
}
);
width = 1800;
}
);
unicode = 86;
},
{
glyphname = W;
lastChange = "2024-07-24 17:33:55 +0000";
layers = (
{
layerId = m01;
shapes = (
{
closed = 1;
nodes = (
(200,1500,l),
(300,1500,l),
(300,1800,l),
(200,1800,l)
);
},
{
closed = 1;
nodes = (
(300,1200,l),
(400,1200,l),
(400,1500,l),
(300,1500,l)
);
},
{
closed = 1;
nodes = (
(400,900,l),
(500,900,l),
(500,1200,l),
(400,1200,l)
);
},
{
closed = 1;
nodes = (
(500,600,l),
(600,600,l),
(600,900,l),
(500,900,l)
);
},
{
closed = 1;
nodes = (
(600,300,l),
(700,300,l),
(700,600,l),
(600,600,l)
);
},
{
closed = 1;
nodes = (
(700,0,l),
(800,0,l),
(800,300,l),
(700,300,l)
);
},
{
closed = 1;
nodes = (
(800,300,l),
(900,300,l),
(900,600,l),
(800,600,l)
);
},
{
closed = 1;
nodes = (
(900,600,l),
(1000,600,l),
(1000,900,l),
(900,900,l)
);
},
{
closed = 1;
nodes = (
(1100,900,l),
(1100,1200,l),
(1000,1200,l),
(1000,900,l)
);
},
{
closed = 1;
nodes = (
(1200,1200,l),
(1200,1500,l),
(1100,1500,l),
(1100,1200,l)
);
},
{
closed = 1;
nodes = (
(1200,900,l),
(1300,900,l),
(1300,1200,l),
(1200,1200,l)
);
},
{
closed = 1;
nodes = (
(1300,600,l),
(1400,600,l),
(1400,900,l),
(1300,900,l)
);
},
{
closed = 1;
nodes = (
(1400,300,l),
(1500,300,l),
(1500,600,l),
(1400,600,l)
);
},
{
closed = 1;
nodes = (
(1500,0,l),
(1600,0,l),
(1600,300,l),
(1500,300,l)
);
},
{
closed = 1;
nodes = (
(1700,300,l),
(1700,600,l),
(1600,600,l),
(1600,300,l)
);
},
{
closed = 1;
nodes = (
(1800,600,l),
(1800,900,l),
(1700,900,l),
(1700,600,l)
);
},
{
closed = 1;
nodes = (
(1900,900,l),
(1900,1200,l),
(1800,1200,l),
(1800,900,l)
);
},
{
closed = 1;
nodes = (
(2000,1200,l),
(2000,1500,l),
(1900,1500,l),
(1900,1200,l)
);
},
{
closed = 1;
nodes = (
(2100,1500,l),
(2100,1800,l),
(2000,1800,l),
(2000,1500,l)
);
}
);
width = 2200;
}
);
unicode = 87;
},
{
glyphname = X;
lastChange = "2024-07-24 17:33:58 +0000";
layers = (
{
layerId = m01;
shapes = (
{
closed = 1;
nodes = (
(100,1600,l),
(200,1600,l),
(200,1800,l),
(100,1800,l)
);
},
{
closed = 1;
nodes = (
(200,1400,l),
(300,1400,l),
(300,1600,l),
(200,1600,l)
);
},
{
closed = 1;
nodes = (
(400,1300,l),
(400,1400,l),
(300,1400,l),
(300,1300,l)
);
},
{
closed = 1;
nodes = (
(400,1100,l),
(500,1100,l),
(500,1300,l),
(400,1300,l)
);
},
{
closed = 1;
nodes = (
(600,1000,l),
(600,1100,l),
(500,1100,l),
(500,1000,l)
);
},
{
closed = 1;
nodes = (
(600,800,l),
(700,800,l),
(700,1000,l),
(600,1000,l)
);
},
{
closed = 1;
nodes = (
(500,800,l),
(500,700,l),
(600,700,l),
(600,800,l)
);
},
{
closed = 1;
nodes = (
(800,700,l),
(800,800,l),
(700,800,l),
(700,700,l)
);
},
{
closed = 1;
nodes = (
(800,500,l),
(900,500,l),
(900,700,l),
(800,700,l)
);
},
{
closed = 1;
nodes = (
(1000,400,l),
(1000,500,l),
(900,500,l),
(900,400,l)
);
},
{
closed = 1;
nodes = (
(1000,200,l),
(1100,200,l),
(1100,400,l),
(1000,400,l)
);
},
{
closed = 1;
nodes = (
(1100,0,l),
(1200,0,l),
(1200,200,l),
(1100,200,l)
);
},
{
closed = 1;
nodes = (
(800,1000,l),
(800,1100,l),
(700,1100,l),
(700,1000,l)
);
},
{
closed = 1;
nodes = (
(900,1100,l),
(900,1300,l),
(800,1300,l),
(800,1100,l)
);
},
{
closed = 1;
nodes = (
(1000,1300,l),
(1000,1400,l),
(900,1400,l),
(900,1300,l)
);
},
{
closed = 1;
nodes = (
(1100,1400,l),
(1100,1600,l),
(1000,1600,l),
(1000,1400,l)
);
},
{
closed = 1;
nodes = (
(1200,1600,l),
(1200,1800,l),
(1100,1800,l),
(1100,1600,l)
);
},
{
closed = 1;
nodes = (
(400,700,l),
(400,500,l),
(500,500,l),
(500,700,l)
);
},
{
closed = 1;
nodes = (
(300,500,l),
(300,400,l),
(400,400,l),
(400,500,l)
);
},
{
closed = 1;
nodes = (
(200,400,l),
(200,200,l),
(300,200,l),
(300,400,l)
);
},
{
closed = 1;
nodes = (
(100,200,l),
(100,0,l),
(200,0,l),
(200,200,l)
);
}
);
width = 1400;
}
);
unicode = 88;
},
{
glyphname = Y;
lastChange = "2024-07-24 17:34:02 +0000";
layers = (
{
layerId = m01;
shapes = (
{
closed = 1;
nodes = (
(100,1600,l),
(200,1600,l),
(200,1800,l),
(100,1800,l)
);
},
{
closed = 1;
nodes = (
(200,1400,l),
(300,1400,l),
(300,1600,l),
(200,1600,l)
);
},
{
closed = 1;
nodes = (
(300,1200,l),
(400,1200,l),
(400,1400,l),
(300,1400,l)
);
},
{
closed = 1;
nodes = (
(400,1000,l),
(500,1000,l),
(500,1200,l),
(400,1200,l)
);
},
{
closed = 1;
nodes = (
(500,800,l),
(600,800,l),
(600,1000,l),
(500,1000,l)
);
},
{
closed = 1;
nodes = (
(600,0,l),
(700,0,l),
(700,800,l),
(600,800,l)
);
},
{
closed = 1;
nodes = (
(800,800,l),
(800,1000,l),
(700,1000,l),
(700,800,l)
);
},
{
closed = 1;
nodes = (
(900,1000,l),
(900,1200,l),
(800,1200,l),
(800,1000,l)
);
},
{
closed = 1;
nodes = (
(1000,1200,l),
(1000,1400,l),
(900,1400,l),
(900,1200,l)
);
},
{
closed = 1;
nodes = (
(1100,1400,l),
(1100,1600,l),
(1000,1600,l),
(1000,1400,l)
);
},
{
closed = 1;
nodes = (
(1200,1600,l),
(1200,1800,l),
(1100,1800,l),
(1100,1600,l)
);
}
);
width = 1400;
}
);
unicode = 89;
},
{
glyphname = Z;
lastChange = "2024-07-24 17:29:08 +0000";
layers = (
{
layerId = m01;
shapes = (
{
closed = 1;
nodes = (
(1100,1700,l),
(1100,1600,l),
(1200,1600,l),
(1200,1800,l),
(200,1800,l),
(200,1700,l)
);
},
{
closed = 1;
nodes = (
(1000,1600,l),
(1000,1400,l),
(1100,1400,l),
(1100,1600,l)
);
},
{
closed = 1;
nodes = (
(900,1400,l),
(900,1300,l),
(1000,1300,l),
(1000,1400,l)
);
},
{
closed = 1;
nodes = (
(800,1300,l),
(800,1100,l),
(900,1100,l),
(900,1300,l)
);
},
{
closed = 1;
nodes = (
(700,1100,l),
(700,900,l),
(800,900,l),
(800,1100,l)
);
},
{
closed = 1;
nodes = (
(600,900,l),
(600,700,l),
(700,700,l),
(700,900,l)
);
},
{
closed = 1;
nodes = (
(500,700,l),
(500,600,l),
(600,600,l),
(600,700,l)
);
},
{
closed = 1;
nodes = (
(400,600,l),
(400,400,l),
(500,400,l),
(500,600,l)
);
},
{
closed = 1;
nodes = (
(300,400,l),
(300,200,l),
(400,200,l),
(400,400,l)
);
},
{
closed = 1;
nodes = (
(200,200,l),
(200,0,l),
(1200,0,l),
(1200,100,l),
(300,100,l),
(300,200,l)
);
}
);
width = 1400;
}
);
unicode = 90;
},
{
glyphname = bracketleft;
lastChange = "2024-07-24 17:29:07 +0000";
layers = (
{
layerId = m01;
shapes = (
{
closed = 1;
nodes = (
(600,-200,l),
(600,-100,l),
(300,-100,l),
(300,1900,l),
(600,1900,l),
(600,2000,l),
(200,2000,l),
(200,-200,l)
);
}
);
width = 800;
}
);
unicode = 91;
},
{
glyphname = backslash;
lastChange = "2024-07-24 17:29:08 +0000";
layers = (
{
layerId = m01;
shapes = (
{
closed = 1;
nodes = (
(300,1600,l),
(400,1600,l),
(400,1800,l),
(300,1800,l)
);
},
{
closed = 1;
nodes = (
(400,1400,l),
(500,1400,l),
(500,1600,l),
(400,1600,l)
);
},
{
closed = 1;
nodes = (
(600,1200,l),
(600,1400,l),
(500,1400,l),
(500,1200,l)
);
},
{
closed = 1;
nodes = (
(700,1000,l),
(700,1200,l),
(600,1200,l),
(600,1000,l)
);
},
{
closed = 1;
nodes = (
(700,800,l),
(800,800,l),
(800,1000,l),
(700,1000,l)
);
},
{
closed = 1;
nodes = (
(800,600,l),
(900,600,l),
(900,800,l),
(800,800,l)
);
},
{
closed = 1;
nodes = (
(900,400,l),
(1000,400,l),
(1000,600,l),
(900,600,l)
);
},
{
closed = 1;
nodes = (
(1000,200,l),
(1100,200,l),
(1100,400,l),
(1000,400,l)
);
},
{
closed = 1;
nodes = (
(1100,0,l),
(1200,0,l),
(1200,200,l),
(1100,200,l)
);
},
{
closed = 1;
nodes = (
(300,1800,l),
(300,2000,l),
(200,2000,l),
(200,1800,l)
);
}
);
width = 1400;
}
);
unicode = 92;
},
{
glyphname = bracketright;
lastChange = "2024-07-24 17:29:07 +0000";
layers = (
{
layerId = m01;
shapes = (
{
closed = 1;
nodes = (
(600,-200,l),
(600,2000,l),
(200,2000,l),
(200,1900,l),
(500,1900,l),
(500,-100,l),
(200,-100,l),
(200,-200,l)
);
}
);
width = 800;
}
);
unicode = 93;
},
{
glyphname = asciicircum;
lastChange = "2024-07-24 17:34:11 +0000";
layers = (
{
layerId = m01;
shapes = (
{
closed = 1;
nodes = (
(200,1500,l),
(200,1600,l),
(100,1600,l),
(100,1500,l)
);
},
{
closed = 1;
nodes = (
(300,1600,l),
(300,1700,l),
(200,1700,l),
(200,1600,l)
);
},
{
closed = 1;
nodes = (
(500,1700,l),
(500,1800,l),
(300,1800,l),
(300,1700,l)
);
},
{
closed = 1;
nodes = (
(600,1600,l),
(600,1700,l),
(500,1700,l),
(500,1600,l)
);
},
{
closed = 1;
nodes = (
(700,1500,l),
(700,1600,l),
(600,1600,l),
(600,1500,l)
);
}
);
width = 800;
}
);
unicode = 94;
},
{
glyphname = underscore;
lastChange = "2024-07-24 17:34:15 +0000";
layers = (
{
layerId = m01;
shapes = (
{
closed = 1;
nodes = (
(1600,0,l),
(1600,100,l),
(0,100,l),
(0,0,l)
);
}
);
width = 1600;
}
);
unicode = 95;
},
{
glyphname = grave;
lastChange = "2024-07-24 17:29:08 +0000";
layers = (
{
layerId = m01;
shapes = (
{
closed = 1;
nodes = (
(300,1700,l),
(300,1800,l),
(200,1800,l),
(200,1700,l)
);
},
{
closed = 1;
nodes = (
(400,1600,l),
(400,1700,l),
(300,1700,l),
(300,1600,l)
);
},
{
closed = 1;
nodes = (
(500,1500,l),
(500,1600,l),
(400,1600,l),
(400,1500,l)
);
},
{
closed = 1;
nodes = (
(600,1400,l),
(600,1500,l),
(500,1500,l),
(500,1400,l)
);
}
);
width = 800;
}
);
unicode = 96;
},
{
glyphname = a;
lastChange = "2024-07-24 17:29:08 +0000";
layers = (
{
layerId = m01;
shapes = (
{
closed = 1;
nodes = (
(400,100,l),
(400,200,l),
(300,200,l),
(300,100,l)
);
},
{
closed = 1;
nodes = (
(300,200,l),
(300,500,l),
(200,500,l),
(200,200,l)
);
},
{
closed = 1;
nodes = (
(400,500,l),
(400,600,l),
(300,600,l),
(300,500,l)
);
},
{
closed = 1;
nodes = (
(600,600,l),
(600,700,l),
(400,700,l),
(400,600,l)
);
},
{
closed = 1;
nodes = (
(800,700,l),
(800,800,l),
(600,800,l),
(600,700,l)
);
},
{
closed = 1;
nodes = (
(1000,800,l),
(1000,900,l),
(800,900,l),
(800,800,l)
);
},
{
closed = 1;
nodes = (
(1100,900,l),
(1100,300,l),
(1000,300,l),
(1000,200,l),
(1100,200,l),
(1100,0,l),
(1200,0,l),
(1200,1200,l),
(1100,1200,l),
(1100,1000,l),
(1000,1000,l),
(1000,900,l)
);
},
{
closed = 1;
nodes = (
(800,200,l),
(800,100,l),
(1000,100,l),
(1000,200,l)
);
},
{
closed = 1;
nodes = (
(400,100,l),
(400,0,l),
(800,0,l),
(800,100,l)
);
},
{
closed = 1;
nodes = (
(1100,1200,l),
(1100,1300,l),
(1000,1300,l),
(1000,1200,l)
);
},
{
closed = 1;
nodes = (
(1000,1300,l),
(1000,1400,l),
(500,1400,l),
(500,1300,l)
);
},
{
closed = 1;
nodes = (
(300,1300,l),
(300,1200,l),
(500,1200,l),
(500,1300,l)
);
},
{
closed = 1;
nodes = (
(200,1200,l),
(200,1100,l),
(300,1100,l),
(300,1200,l)
);
}
);
width = 1400;
}
);
unicode = 97;
},
{
glyphname = b;
lastChange = "2024-07-24 17:29:08 +0000";
layers = (
{
layerId = m01;
shapes = (
{
closed = 1;
nodes = (
(300,0,l),
(300,200,l),
(400,200,l),
(400,300,l),
(300,300,l),
(300,1100,l),
(400,1100,l),
(400,1200,l),
(300,1200,l),
(300,1800,l),
(200,1800,l),
(200,0,l)
);
},
{
closed = 1;
nodes = (
(500,1200,l),
(500,1300,l),
(400,1300,l),
(400,1200,l)
);
},
{
closed = 1;
nodes = (
(900,1300,l),
(900,1400,l),
(500,1400,l),
(500,1300,l)
);
},
{
closed = 1;
nodes = (
(1000,1200,l),
(1000,1300,l),
(900,1300,l),
(900,1200,l)
);
},
{
closed = 1;
nodes = (
(1100,1000,l),
(1100,1200,l),
(1000,1200,l),
(1000,1000,l)
);
},
{
closed = 1;
nodes = (
(500,100,l),
(500,200,l),
(400,200,l),
(400,100,l)
);
},
{
closed = 1;
nodes = (
(900,0,l),
(900,100,l),
(500,100,l),
(500,0,l)
);
},
{
closed = 1;
nodes = (
(1000,100,l),
(1000,200,l),
(900,200,l),
(900,100,l)
);
},
{
closed = 1;
nodes = (
(1000,200,l),
(1100,200,l),
(1100,400,l),
(1000,400,l)
);
},
{
closed = 1;
nodes = (
(1200,400,l),
(1200,1000,l),
(1100,1000,l),
(1100,400,l)
);
}
);
width = 1400;
}
);
unicode = 98;
},
{
glyphname = c;
lastChange = "2024-07-24 17:29:08 +0000";
layers = (
{
layerId = m01;
shapes = (
{
closed = 1;
nodes = (
(300,400,l),
(300,1000,l),
(200,1000,l),
(200,400,l)
);
},
{
closed = 1;
nodes = (
(400,1000,l),
(400,1200,l),
(300,1200,l),
(300,1000,l)
);
},
{
closed = 1;
nodes = (
(500,1200,l),
(500,1300,l),
(400,1300,l),
(400,1200,l)
);
},
{
closed = 1;
nodes = (
(1000,1300,l),
(1000,1400,l),
(500,1400,l),
(500,1300,l)
);
},
{
closed = 1;
nodes = (
(1100,1200,l),
(1100,1300,l),
(1000,1300,l),
(1000,1200,l)
);
},
{
closed = 1;
nodes = (
(1200,1100,l),
(1200,1200,l),
(1100,1200,l),
(1100,1100,l)
);
},
{
closed = 1;
nodes = (
(300,200,l),
(400,200,l),
(400,400,l),
(300,400,l)
);
},
{
closed = 1;
nodes = (
(500,100,l),
(500,200,l),
(400,200,l),
(400,100,l)
);
},
{
closed = 1;
nodes = (
(1000,0,l),
(1000,100,l),
(500,100,l),
(500,0,l)
);
},
{
closed = 1;
nodes = (
(1100,100,l),
(1100,200,l),
(1000,200,l),
(1000,100,l)
);
},
{
closed = 1;
nodes = (
(1200,200,l),
(1200,300,l),
(1100,300,l),
(1100,200,l)
);
}
);
width = 1400;
}
);
unicode = 99;
},
{
glyphname = d;
lastChange = "2024-07-24 17:29:08 +0000";
layers = (
{
layerId = m01;
shapes = (
{
closed = 1;
nodes = (
(200,400,l),
(300,400,l),
(300,1000,l),
(200,1000,l)
);
},
{
closed = 1;
nodes = (
(300,1000,l),
(400,1000,l),
(400,1200,l),
(300,1200,l)
);
},
{
closed = 1;
nodes = (
(500,1200,l),
(500,1300,l),
(400,1300,l),
(400,1200,l)
);
},
{
closed = 1;
nodes = (
(900,1300,l),
(900,1400,l),
(500,1400,l),
(500,1300,l)
);
},
{
closed = 1;
nodes = (
(1000,1200,l),
(1000,1300,l),
(900,1300,l),
(900,1200,l)
);
},
{
closed = 1;
nodes = (
(1100,1100,l),
(1100,300,l),
(1000,300,l),
(1000,200,l),
(1100,200,l),
(1100,0,l),
(1200,0,l),
(1200,1800,l),
(1100,1800,l),
(1100,1200,l),
(1000,1200,l),
(1000,1100,l)
);
},
{
closed = 1;
nodes = (
(300,200,l),
(400,200,l),
(400,400,l),
(300,400,l)
);
},
{
closed = 1;
nodes = (
(500,100,l),
(500,200,l),
(400,200,l),
(400,100,l)
);
},
{
closed = 1;
nodes = (
(900,0,l),
(900,100,l),
(500,100,l),
(500,0,l)
);
},
{
closed = 1;
nodes = (
(1000,100,l),
(1000,200,l),
(900,200,l),
(900,100,l)
);
}
);
width = 1400;
}
);
unicode = 100;
},
{
glyphname = e;
lastChange = "2024-07-24 17:29:08 +0000";
layers = (
{
layerId = m01;
shapes = (
{
closed = 1;
nodes = (
(300,400,l),
(300,700,l),
(1200,700,l),
(1200,1000,l),
(1100,1000,l),
(1100,800,l),
(300,800,l),
(300,1000,l),
(200,1000,l),
(200,400,l)
);
},
{
closed = 1;
nodes = (
(400,1000,l),
(400,1200,l),
(300,1200,l),
(300,1000,l)
);
},
{
closed = 1;
nodes = (
(500,1200,l),
(500,1300,l),
(400,1300,l),
(400,1200,l)
);
},
{
closed = 1;
nodes = (
(900,1300,l),
(900,1400,l),
(500,1400,l),
(500,1300,l)
);
},
{
closed = 1;
nodes = (
(1000,1200,l),
(1000,1300,l),
(900,1300,l),
(900,1200,l)
);
},
{
closed = 1;
nodes = (
(1000,1000,l),
(1100,1000,l),
(1100,1200,l),
(1000,1200,l)
);
},
{
closed = 1;
nodes = (
(300,200,l),
(400,200,l),
(400,400,l),
(300,400,l)
);
},
{
closed = 1;
nodes = (
(500,100,l),
(500,200,l),
(400,200,l),
(400,100,l)
);
},
{
closed = 1;
nodes = (
(900,0,l),
(900,100,l),
(500,100,l),
(500,0,l)
);
},
{
closed = 1;
nodes = (
(1000,100,l),
(1000,200,l),
(900,200,l),
(900,100,l)
);
},
{
closed = 1;
nodes = (
(1100,200,l),
(1100,300,l),
(1000,300,l),
(1000,200,l)
);
}
);
width = 1400;
}
);
unicode = 101;
},
{
glyphname = f;
lastChange = "2024-07-24 17:29:08 +0000";
layers = (
{
layerId = m01;
shapes = (
{
closed = 1;
nodes = (
(500,0,l),
(500,1300,l),
(800,1300,l),
(800,1400,l),
(500,1400,l),
(500,1600,l),
(400,1600,l),
(400,1400,l),
(200,1400,l),
(200,1300,l),
(400,1300,l),
(400,0,l)
);
},
{
closed = 1;
nodes = (
(600,1600,l),
(600,1700,l),
(500,1700,l),
(500,1600,l)
);
},
{
closed = 1;
nodes = (
(900,1700,l),
(900,1800,l),
(600,1800,l),
(600,1700,l)
);
},
{
closed = 1;
nodes = (
(1000,1600,l),
(1000,1700,l),
(900,1700,l),
(900,1600,l)
);
}
);
width = 1200;
}
);
unicode = 102;
},
{
glyphname = g;
lastChange = "2024-07-24 17:29:08 +0000";
layers = (
{
layerId = m01;
shapes = (
{
closed = 1;
nodes = (
(300,400,l),
(300,1000,l),
(200,1000,l),
(200,400,l)
);
},
{
closed = 1;
nodes = (
(300,1000,l),
(400,1000,l),
(400,1200,l),
(300,1200,l)
);
},
{
closed = 1;
nodes = (
(500,1200,l),
(500,1300,l),
(400,1300,l),
(400,1200,l)
);
},
{
closed = 1;
nodes = (
(900,1300,l),
(900,1400,l),
(500,1400,l),
(500,1300,l)
);
},
{
closed = 1;
nodes = (
(1000,1200,l),
(1000,1300,l),
(900,1300,l),
(900,1200,l)
);
},
{
closed = 1;
nodes = (
(1100,1100,l),
(1100,300,l),
(1000,300,l),
(1000,200,l),
(1100,200,l),
(1100,-300,l),
(1200,-300,l),
(1200,1400,l),
(1100,1400,l),
(1100,1200,l),
(1000,1200,l),
(1000,1100,l)
);
},
{
closed = 1;
nodes = (
(1000,-300,l),
(1000,-400,l),
(1100,-400,l),
(1100,-300,l)
);
},
{
closed = 1;
nodes = (
(900,200,l),
(900,100,l),
(1000,100,l),
(1000,200,l)
);
},
{
closed = 1;
nodes = (
(500,100,l),
(500,0,l),
(900,0,l),
(900,100,l)
);
},
{
closed = 1;
nodes = (
(500,100,l),
(500,200,l),
(400,200,l),
(400,100,l)
);
},
{
closed = 1;
nodes = (
(400,200,l),
(400,400,l),
(300,400,l),
(300,200,l)
);
},
{
closed = 1;
nodes = (
(900,-400,l),
(900,-500,l),
(1000,-500,l),
(1000,-400,l)
);
},
{
closed = 1;
nodes = (
(500,-500,l),
(500,-600,l),
(900,-600,l),
(900,-500,l)
);
},
{
closed = 1;
nodes = (
(500,-500,l),
(500,-400,l),
(400,-400,l),
(400,-500,l)
);
},
{
closed = 1;
nodes = (
(400,-400,l),
(400,-300,l),
(300,-300,l),
(300,-400,l)
);
}
);
width = 1400;
}
);
unicode = 103;
},
{
glyphname = h;
lastChange = "2024-07-24 17:29:08 +0000";
layers = (
{
layerId = m01;
shapes = (
{
closed = 1;
nodes = (
(300,0,l),
(300,1100,l),
(400,1100,l),
(400,1200,l),
(300,1200,l),
(300,1800,l),
(200,1800,l),
(200,0,l)
);
},
{
closed = 1;
nodes = (
(400,1300,l),
(400,1200,l),
(500,1200,l),
(500,1300,l)
);
},
{
closed = 1;
nodes = (
(900,1300,l),
(900,1400,l),
(500,1400,l),
(500,1300,l)
);
},
{
closed = 1;
nodes = (
(1000,1200,l),
(1000,1300,l),
(900,1300,l),
(900,1200,l)
);
},
{
closed = 1;
nodes = (
(1000,1000,l),
(1100,1000,l),
(1100,1200,l),
(1000,1200,l)
);
},
{
closed = 1;
nodes = (
(1100,0,l),
(1200,0,l),
(1200,1000,l),
(1100,1000,l)
);
}
);
width = 1400;
}
);
unicode = 104;
},
{
glyphname = i;
lastChange = "2024-07-24 17:34:29 +0000";
layers = (
{
layerId = m01;
shapes = (
{
closed = 1;
nodes = (
(600,0,l),
(600,1400,l),
(300,1400,l),
(300,1300,l),
(500,1300,l),
(500,0,l)
);
},
{
closed = 1;
nodes = (
(600,1600,l),
(600,1800,l),
(500,1800,l),
(500,1600,l)
);
}
);
width = 1000;
}
);
unicode = 105;
},
{
glyphname = j;
lastChange = "2024-07-24 17:34:34 +0000";
layers = (
{
layerId = m01;
shapes = (
{
closed = 1;
nodes = (
(700,1600,l),
(800,1600,l),
(800,1800,l),
(700,1800,l)
);
},
{
closed = 1;
nodes = (
(700,1300,l),
(700,-300,l),
(800,-300,l),
(800,1400,l),
(500,1400,l),
(500,1300,l)
);
},
{
closed = 1;
nodes = (
(600,-300,l),
(600,-400,l),
(700,-400,l),
(700,-300,l)
);
},
{
closed = 1;
nodes = (
(300,-400,l),
(300,-500,l),
(600,-500,l),
(600,-400,l)
);
},
{
closed = 1;
nodes = (
(300,-400,l),
(300,-300,l),
(200,-300,l),
(200,-400,l)
);
}
);
width = 1200;
}
);
unicode = 106;
},
{
glyphname = k;
lastChange = "2024-07-24 17:29:08 +0000";
layers = (
{
layerId = m01;
shapes = (
{
closed = 1;
nodes = (
(300,0,l),
(300,700,l),
(500,700,l),
(500,800,l),
(300,800,l),
(300,1800,l),
(200,1800,l),
(200,0,l)
);
},
{
closed = 1;
nodes = (
(600,800,l),
(600,900,l),
(500,900,l),
(500,800,l)
);
},
{
closed = 1;
nodes = (
(700,900,l),
(700,1000,l),
(600,1000,l),
(600,900,l)
);
},
{
closed = 1;
nodes = (
(800,1000,l),
(800,1100,l),
(700,1100,l),
(700,1000,l)
);
},
{
closed = 1;
nodes = (
(900,1100,l),
(900,1200,l),
(800,1200,l),
(800,1100,l)
);
},
{
closed = 1;
nodes = (
(1000,1200,l),
(1000,1300,l),
(900,1300,l),
(900,1200,l)
);
},
{
closed = 1;
nodes = (
(1100,1300,l),
(1100,1400,l),
(1000,1400,l),
(1000,1300,l)
);
},
{
closed = 1;
nodes = (
(600,600,l),
(600,700,l),
(500,700,l),
(500,600,l)
);
},
{
closed = 1;
nodes = (
(700,500,l),
(700,600,l),
(600,600,l),
(600,500,l)
);
},
{
closed = 1;
nodes = (
(800,400,l),
(800,500,l),
(700,500,l),
(700,400,l)
);
},
{
closed = 1;
nodes = (
(900,300,l),
(900,400,l),
(800,400,l),
(800,300,l)
);
},
{
closed = 1;
nodes = (
(1000,200,l),
(1000,300,l),
(900,300,l),
(900,200,l)
);
},
{
closed = 1;
nodes = (
(1100,100,l),
(1100,200,l),
(1000,200,l),
(1000,100,l)
);
},
{
closed = 1;
nodes = (
(1200,0,l),
(1200,100,l),
(1100,100,l),
(1100,0,l)
);
}
);
width = 1400;
}
);
unicode = 107;
},
{
glyphname = l;
lastChange = "2024-07-24 17:34:40 +0000";
layers = (
{
layerId = m01;
shapes = (
{
closed = 1;
nodes = (
(500,1700,l),
(500,0,l),
(600,0,l),
(600,1800,l),
(300,1800,l),
(300,1700,l)
);
}
);
width = 1000;
}
);
unicode = 108;
},
{
glyphname = m;
lastChange = "2024-07-24 17:36:56 +0000";
layers = (
{
layerId = m01;
shapes = (
{
closed = 1;
nodes = (
(300,0,l),
(300,1100,l),
(400,1100,l),
(400,1200,l),
(300,1200,l),
(300,1400,l),
(200,1400,l),
(200,0,l)
);
},
{
closed = 1;
nodes = (
(500,1200,l),
(500,1300,l),
(400,1300,l),
(400,1200,l)
);
},
{
closed = 1;
nodes = (
(800,1300,l),
(800,1400,l),
(500,1400,l),
(500,1300,l)
);
},
{
closed = 1;
nodes = (
(900,1200,l),
(900,1300,l),
(800,1300,l),
(800,1200,l)
);
},
{
closed = 1;
nodes = (
(1000,1100,l),
(1000,1200,l),
(900,1200,l),
(900,1100,l)
);
},
{
closed = 1;
nodes = (
(1000,0,l),
(1100,0,l),
(1100,1100,l),
(1000,1100,l)
);
},
{
closed = 1;
nodes = (
(1200,1100,l),
(1200,1200,l),
(1100,1200,l),
(1100,1100,l)
);
},
{
closed = 1;
nodes = (
(1300,1200,l),
(1300,1300,l),
(1200,1300,l),
(1200,1200,l)
);
},
{
closed = 1;
nodes = (
(1700,1300,l),
(1700,1400,l),
(1300,1400,l),
(1300,1300,l)
);
},
{
closed = 1;
nodes = (
(1800,1200,l),
(1800,1300,l),
(1700,1300,l),
(1700,1200,l)
);
},
{
closed = 1;
nodes = (
(1800,0,l),
(1900,0,l),
(1900,1200,l),
(1800,1200,l)
);
}
);
width = 2200;
}
);
unicode = 109;
},
{
glyphname = n;
lastChange = "2024-07-24 17:29:08 +0000";
layers = (
{
layerId = m01;
shapes = (
{
closed = 1;
nodes = (
(200,0,l),
(300,0,l),
(300,1100,l),
(400,1100,l),
(400,1200,l),
(300,1200,l),
(300,1400,l),
(200,1400,l)
);
},
{
closed = 1;
nodes = (
(500,1200,l),
(500,1300,l),
(400,1300,l),
(400,1200,l)
);
},
{
closed = 1;
nodes = (
(900,1300,l),
(900,1400,l),
(500,1400,l),
(500,1300,l)
);
},
{
closed = 1;
nodes = (
(1000,1200,l),
(1000,1300,l),
(900,1300,l),
(900,1200,l)
);
},
{
closed = 1;
nodes = (
(1000,1000,l),
(1100,1000,l),
(1100,1200,l),
(1000,1200,l)
);
},
{
closed = 1;
nodes = (
(1100,0,l),
(1200,0,l),
(1200,1000,l),
(1100,1000,l)
);
}
);
width = 1400;
}
);
unicode = 110;
},
{
glyphname = o;
lastChange = "2024-07-24 17:29:08 +0000";
layers = (
{
layerId = m01;
shapes = (
{
closed = 1;
nodes = (
(300,400,l),
(300,1000,l),
(200,1000,l),
(200,400,l)
);
},
{
closed = 1;
nodes = (
(300,1000,l),
(400,1000,l),
(400,1200,l),
(300,1200,l)
);
},
{
closed = 1;
nodes = (
(500,1200,l),
(500,1300,l),
(400,1300,l),
(400,1200,l)
);
},
{
closed = 1;
nodes = (
(900,1300,l),
(900,1400,l),
(500,1400,l),
(500,1300,l)
);
},
{
closed = 1;
nodes = (
(1000,1200,l),
(1000,1300,l),
(900,1300,l),
(900,1200,l)
);
},
{
closed = 1;
nodes = (
(1000,1000,l),
(1100,1000,l),
(1100,1200,l),
(1000,1200,l)
);
},
{
closed = 1;
nodes = (
(1100,400,l),
(1200,400,l),
(1200,1000,l),
(1100,1000,l)
);
},
{
closed = 1;
nodes = (
(1000,400,l),
(1000,200,l),
(1100,200,l),
(1100,400,l)
);
},
{
closed = 1;
nodes = (
(900,200,l),
(900,100,l),
(1000,100,l),
(1000,200,l)
);
},
{
closed = 1;
nodes = (
(500,100,l),
(500,0,l),
(900,0,l),
(900,100,l)
);
},
{
closed = 1;
nodes = (
(500,100,l),
(500,200,l),
(400,200,l),
(400,100,l)
);
},
{
closed = 1;
nodes = (
(400,200,l),
(400,400,l),
(300,400,l),
(300,200,l)
);
}
);
width = 1400;
}
);
unicode = 111;
},
{
glyphname = p;
lastChange = "2024-07-24 17:29:08 +0000";
layers = (
{
layerId = m01;
shapes = (
{
closed = 1;
nodes = (
(200,-400,l),
(300,-400,l),
(300,200,l),
(400,200,l),
(400,300,l),
(300,300,l),
(300,1100,l),
(400,1100,l),
(400,1200,l),
(300,1200,l),
(300,1400,l),
(200,1400,l)
);
},
{
closed = 1;
nodes = (
(500,1200,l),
(500,1300,l),
(400,1300,l),
(400,1200,l)
);
},
{
closed = 1;
nodes = (
(900,1300,l),
(900,1400,l),
(500,1400,l),
(500,1300,l)
);
},
{
closed = 1;
nodes = (
(1000,1200,l),
(1000,1300,l),
(900,1300,l),
(900,1200,l)
);
},
{
closed = 1;
nodes = (
(1000,1000,l),
(1100,1000,l),
(1100,1200,l),
(1000,1200,l)
);
},
{
closed = 1;
nodes = (
(1100,400,l),
(1200,400,l),
(1200,1000,l),
(1100,1000,l)
);
},
{
closed = 1;
nodes = (
(1000,400,l),
(1000,200,l),
(1100,200,l),
(1100,400,l)
);
},
{
closed = 1;
nodes = (
(900,200,l),
(900,100,l),
(1000,100,l),
(1000,200,l)
);
},
{
closed = 1;
nodes = (
(500,100,l),
(500,0,l),
(900,0,l),
(900,100,l)
);
},
{
closed = 1;
nodes = (
(500,100,l),
(500,200,l),
(400,200,l),
(400,100,l)
);
}
);
width = 1400;
}
);
unicode = 112;
},
{
glyphname = q;
lastChange = "2024-07-24 17:29:08 +0000";
layers = (
{
layerId = m01;
shapes = (
{
closed = 1;
nodes = (
(1100,1400,l),
(1100,1200,l),
(1000,1200,l),
(1000,1100,l),
(1100,1100,l),
(1100,300,l),
(1000,300,l),
(1000,200,l),
(1100,200,l),
(1100,-400,l),
(1200,-400,l),
(1200,1400,l)
);
},
{
closed = 1;
nodes = (
(1000,1300,l),
(900,1300,l),
(900,1200,l),
(1000,1200,l)
);
},
{
closed = 1;
nodes = (
(900,1400,l),
(500,1400,l),
(500,1300,l),
(900,1300,l)
);
},
{
closed = 1;
nodes = (
(500,1300,l),
(400,1300,l),
(400,1200,l),
(500,1200,l)
);
},
{
closed = 1;
nodes = (
(300,1200,l),
(300,1000,l),
(400,1000,l),
(400,1200,l)
);
},
{
closed = 1;
nodes = (
(200,1000,l),
(200,400,l),
(300,400,l),
(300,1000,l)
);
},
{
closed = 1;
nodes = (
(300,200,l),
(400,200,l),
(400,400,l),
(300,400,l)
);
},
{
closed = 1;
nodes = (
(400,100,l),
(500,100,l),
(500,200,l),
(400,200,l)
);
},
{
closed = 1;
nodes = (
(500,0,l),
(900,0,l),
(900,100,l),
(500,100,l)
);
},
{
closed = 1;
nodes = (
(1000,200,l),
(900,200,l),
(900,100,l),
(1000,100,l)
);
}
);
width = 1400;
}
);
unicode = 113;
},
{
glyphname = r;
lastChange = "2024-07-24 17:37:04 +0000";
layers = (
{
layerId = m01;
shapes = (
{
closed = 1;
nodes = (
(200,0,l),
(300,0,l),
(300,1100,l),
(400,1100,l),
(400,1200,l),
(300,1200,l),
(300,1400,l),
(200,1400,l)
);
},
{
closed = 1;
nodes = (
(500,1200,l),
(500,1300,l),
(400,1300,l),
(400,1200,l)
);
},
{
closed = 1;
nodes = (
(900,1300,l),
(900,1400,l),
(500,1400,l),
(500,1300,l)
);
},
{
closed = 1;
nodes = (
(1000,1200,l),
(1000,1300,l),
(900,1300,l),
(900,1200,l)
);
},
{
closed = 1;
nodes = (
(1100,1100,l),
(1100,1200,l),
(1000,1200,l),
(1000,1100,l)
);
}
);
width = 1200;
}
);
unicode = 114;
},
{
glyphname = s;
lastChange = "2024-07-24 17:29:08 +0000";
layers = (
{
layerId = m01;
shapes = (
{
closed = 1;
nodes = (
(300,200,l),
(300,300,l),
(200,300,l),
(200,200,l)
);
},
{
closed = 1;
nodes = (
(1000,0,l),
(1000,100,l),
(400,100,l),
(400,0,l)
);
},
{
closed = 1;
nodes = (
(400,100,l),
(400,200,l),
(300,200,l),
(300,100,l)
);
},
{
closed = 1;
nodes = (
(1100,100,l),
(1100,200,l),
(1000,200,l),
(1000,100,l)
);
},
{
closed = 1;
nodes = (
(1200,200,l),
(1200,600,l),
(1100,600,l),
(1100,200,l)
);
},
{
closed = 1;
nodes = (
(1100,600,l),
(1100,700,l),
(1000,700,l),
(1000,600,l)
);
},
{
closed = 1;
nodes = (
(1000,700,l),
(1000,800,l),
(400,800,l),
(400,700,l)
);
},
{
closed = 1;
nodes = (
(400,800,l),
(400,900,l),
(300,900,l),
(300,800,l)
);
},
{
closed = 1;
nodes = (
(300,900,l),
(300,1200,l),
(200,1200,l),
(200,900,l)
);
},
{
closed = 1;
nodes = (
(400,1200,l),
(400,1300,l),
(300,1300,l),
(300,1200,l)
);
},
{
closed = 1;
nodes = (
(1000,1300,l),
(1000,1400,l),
(400,1400,l),
(400,1300,l)
);
},
{
closed = 1;
nodes = (
(1100,1200,l),
(1100,1300,l),
(1000,1300,l),
(1000,1200,l)
);
},
{
closed = 1;
nodes = (
(1200,1100,l),
(1200,1200,l),
(1100,1200,l),
(1100,1100,l)
);
}
);
width = 1400;
}
);
unicode = 115;
},
{
glyphname = t;
lastChange = "2024-07-24 17:29:08 +0000";
layers = (
{
layerId = m01;
shapes = (
{
closed = 1;
nodes = (
(400,1300,l),
(400,200,l),
(500,200,l),
(500,1300,l),
(900,1300,l),
(900,1400,l),
(500,1400,l),
(500,1800,l),
(400,1800,l),
(400,1400,l),
(200,1400,l),
(200,1300,l)
);
},
{
closed = 1;
nodes = (
(600,100,l),
(600,200,l),
(500,200,l),
(500,100,l)
);
},
{
closed = 1;
nodes = (
(900,0,l),
(900,100,l),
(600,100,l),
(600,0,l)
);
},
{
closed = 1;
nodes = (
(1000,100,l),
(1000,200,l),
(900,200,l),
(900,100,l)
);
}
);
width = 1200;
}
);
unicode = 116;
},
{
glyphname = u;
lastChange = "2024-07-24 17:29:08 +0000";
layers = (
{
layerId = m01;
shapes = (
{
closed = 1;
nodes = (
(200,400,l),
(300,400,l),
(300,1400,l),
(200,1400,l)
);
},
{
closed = 1;
nodes = (
(300,200,l),
(400,200,l),
(400,400,l),
(300,400,l)
);
},
{
closed = 1;
nodes = (
(500,100,l),
(500,200,l),
(400,200,l),
(400,100,l)
);
},
{
closed = 1;
nodes = (
(900,0,l),
(900,100,l),
(500,100,l),
(500,0,l)
);
},
{
closed = 1;
nodes = (
(1000,100,l),
(1000,200,l),
(900,200,l),
(900,100,l)
);
},
{
closed = 1;
nodes = (
(1100,200,l),
(1100,0,l),
(1200,0,l),
(1200,1400,l),
(1100,1400,l),
(1100,300,l),
(1000,300,l),
(1000,200,l)
);
}
);
width = 1400;
}
);
unicode = 117;
},
{
glyphname = v;
lastChange = "2024-07-24 17:37:13 +0000";
layers = (
{
layerId = m01;
shapes = (
{
closed = 1;
nodes = (
(100,1200,l),
(200,1200,l),
(200,1400,l),
(100,1400,l)
);
},
{
closed = 1;
nodes = (
(200,900,l),
(300,900,l),
(300,1200,l),
(200,1200,l)
);
},
{
closed = 1;
nodes = (
(300,700,l),
(400,700,l),
(400,900,l),
(300,900,l)
);
},
{
closed = 1;
nodes = (
(400,400,l),
(500,400,l),
(500,700,l),
(400,700,l)
);
},
{
closed = 1;
nodes = (
(500,200,l),
(600,200,l),
(600,400,l),
(500,400,l)
);
},
{
closed = 1;
nodes = (
(600,0,l),
(700,0,l),
(700,200,l),
(600,200,l)
);
},
{
closed = 1;
nodes = (
(700,200,l),
(800,200,l),
(800,400,l),
(700,400,l)
);
},
{
closed = 1;
nodes = (
(900,400,l),
(900,700,l),
(800,700,l),
(800,400,l)
);
},
{
closed = 1;
nodes = (
(900,700,l),
(1000,700,l),
(1000,900,l),
(900,900,l)
);
},
{
closed = 1;
nodes = (
(1000,900,l),
(1100,900,l),
(1100,1200,l),
(1000,1200,l)
);
},
{
closed = 1;
nodes = (
(1200,1200,l),
(1200,1400,l),
(1100,1400,l),
(1100,1200,l)
);
}
);
width = 1400;
}
);
unicode = 118;
},
{
glyphname = w;
lastChange = "2024-07-24 17:37:19 +0000";
layers = (
{
layerId = m01;
shapes = (
{
closed = 1;
nodes = (
(200,1100,l),
(300,1100,l),
(300,1400,l),
(200,1400,l)
);
},
{
closed = 1;
nodes = (
(300,800,l),
(400,800,l),
(400,1100,l),
(300,1100,l)
);
},
{
closed = 1;
nodes = (
(400,500,l),
(500,500,l),
(500,800,l),
(400,800,l)
);
},
{
closed = 1;
nodes = (
(500,200,l),
(600,200,l),
(600,500,l),
(500,500,l)
);
},
{
closed = 1;
nodes = (
(700,0,l),
(700,200,l),
(600,200,l),
(600,0,l)
);
},
{
closed = 1;
nodes = (
(800,200,l),
(800,500,l),
(700,500,l),
(700,200,l)
);
},
{
closed = 1;
nodes = (
(800,500,l),
(900,500,l),
(900,800,l),
(800,800,l)
);
},
{
closed = 1;
nodes = (
(900,800,l),
(1000,800,l),
(1000,1100,l),
(900,1100,l)
);
},
{
closed = 1;
nodes = (
(1100,1100,l),
(1100,1400,l),
(1000,1400,l),
(1000,1100,l)
);
},
{
closed = 1;
nodes = (
(1100,800,l),
(1200,800,l),
(1200,1100,l),
(1100,1100,l)
);
},
{
closed = 1;
nodes = (
(1200,500,l),
(1300,500,l),
(1300,800,l),
(1200,800,l)
);
},
{
closed = 1;
nodes = (
(1300,200,l),
(1400,200,l),
(1400,500,l),
(1300,500,l)
);
},
{
closed = 1;
nodes = (
(1400,0,l),
(1500,0,l),
(1500,200,l),
(1400,200,l)
);
},
{
closed = 1;
nodes = (
(1600,200,l),
(1600,500,l),
(1500,500,l),
(1500,200,l)
);
},
{
closed = 1;
nodes = (
(1700,500,l),
(1700,800,l),
(1600,800,l),
(1600,500,l)
);
},
{
closed = 1;
nodes = (
(1800,800,l),
(1800,1100,l),
(1700,1100,l),
(1700,800,l)
);
},
{
closed = 1;
nodes = (
(1900,1100,l),
(1900,1400,l),
(1800,1400,l),
(1800,1100,l)
);
}
);
width = 2200;
}
);
unicode = 119;
},
{
glyphname = x;
lastChange = "2024-07-24 17:29:08 +0000";
layers = (
{
layerId = m01;
shapes = (
{
closed = 1;
nodes = (
(200,1200,l),
(300,1200,l),
(300,1400,l),
(200,1400,l)
);
},
{
closed = 1;
nodes = (
(400,1100,l),
(400,1200,l),
(300,1200,l),
(300,1100,l)
);
},
{
closed = 1;
nodes = (
(400,900,l),
(500,900,l),
(500,1100,l),
(400,1100,l)
);
},
{
closed = 1;
nodes = (
(600,800,l),
(600,900,l),
(500,900,l),
(500,800,l)
);
},
{
closed = 1;
nodes = (
(600,600,l),
(800,600,l),
(800,800,l),
(600,800,l)
);
},
{
closed = 1;
nodes = (
(500,600,l),
(500,500,l),
(600,500,l),
(600,600,l)
);
},
{
closed = 1;
nodes = (
(900,800,l),
(900,900,l),
(800,900,l),
(800,800,l)
);
},
{
closed = 1;
nodes = (
(1000,900,l),
(1000,1100,l),
(900,1100,l),
(900,900,l)
);
},
{
closed = 1;
nodes = (
(1100,1100,l),
(1100,1200,l),
(1000,1200,l),
(1000,1100,l)
);
},
{
closed = 1;
nodes = (
(1200,1200,l),
(1200,1400,l),
(1100,1400,l),
(1100,1200,l)
);
},
{
closed = 1;
nodes = (
(900,500,l),
(900,600,l),
(800,600,l),
(800,500,l)
);
},
{
closed = 1;
nodes = (
(900,300,l),
(1000,300,l),
(1000,500,l),
(900,500,l)
);
},
{
closed = 1;
nodes = (
(1100,200,l),
(1100,300,l),
(1000,300,l),
(1000,200,l)
);
},
{
closed = 1;
nodes = (
(1100,0,l),
(1200,0,l),
(1200,200,l),
(1100,200,l)
);
},
{
closed = 1;
nodes = (
(400,500,l),
(400,300,l),
(500,300,l),
(500,500,l)
);
},
{
closed = 1;
nodes = (
(300,300,l),
(300,200,l),
(400,200,l),
(400,300,l)
);
},
{
closed = 1;
nodes = (
(200,200,l),
(200,0,l),
(300,0,l),
(300,200,l)
);
}
);
width = 1400;
}
);
unicode = 120;
},
{
glyphname = y;
lastChange = "2024-07-24 17:37:24 +0000";
layers = (
{
layerId = m01;
shapes = (
{
closed = 1;
nodes = (
(100,1200,l),
(200,1200,l),
(200,1400,l),
(100,1400,l)
);
},
{
closed = 1;
nodes = (
(200,900,l),
(300,900,l),
(300,1200,l),
(200,1200,l)
);
},
{
closed = 1;
nodes = (
(300,700,l),
(400,700,l),
(400,900,l),
(300,900,l)
);
},
{
closed = 1;
nodes = (
(400,400,l),
(500,400,l),
(500,700,l),
(400,700,l)
);
},
{
closed = 1;
nodes = (
(500,200,l),
(600,200,l),
(600,400,l),
(500,400,l)
);
},
{
closed = 1;
nodes = (
(600,0,l),
(700,0,l),
(700,200,l),
(600,200,l)
);
},
{
closed = 1;
nodes = (
(500,0,l),
(500,-200,l),
(600,-200,l),
(600,0,l)
);
},
{
closed = 1;
nodes = (
(800,200,l),
(800,400,l),
(700,400,l),
(700,200,l)
);
},
{
closed = 1;
nodes = (
(900,400,l),
(900,700,l),
(800,700,l),
(800,400,l)
);
},
{
closed = 1;
nodes = (
(1000,700,l),
(1000,900,l),
(900,900,l),
(900,700,l)
);
},
{
closed = 1;
nodes = (
(1100,900,l),
(1100,1200,l),
(1000,1200,l),
(1000,900,l)
);
},
{
closed = 1;
nodes = (
(1200,1200,l),
(1200,1400,l),
(1100,1400,l),
(1100,1200,l)
);
},
{
closed = 1;
nodes = (
(400,-200,l),
(400,-400,l),
(500,-400,l),
(500,-200,l)
);
},
{
closed = 1;
nodes = (
(300,-400,l),
(300,-600,l),
(400,-600,l),
(400,-400,l)
);
}
);
width = 1400;
}
);
unicode = 121;
},
{
glyphname = z;
lastChange = "2024-07-24 17:29:08 +0000";
layers = (
{
layerId = m01;
shapes = (
{
closed = 1;
nodes = (
(1100,1300,l),
(1100,1200,l),
(1200,1200,l),
(1200,1400,l),
(200,1400,l),
(200,1300,l)
);
},
{
closed = 1;
nodes = (
(1000,1200,l),
(1000,1100,l),
(1100,1100,l),
(1100,1200,l)
);
},
{
closed = 1;
nodes = (
(900,1100,l),
(900,1000,l),
(1000,1000,l),
(1000,1100,l)
);
},
{
closed = 1;
nodes = (
(800,1000,l),
(800,800,l),
(900,800,l),
(900,1000,l)
);
},
{
closed = 1;
nodes = (
(700,800,l),
(700,700,l),
(800,700,l),
(800,800,l)
);
},
{
closed = 1;
nodes = (
(600,700,l),
(600,600,l),
(700,600,l),
(700,700,l)
);
},
{
closed = 1;
nodes = (
(500,600,l),
(500,400,l),
(600,400,l),
(600,600,l)
);
},
{
closed = 1;
nodes = (
(400,400,l),
(400,300,l),
(500,300,l),
(500,400,l)
);
},
{
closed = 1;
nodes = (
(300,300,l),
(300,200,l),
(400,200,l),
(400,300,l)
);
},
{
closed = 1;
nodes = (
(200,200,l),
(200,0,l),
(1200,0,l),
(1200,100,l),
(300,100,l),
(300,200,l)
);
}
);
width = 1400;
}
);
unicode = 122;
},
{
glyphname = braceleft;
lastChange = "2024-07-24 17:37:30 +0000";
layers = (
{
layerId = m01;
shapes = (
{
closed = 1;
nodes = (
(600,-100,l),
(600,0,l),
(500,0,l),
(500,-100,l)
);
},
{
closed = 1;
nodes = (
(800,-200,l),
(800,-100,l),
(600,-100,l),
(600,-200,l)
);
},
{
closed = 1;
nodes = (
(500,0,l),
(500,900,l),
(400,900,l),
(400,0,l)
);
},
{
closed = 1;
nodes = (
(400,900,l),
(400,1000,l),
(300,1000,l),
(300,900,l)
);
},
{
closed = 1;
nodes = (
(500,1000,l),
(500,1800,l),
(400,1800,l),
(400,1000,l)
);
},
{
closed = 1;
nodes = (
(600,1800,l),
(600,1900,l),
(500,1900,l),
(500,1800,l)
);
},
{
closed = 1;
nodes = (
(800,1900,l),
(800,2000,l),
(600,2000,l),
(600,1900,l)
);
}
);
width = 1000;
}
);
unicode = 123;
},
{
glyphname = bar;
lastChange = "2024-07-24 17:37:33 +0000";
layers = (
{
layerId = m01;
shapes = (
{
closed = 1;
nodes = (
(200,-200,l),
(300,-200,l),
(300,2000,l),
(200,2000,l)
);
}
);
width = 600;
}
);
unicode = 124;
},
{
glyphname = braceright;
lastChange = "2024-07-24 17:37:37 +0000";
layers = (
{
layerId = m01;
shapes = (
{
closed = 1;
nodes = (
(400,1900,l),
(400,2000,l),
(200,2000,l),
(200,1900,l)
);
},
{
closed = 1;
nodes = (
(500,1800,l),
(500,1900,l),
(400,1900,l),
(400,1800,l)
);
},
{
closed = 1;
nodes = (
(400,-200,l),
(400,-100,l),
(200,-100,l),
(200,-200,l)
);
},
{
closed = 1;
nodes = (
(500,-100,l),
(500,0,l),
(400,0,l),
(400,-100,l)
);
},
{
closed = 1;
nodes = (
(600,0,l),
(600,900,l),
(500,900,l),
(500,0,l)
);
},
{
closed = 1;
nodes = (
(700,900,l),
(700,1000,l),
(600,1000,l),
(600,900,l)
);
},
{
closed = 1;
nodes = (
(600,1000,l),
(600,1800,l),
(500,1800,l),
(500,1000,l)
);
}
);
width = 1000;
}
);
unicode = 125;
},
{
glyphname = asciitilde;
lastChange = "2024-07-24 17:29:08 +0000";
layers = (
{
layerId = m01;
shapes = (
{
closed = 1;
nodes = (
(300,1500,l),
(300,1600,l),
(200,1600,l),
(200,1500,l)
);
},
{
closed = 1;
nodes = (
(400,1600,l),
(400,1700,l),
(300,1700,l),
(300,1600,l)
);
},
{
closed = 1;
nodes = (
(700,1700,l),
(700,1800,l),
(400,1800,l),
(400,1700,l)
);
},
{
closed = 1;
nodes = (
(800,1600,l),
(800,1700,l),
(700,1700,l),
(700,1600,l)
);
},
{
closed = 1;
nodes = (
(1200,1500,l),
(1200,1600,l),
(800,1600,l),
(800,1500,l)
);
},
{
closed = 1;
nodes = (
(1300,1600,l),
(1300,1700,l),
(1200,1700,l),
(1200,1600,l)
);
},
{
closed = 1;
nodes = (
(1400,1700,l),
(1400,1800,l),
(1300,1800,l),
(1300,1700,l)
);
}
);
width = 1600;
}
);
unicode = 126;
},
{
glyphname = Adieresis;
lastChange = "2024-07-24 17:39:51 +0000";
layers = (
{
layerId = m01;
shapes = (
{
closed = 1;
nodes = (
(300,0,l),
(300,200,l),
(200,200,l),
(200,0,l)
);
},
{
closed = 1;
nodes = (
(400,200,l),
(400,400,l),
(300,400,l),
(300,200,l)
);
},
{
closed = 1;
nodes = (
(500,400,l),
(500,600,l),
(1400,600,l),
(1400,400,l),
(1500,400,l),
(1500,700,l),
(1400,700,l),
(1400,900,l),
(1300,900,l),
(1300,700,l),
(600,700,l),
(600,900,l),
(500,900,l),
(500,700,l),
(400,700,l),
(400,400,l)
);
},
{
closed = 1;
nodes = (
(700,900,l),
(700,1100,l),
(600,1100,l),
(600,900,l)
);
},
{
closed = 1;
nodes = (
(800,1100,l),
(800,1300,l),
(700,1300,l),
(700,1100,l)
);
},
{
closed = 1;
nodes = (
(800,1300,l),
(900,1300,l),
(900,1500,l),
(800,1500,l)
);
},
{
closed = 1;
nodes = (
(900,1500,l),
(1000,1500,l),
(1000,1800,l),
(900,1800,l)
);
},
{
closed = 1;
nodes = (
(1000,1300,l),
(1100,1300,l),
(1100,1500,l),
(1000,1500,l)
);
},
{
closed = 1;
nodes = (
(1100,1100,l),
(1200,1100,l),
(1200,1300,l),
(1100,1300,l)
);
},
{
closed = 1;
nodes = (
(1200,900,l),
(1300,900,l),
(1300,1100,l),
(1200,1100,l)
);
},
{
closed = 1;
nodes = (
(1500,200,l),
(1600,200,l),
(1600,400,l),
(1500,400,l)
);
},
{
closed = 1;
nodes = (
(1600,0,l),
(1700,0,l),
(1700,200,l),
(1600,200,l)
);
},
{
closed = 1;
nodes = (
(1200,2000,l),
(1200,2200,l),
(1100,2200,l),
(1100,2000,l)
);
},
{
closed = 1;
nodes = (
(800,2000,l),
(800,2200,l),
(700,2200,l),
(700,2000,l)
);
}
);
width = 1800;
}
);
unicode = 196;
},
{
glyphname = Aring;
lastChange = "2024-07-24 17:39:51 +0000";
layers = (
{
layerId = m01;
shapes = (
{
closed = 1;
nodes = (
(300,0,l),
(300,200,l),
(200,200,l),
(200,0,l)
);
},
{
closed = 1;
nodes = (
(400,200,l),
(400,400,l),
(300,400,l),
(300,200,l)
);
},
{
closed = 1;
nodes = (
(500,400,l),
(500,600,l),
(1400,600,l),
(1400,400,l),
(1500,400,l),
(1500,700,l),
(1400,700,l),
(1400,900,l),
(1300,900,l),
(1300,700,l),
(600,700,l),
(600,900,l),
(500,900,l),
(500,700,l),
(400,700,l),
(400,400,l)
);
},
{
closed = 1;
nodes = (
(700,900,l),
(700,1100,l),
(600,1100,l),
(600,900,l)
);
},
{
closed = 1;
nodes = (
(800,1100,l),
(800,1300,l),
(700,1300,l),
(700,1100,l)
);
},
{
closed = 1;
nodes = (
(800,1300,l),
(900,1300,l),
(900,1500,l),
(800,1500,l)
);
},
{
closed = 1;
nodes = (
(900,1500,l),
(1000,1500,l),
(1000,1800,l),
(1100,1800,l),
(1100,1900,l),
(800,1900,l),
(800,1800,l),
(900,1800,l)
);
},
{
closed = 1;
nodes = (
(1000,1300,l),
(1100,1300,l),
(1100,1500,l),
(1000,1500,l)
);
},
{
closed = 1;
nodes = (
(1100,1100,l),
(1200,1100,l),
(1200,1300,l),
(1100,1300,l)
);
},
{
closed = 1;
nodes = (
(1200,900,l),
(1300,900,l),
(1300,1100,l),
(1200,1100,l)
);
},
{
closed = 1;
nodes = (
(1500,200,l),
(1600,200,l),
(1600,400,l),
(1500,400,l)
);
},
{
closed = 1;
nodes = (
(1600,0,l),
(1700,0,l),
(1700,200,l),
(1600,200,l)
);
},
{
closed = 1;
nodes = (
(1200,1900,l),
(1200,2100,l),
(1100,2100,l),
(1100,1900,l)
);
},
{
closed = 1;
nodes = (
(1100,2100,l),
(1100,2200,l),
(800,2200,l),
(800,2100,l)
);
},
{
closed = 1;
nodes = (
(700,2100,l),
(700,1900,l),
(800,1900,l),
(800,2100,l)
);
}
);
width = 1800;
}
);
unicode = 197;
},
{
glyphname = Ccedilla;
lastChange = "2024-07-24 17:29:08 +0000";
layers = (
{
layerId = m01;
shapes = (
{
closed = 1;
nodes = (
(400,200,l),
(400,400,l),
(300,400,l),
(300,200,l)
);
},
{
closed = 1;
nodes = (
(600,100,l),
(600,200,l),
(400,200,l),
(400,100,l)
);
},
{
closed = 1;
nodes = (
(800,0,l),
(800,-200,l),
(900,-200,l),
(900,-400,l),
(1000,-400,l),
(1000,-100,l),
(900,-100,l),
(900,0,l),
(1200,0,l),
(1200,100,l),
(600,100,l),
(600,0,l)
);
},
{
closed = 1;
nodes = (
(1300,100,l),
(1300,200,l),
(1200,200,l),
(1200,100,l)
);
},
{
closed = 1;
nodes = (
(1400,200,l),
(1400,300,l),
(1300,300,l),
(1300,200,l)
);
},
{
closed = 1;
nodes = (
(300,400,l),
(300,1400,l),
(200,1400,l),
(200,400,l)
);
},
{
closed = 1;
nodes = (
(300,1400,l),
(400,1400,l),
(400,1600,l),
(300,1600,l)
);
},
{
closed = 1;
nodes = (
(600,1600,l),
(600,1700,l),
(400,1700,l),
(400,1600,l)
);
},
{
closed = 1;
nodes = (
(1200,1700,l),
(1200,1800,l),
(600,1800,l),
(600,1700,l)
);
},
{
closed = 1;
nodes = (
(1300,1600,l),
(1300,1700,l),
(1200,1700,l),
(1200,1600,l)
);
},
{
closed = 1;
nodes = (
(1400,1500,l),
(1400,1600,l),
(1300,1600,l),
(1300,1500,l)
);
},
{
closed = 1;
nodes = (
(800,-400,l),
(800,-500,l),
(900,-500,l),
(900,-400,l)
);
}
);
width = 1600;
}
);
unicode = 199;
},
{
glyphname = Eacute;
lastChange = "2024-07-24 17:29:08 +0000";
layers = (
{
layerId = m01;
shapes = (
{
closed = 1;
nodes = (
(1200,0,l),
(1200,100,l),
(300,100,l),
(300,900,l),
(1000,900,l),
(1000,1000,l),
(300,1000,l),
(300,1700,l),
(1200,1700,l),
(1200,1800,l),
(200,1800,l),
(200,0,l)
);
},
{
closed = 1;
nodes = (
(700,1900,l),
(700,2000,l),
(600,2000,l),
(600,1900,l)
);
},
{
closed = 1;
nodes = (
(800,2000,l),
(800,2100,l),
(700,2100,l),
(700,2000,l)
);
},
{
closed = 1;
nodes = (
(900,2100,l),
(900,2200,l),
(800,2200,l),
(800,2100,l)
);
}
);
width = 1400;
}
);
unicode = 201;
},
{
glyphname = Ntilde;
lastChange = "2024-07-24 17:29:08 +0000";
layers = (
{
layerId = m01;
shapes = (
{
closed = 1;
nodes = (
(300,0,l),
(300,1500,l),
(400,1500,l),
(400,1700,l),
(300,1700,l),
(300,1800,l),
(200,1800,l),
(200,0,l)
);
},
{
closed = 1;
nodes = (
(400,1300,l),
(500,1300,l),
(500,1500,l),
(400,1500,l)
);
},
{
closed = 1;
nodes = (
(600,1200,l),
(600,1300,l),
(500,1300,l),
(500,1200,l)
);
},
{
closed = 1;
nodes = (
(600,1000,l),
(700,1000,l),
(700,1200,l),
(600,1200,l)
);
},
{
closed = 1;
nodes = (
(800,900,l),
(800,1000,l),
(700,1000,l),
(700,900,l)
);
},
{
closed = 1;
nodes = (
(800,700,l),
(900,700,l),
(900,900,l),
(800,900,l)
);
},
{
closed = 1;
nodes = (
(1000,600,l),
(1000,700,l),
(900,700,l),
(900,600,l)
);
},
{
closed = 1;
nodes = (
(1100,400,l),
(1100,600,l),
(1000,600,l),
(1000,400,l)
);
},
{
closed = 1;
nodes = (
(1200,300,l),
(1200,400,l),
(1100,400,l),
(1100,300,l)
);
},
{
closed = 1;
nodes = (
(1200,100,l),
(1300,100,l),
(1300,0,l),
(1400,0,l),
(1400,1800,l),
(1300,1800,l),
(1300,300,l),
(1200,300,l)
);
},
{
closed = 1;
nodes = (
(400,2000,l),
(400,2100,l),
(300,2100,l),
(300,2000,l)
);
},
{
closed = 1;
nodes = (
(700,2100,l),
(700,2200,l),
(400,2200,l),
(400,2100,l)
);
},
{
closed = 1;
nodes = (
(1000,2000,l),
(1000,2100,l),
(700,2100,l),
(700,2000,l)
);
},
{
closed = 1;
nodes = (
(1100,2100,l),
(1100,2200,l),
(1000,2200,l),
(1000,2100,l)
);
}
);
width = 1600;
}
);
unicode = 209;
},
{
glyphname = Odieresis;
lastChange = "2024-07-24 17:40:06 +0000";
layers = (
{
layerId = m01;
shapes = (
{
closed = 1;
nodes = (
(300,300,l),
(300,500,l),
(200,500,l),
(200,300,l)
);
},
{
closed = 1;
nodes = (
(400,200,l),
(400,300,l),
(300,300,l),
(300,200,l)
);
},
{
closed = 1;
nodes = (
(600,100,l),
(600,200,l),
(400,200,l),
(400,100,l)
);
},
{
closed = 1;
nodes = (
(900,0,l),
(900,100,l),
(600,100,l),
(600,0,l)
);
},
{
closed = 1;
nodes = (
(1100,100,l),
(1100,200,l),
(900,200,l),
(900,100,l)
);
},
{
closed = 1;
nodes = (
(1200,200,l),
(1200,300,l),
(1100,300,l),
(1100,200,l)
);
},
{
closed = 1;
nodes = (
(1300,300,l),
(1300,500,l),
(1200,500,l),
(1200,300,l)
);
},
{
closed = 1;
nodes = (
(1300,1300,l),
(1300,1500,l),
(1200,1500,l),
(1200,1300,l)
);
},
{
closed = 1;
nodes = (
(1200,1500,l),
(1200,1600,l),
(1100,1600,l),
(1100,1500,l)
);
},
{
closed = 1;
nodes = (
(1100,1600,l),
(1100,1700,l),
(900,1700,l),
(900,1600,l)
);
},
{
closed = 1;
nodes = (
(900,1700,l),
(900,1800,l),
(600,1800,l),
(600,1700,l)
);
},
{
closed = 1;
nodes = (
(400,1700,l),
(400,1600,l),
(600,1600,l),
(600,1700,l)
);
},
{
closed = 1;
nodes = (
(300,1600,l),
(300,1500,l),
(400,1500,l),
(400,1600,l)
);
},
{
closed = 1;
nodes = (
(200,1500,l),
(200,1300,l),
(300,1300,l),
(300,1500,l)
);
},
{
closed = 1;
nodes = (
(100,1300,l),
(100,500,l),
(200,500,l),
(200,1300,l)
);
},
{
closed = 1;
nodes = (
(1400,500,l),
(1400,1300,l),
(1300,1300,l),
(1300,500,l)
);
},
{
closed = 1;
nodes = (
(600,2000,l),
(600,2200,l),
(500,2200,l),
(500,2000,l)
);
},
{
closed = 1;
nodes = (
(1000,2000,l),
(1000,2200,l),
(900,2200,l),
(900,2000,l)
);
}
);
width = 1600;
}
);
unicode = 214;
},
{
glyphname = Udieresis;
lastChange = "2024-07-24 17:29:08 +0000";
layers = (
{
layerId = m01;
shapes = (
{
closed = 1;
nodes = (
(200,400,l),
(300,400,l),
(300,1800,l),
(200,1800,l)
);
},
{
closed = 1;
nodes = (
(400,200,l),
(400,400,l),
(300,400,l),
(300,200,l)
);
},
{
closed = 1;
nodes = (
(600,100,l),
(600,200,l),
(400,200,l),
(400,100,l)
);
},
{
closed = 1;
nodes = (
(1000,0,l),
(1000,100,l),
(600,100,l),
(600,0,l)
);
},
{
closed = 1;
nodes = (
(1200,100,l),
(1200,200,l),
(1000,200,l),
(1000,100,l)
);
},
{
closed = 1;
nodes = (
(1300,200,l),
(1300,400,l),
(1200,400,l),
(1200,200,l)
);
},
{
closed = 1;
nodes = (
(1400,400,l),
(1400,1800,l),
(1300,1800,l),
(1300,400,l)
);
},
{
closed = 1;
nodes = (
(600,2000,l),
(600,2200,l),
(500,2200,l),
(500,2000,l)
);
},
{
closed = 1;
nodes = (
(1100,2000,l),
(1100,2200,l),
(1000,2200,l),
(1000,2000,l)
);
}
);
width = 1600;
}
);
unicode = 220;
},
{
glyphname = aacute;
lastChange = "2024-07-24 17:29:08 +0000";
layers = (
{
layerId = m01;
shapes = (
{
closed = 1;
nodes = (
(400,100,l),
(400,200,l),
(300,200,l),
(300,100,l)
);
},
{
closed = 1;
nodes = (
(300,200,l),
(300,500,l),
(200,500,l),
(200,200,l)
);
},
{
closed = 1;
nodes = (
(400,500,l),
(400,600,l),
(300,600,l),
(300,500,l)
);
},
{
closed = 1;
nodes = (
(600,600,l),
(600,700,l),
(400,700,l),
(400,600,l)
);
},
{
closed = 1;
nodes = (
(800,700,l),
(800,800,l),
(600,800,l),
(600,700,l)
);
},
{
closed = 1;
nodes = (
(1000,800,l),
(1000,900,l),
(800,900,l),
(800,800,l)
);
},
{
closed = 1;
nodes = (
(1100,900,l),
(1100,300,l),
(1000,300,l),
(1000,200,l),
(1100,200,l),
(1100,0,l),
(1200,0,l),
(1200,1200,l),
(1100,1200,l),
(1100,1000,l),
(1000,1000,l),
(1000,900,l)
);
},
{
closed = 1;
nodes = (
(800,200,l),
(800,100,l),
(1000,100,l),
(1000,200,l)
);
},
{
closed = 1;
nodes = (
(400,100,l),
(400,0,l),
(800,0,l),
(800,100,l)
);
},
{
closed = 1;
nodes = (
(1100,1200,l),
(1100,1300,l),
(1000,1300,l),
(1000,1200,l)
);
},
{
closed = 1;
nodes = (
(1000,1300,l),
(1000,1400,l),
(500,1400,l),
(500,1300,l)
);
},
{
closed = 1;
nodes = (
(300,1300,l),
(300,1200,l),
(500,1200,l),
(500,1300,l)
);
},
{
closed = 1;
nodes = (
(200,1200,l),
(200,1100,l),
(300,1100,l),
(300,1200,l)
);
},
{
closed = 1;
nodes = (
(700,1600,l),
(700,1700,l),
(600,1700,l),
(600,1600,l)
);
},
{
closed = 1;
nodes = (
(700,1800,l),
(700,1700,l),
(800,1700,l),
(800,1800,l)
);
},
{
closed = 1;
nodes = (
(900,1800,l),
(900,1900,l),
(800,1900,l),
(800,1800,l)
);
}
);
width = 1400;
}
);
unicode = 225;
},
{
glyphname = agrave;
lastChange = "2024-07-24 17:29:08 +0000";
layers = (
{
layerId = m01;
shapes = (
{
closed = 1;
nodes = (
(400,100,l),
(400,200,l),
(300,200,l),
(300,100,l)
);
},
{
closed = 1;
nodes = (
(300,200,l),
(300,500,l),
(200,500,l),
(200,200,l)
);
},
{
closed = 1;
nodes = (
(400,500,l),
(400,600,l),
(300,600,l),
(300,500,l)
);
},
{
closed = 1;
nodes = (
(600,600,l),
(600,700,l),
(400,700,l),
(400,600,l)
);
},
{
closed = 1;
nodes = (
(800,700,l),
(800,800,l),
(600,800,l),
(600,700,l)
);
},
{
closed = 1;
nodes = (
(1000,800,l),
(1000,900,l),
(800,900,l),
(800,800,l)
);
},
{
closed = 1;
nodes = (
(1100,900,l),
(1100,300,l),
(1000,300,l),
(1000,200,l),
(1100,200,l),
(1100,0,l),
(1200,0,l),
(1200,1200,l),
(1100,1200,l),
(1100,1000,l),
(1000,1000,l),
(1000,900,l)
);
},
{
closed = 1;
nodes = (
(800,200,l),
(800,100,l),
(1000,100,l),
(1000,200,l)
);
},
{
closed = 1;
nodes = (
(400,100,l),
(400,0,l),
(800,0,l),
(800,100,l)
);
},
{
closed = 1;
nodes = (
(1100,1200,l),
(1100,1300,l),
(1000,1300,l),
(1000,1200,l)
);
},
{
closed = 1;
nodes = (
(1000,1300,l),
(1000,1400,l),
(500,1400,l),
(500,1300,l)
);
},
{
closed = 1;
nodes = (
(300,1300,l),
(300,1200,l),
(500,1200,l),
(500,1300,l)
);
},
{
closed = 1;
nodes = (
(200,1200,l),
(200,1100,l),
(300,1100,l),
(300,1200,l)
);
},
{
closed = 1;
nodes = (
(900,1600,l),
(900,1700,l),
(800,1700,l),
(800,1600,l)
);
},
{
closed = 1;
nodes = (
(800,1700,l),
(800,1800,l),
(700,1800,l),
(700,1700,l)
);
},
{
closed = 1;
nodes = (
(700,1800,l),
(700,1900,l),
(600,1900,l),
(600,1800,l)
);
}
);
width = 1400;
}
);
unicode = 224;
},
{
glyphname = acircumflex;
lastChange = "2024-07-24 17:29:08 +0000";
layers = (
{
layerId = m01;
shapes = (
{
closed = 1;
nodes = (
(400,100,l),
(400,200,l),
(300,200,l),
(300,100,l)
);
},
{
closed = 1;
nodes = (
(300,200,l),
(300,500,l),
(200,500,l),
(200,200,l)
);
},
{
closed = 1;
nodes = (
(400,500,l),
(400,600,l),
(300,600,l),
(300,500,l)
);
},
{
closed = 1;
nodes = (
(600,600,l),
(600,700,l),
(400,700,l),
(400,600,l)
);
},
{
closed = 1;
nodes = (
(800,700,l),
(800,800,l),
(600,800,l),
(600,700,l)
);
},
{
closed = 1;
nodes = (
(1000,800,l),
(1000,900,l),
(800,900,l),
(800,800,l)
);
},
{
closed = 1;
nodes = (
(1100,900,l),
(1100,300,l),
(1000,300,l),
(1000,200,l),
(1100,200,l),
(1100,0,l),
(1200,0,l),
(1200,1200,l),
(1100,1200,l),
(1100,1000,l),
(1000,1000,l),
(1000,900,l)
);
},
{
closed = 1;
nodes = (
(800,200,l),
(800,100,l),
(1000,100,l),
(1000,200,l)
);
},
{
closed = 1;
nodes = (
(400,100,l),
(400,0,l),
(800,0,l),
(800,100,l)
);
},
{
closed = 1;
nodes = (
(1100,1200,l),
(1100,1300,l),
(1000,1300,l),
(1000,1200,l)
);
},
{
closed = 1;
nodes = (
(1000,1300,l),
(1000,1400,l),
(500,1400,l),
(500,1300,l)
);
},
{
closed = 1;
nodes = (
(300,1300,l),
(300,1200,l),
(500,1200,l),
(500,1300,l)
);
},
{
closed = 1;
nodes = (
(200,1200,l),
(200,1100,l),
(300,1100,l),
(300,1200,l)
);
},
{
closed = 1;
nodes = (
(500,1600,l),
(500,1700,l),
(400,1700,l),
(400,1600,l)
);
},
{
closed = 1;
nodes = (
(600,1700,l),
(600,1800,l),
(500,1800,l),
(500,1700,l)
);
},
{
closed = 1;
nodes = (
(800,1800,l),
(800,1900,l),
(600,1900,l),
(600,1800,l)
);
},
{
closed = 1;
nodes = (
(900,1700,l),
(900,1800,l),
(800,1800,l),
(800,1700,l)
);
},
{
closed = 1;
nodes = (
(1000,1600,l),
(1000,1700,l),
(900,1700,l),
(900,1600,l)
);
}
);
width = 1400;
}
);
unicode = 226;
},
{
glyphname = adieresis;
lastChange = "2024-07-24 17:29:08 +0000";
layers = (
{
layerId = m01;
shapes = (
{
closed = 1;
nodes = (
(400,100,l),
(400,200,l),
(300,200,l),
(300,100,l)
);
},
{
closed = 1;
nodes = (
(300,200,l),
(300,500,l),
(200,500,l),
(200,200,l)
);
},
{
closed = 1;
nodes = (
(400,500,l),
(400,600,l),
(300,600,l),
(300,500,l)
);
},
{
closed = 1;
nodes = (
(600,600,l),
(600,700,l),
(400,700,l),
(400,600,l)
);
},
{
closed = 1;
nodes = (
(800,700,l),
(800,800,l),
(600,800,l),
(600,700,l)
);
},
{
closed = 1;
nodes = (
(1000,800,l),
(1000,900,l),
(800,900,l),
(800,800,l)
);
},
{
closed = 1;
nodes = (
(1100,900,l),
(1100,300,l),
(1000,300,l),
(1000,200,l),
(1100,200,l),
(1100,0,l),
(1200,0,l),
(1200,1200,l),
(1100,1200,l),
(1100,1000,l),
(1000,1000,l),
(1000,900,l)
);
},
{
closed = 1;
nodes = (
(800,200,l),
(800,100,l),
(1000,100,l),
(1000,200,l)
);
},
{
closed = 1;
nodes = (
(400,100,l),
(400,0,l),
(800,0,l),
(800,100,l)
);
},
{
closed = 1;
nodes = (
(1100,1200,l),
(1100,1300,l),
(1000,1300,l),
(1000,1200,l)
);
},
{
closed = 1;
nodes = (
(1000,1300,l),
(1000,1400,l),
(500,1400,l),
(500,1300,l)
);
},
{
closed = 1;
nodes = (
(300,1300,l),
(300,1200,l),
(500,1200,l),
(500,1300,l)
);
},
{
closed = 1;
nodes = (
(200,1200,l),
(200,1100,l),
(300,1100,l),
(300,1200,l)
);
},
{
closed = 1;
nodes = (
(600,1600,l),
(600,1800,l),
(500,1800,l),
(500,1600,l)
);
},
{
closed = 1;
nodes = (
(1000,1600,l),
(1000,1800,l),
(900,1800,l),
(900,1600,l)
);
}
);
width = 1400;
}
);
unicode = 228;
},
{
glyphname = atilde;
lastChange = "2024-07-24 17:29:08 +0000";
layers = (
{
layerId = m01;
shapes = (
{
closed = 1;
nodes = (
(400,100,l),
(400,200,l),
(300,200,l),
(300,100,l)
);
},
{
closed = 1;
nodes = (
(300,200,l),
(300,500,l),
(200,500,l),
(200,200,l)
);
},
{
closed = 1;
nodes = (
(400,500,l),
(400,600,l),
(300,600,l),
(300,500,l)
);
},
{
closed = 1;
nodes = (
(600,600,l),
(600,700,l),
(400,700,l),
(400,600,l)
);
},
{
closed = 1;
nodes = (
(800,700,l),
(800,800,l),
(600,800,l),
(600,700,l)
);
},
{
closed = 1;
nodes = (
(1000,800,l),
(1000,900,l),
(800,900,l),
(800,800,l)
);
},
{
closed = 1;
nodes = (
(1100,900,l),
(1100,300,l),
(1000,300,l),
(1000,200,l),
(1100,200,l),
(1100,0,l),
(1200,0,l),
(1200,1200,l),
(1100,1200,l),
(1100,1000,l),
(1000,1000,l),
(1000,900,l)
);
},
{
closed = 1;
nodes = (
(800,200,l),
(800,100,l),
(1000,100,l),
(1000,200,l)
);
},
{
closed = 1;
nodes = (
(400,100,l),
(400,0,l),
(800,0,l),
(800,100,l)
);
},
{
closed = 1;
nodes = (
(1100,1200,l),
(1100,1300,l),
(1000,1300,l),
(1000,1200,l)
);
},
{
closed = 1;
nodes = (
(1000,1300,l),
(1000,1400,l),
(500,1400,l),
(500,1300,l)
);
},
{
closed = 1;
nodes = (
(300,1300,l),
(300,1200,l),
(500,1200,l),
(500,1300,l)
);
},
{
closed = 1;
nodes = (
(200,1200,l),
(200,1100,l),
(300,1100,l),
(300,1200,l)
);
},
{
closed = 1;
nodes = (
(400,1600,l),
(400,1700,l),
(300,1700,l),
(300,1600,l)
);
},
{
closed = 1;
nodes = (
(700,1700,l),
(700,1800,l),
(400,1800,l),
(400,1700,l)
);
},
{
closed = 1;
nodes = (
(1000,1600,l),
(1000,1700,l),
(700,1700,l),
(700,1600,l)
);
},
{
closed = 1;
nodes = (
(1100,1700,l),
(1100,1800,l),
(1000,1800,l),
(1000,1700,l)
);
}
);
width = 1400;
}
);
unicode = 227;
},
{
glyphname = aring;
lastChange = "2024-07-24 17:29:08 +0000";
layers = (
{
layerId = m01;
shapes = (
{
closed = 1;
nodes = (
(400,100,l),
(400,200,l),
(300,200,l),
(300,100,l)
);
},
{
closed = 1;
nodes = (
(300,200,l),
(300,500,l),
(200,500,l),
(200,200,l)
);
},
{
closed = 1;
nodes = (
(400,500,l),
(400,600,l),
(300,600,l),
(300,500,l)
);
},
{
closed = 1;
nodes = (
(600,600,l),
(600,700,l),
(400,700,l),
(400,600,l)
);
},
{
closed = 1;
nodes = (
(800,700,l),
(800,800,l),
(600,800,l),
(600,700,l)
);
},
{
closed = 1;
nodes = (
(1000,800,l),
(1000,900,l),
(800,900,l),
(800,800,l)
);
},
{
closed = 1;
nodes = (
(1100,900,l),
(1100,300,l),
(1000,300,l),
(1000,200,l),
(1100,200,l),
(1100,0,l),
(1200,0,l),
(1200,1200,l),
(1100,1200,l),
(1100,1000,l),
(1000,1000,l),
(1000,900,l)
);
},
{
closed = 1;
nodes = (
(800,200,l),
(800,100,l),
(1000,100,l),
(1000,200,l)
);
},
{
closed = 1;
nodes = (
(400,100,l),
(400,0,l),
(800,0,l),
(800,100,l)
);
},
{
closed = 1;
nodes = (
(1100,1200,l),
(1100,1300,l),
(1000,1300,l),
(1000,1200,l)
);
},
{
closed = 1;
nodes = (
(1000,1300,l),
(1000,1400,l),
(500,1400,l),
(500,1300,l)
);
},
{
closed = 1;
nodes = (
(300,1300,l),
(300,1200,l),
(500,1200,l),
(500,1300,l)
);
},
{
closed = 1;
nodes = (
(200,1200,l),
(200,1100,l),
(300,1100,l),
(300,1200,l)
);
},
{
closed = 1;
nodes = (
(900,1600,l),
(900,1700,l),
(600,1700,l),
(600,1600,l)
);
},
{
closed = 1;
nodes = (
(1000,1700,l),
(1000,2000,l),
(900,2000,l),
(900,1700,l)
);
},
{
closed = 1;
nodes = (
(900,2000,l),
(900,2100,l),
(600,2100,l),
(600,2000,l)
);
},
{
closed = 1;
nodes = (
(500,2000,l),
(500,1700,l),
(600,1700,l),
(600,2000,l)
);
}
);
width = 1400;
}
);
unicode = 229;
},
{
glyphname = ccedilla;
lastChange = "2024-07-24 17:29:08 +0000";
layers = (
{
layerId = m01;
shapes = (
{
closed = 1;
nodes = (
(300,400,l),
(300,1000,l),
(200,1000,l),
(200,400,l)
);
},
{
closed = 1;
nodes = (
(400,1000,l),
(400,1200,l),
(300,1200,l),
(300,1000,l)
);
},
{
closed = 1;
nodes = (
(500,1200,l),
(500,1300,l),
(400,1300,l),
(400,1200,l)
);
},
{
closed = 1;
nodes = (
(1000,1300,l),
(1000,1400,l),
(500,1400,l),
(500,1300,l)
);
},
{
closed = 1;
nodes = (
(1100,1200,l),
(1100,1300,l),
(1000,1300,l),
(1000,1200,l)
);
},
{
closed = 1;
nodes = (
(1200,1100,l),
(1200,1200,l),
(1100,1200,l),
(1100,1100,l)
);
},
{
closed = 1;
nodes = (
(300,200,l),
(400,200,l),
(400,400,l),
(300,400,l)
);
},
{
closed = 1;
nodes = (
(500,100,l),
(500,200,l),
(400,200,l),
(400,100,l)
);
},
{
closed = 1;
nodes = (
(700,0,l),
(700,-200,l),
(800,-200,l),
(800,-300,l),
(900,-300,l),
(900,-100,l),
(800,-100,l),
(800,0,l),
(1000,0,l),
(1000,100,l),
(500,100,l),
(500,0,l)
);
},
{
closed = 1;
nodes = (
(1100,100,l),
(1100,200,l),
(1000,200,l),
(1000,100,l)
);
},
{
closed = 1;
nodes = (
(1200,200,l),
(1200,300,l),
(1100,300,l),
(1100,200,l)
);
},
{
closed = 1;
nodes = (
(700,-300,l),
(700,-400,l),
(800,-400,l),
(800,-300,l)
);
},
{
closed = 1;
nodes = (
(600,-400,l),
(600,-500,l),
(700,-500,l),
(700,-400,l)
);
}
);
width = 1400;
}
);
unicode = 231;
},
{
glyphname = eacute;
lastChange = "2024-07-24 17:29:08 +0000";
layers = (
{
layerId = m01;
shapes = (
{
closed = 1;
nodes = (
(300,400,l),
(300,700,l),
(1200,700,l),
(1200,1000,l),
(1100,1000,l),
(1100,800,l),
(300,800,l),
(300,1000,l),
(200,1000,l),
(200,400,l)
);
},
{
closed = 1;
nodes = (
(400,1000,l),
(400,1200,l),
(300,1200,l),
(300,1000,l)
);
},
{
closed = 1;
nodes = (
(500,1200,l),
(500,1300,l),
(400,1300,l),
(400,1200,l)
);
},
{
closed = 1;
nodes = (
(900,1300,l),
(900,1400,l),
(500,1400,l),
(500,1300,l)
);
},
{
closed = 1;
nodes = (
(1000,1200,l),
(1000,1300,l),
(900,1300,l),
(900,1200,l)
);
},
{
closed = 1;
nodes = (
(1000,1000,l),
(1100,1000,l),
(1100,1200,l),
(1000,1200,l)
);
},
{
closed = 1;
nodes = (
(300,200,l),
(400,200,l),
(400,400,l),
(300,400,l)
);
},
{
closed = 1;
nodes = (
(500,100,l),
(500,200,l),
(400,200,l),
(400,100,l)
);
},
{
closed = 1;
nodes = (
(900,0,l),
(900,100,l),
(500,100,l),
(500,0,l)
);
},
{
closed = 1;
nodes = (
(1000,100,l),
(1000,200,l),
(900,200,l),
(900,100,l)
);
},
{
closed = 1;
nodes = (
(1100,200,l),
(1100,300,l),
(1000,300,l),
(1000,200,l)
);
},
{
closed = 1;
nodes = (
(700,1600,l),
(700,1700,l),
(600,1700,l),
(600,1600,l)
);
},
{
closed = 1;
nodes = (
(800,1700,l),
(800,1800,l),
(700,1800,l),
(700,1700,l)
);
},
{
closed = 1;
nodes = (
(900,1800,l),
(900,1900,l),
(800,1900,l),
(800,1800,l)
);
}
);
width = 1400;
}
);
unicode = 233;
},
{
glyphname = egrave;
lastChange = "2024-07-24 17:29:08 +0000";
layers = (
{
layerId = m01;
shapes = (
{
closed = 1;
nodes = (
(300,400,l),
(300,700,l),
(1200,700,l),
(1200,1000,l),
(1100,1000,l),
(1100,800,l),
(300,800,l),
(300,1000,l),
(200,1000,l),
(200,400,l)
);
},
{
closed = 1;
nodes = (
(400,1000,l),
(400,1200,l),
(300,1200,l),
(300,1000,l)
);
},
{
closed = 1;
nodes = (
(500,1200,l),
(500,1300,l),
(400,1300,l),
(400,1200,l)
);
},
{
closed = 1;
nodes = (
(900,1300,l),
(900,1400,l),
(500,1400,l),
(500,1300,l)
);
},
{
closed = 1;
nodes = (
(1000,1200,l),
(1000,1300,l),
(900,1300,l),
(900,1200,l)
);
},
{
closed = 1;
nodes = (
(1000,1000,l),
(1100,1000,l),
(1100,1200,l),
(1000,1200,l)
);
},
{
closed = 1;
nodes = (
(300,200,l),
(400,200,l),
(400,400,l),
(300,400,l)
);
},
{
closed = 1;
nodes = (
(500,100,l),
(500,200,l),
(400,200,l),
(400,100,l)
);
},
{
closed = 1;
nodes = (
(900,0,l),
(900,100,l),
(500,100,l),
(500,0,l)
);
},
{
closed = 1;
nodes = (
(1000,100,l),
(1000,200,l),
(900,200,l),
(900,100,l)
);
},
{
closed = 1;
nodes = (
(1100,200,l),
(1100,300,l),
(1000,300,l),
(1000,200,l)
);
},
{
closed = 1;
nodes = (
(800,1600,l),
(800,1700,l),
(700,1700,l),
(700,1600,l)
);
},
{
closed = 1;
nodes = (
(700,1700,l),
(700,1800,l),
(600,1800,l),
(600,1700,l)
);
},
{
closed = 1;
nodes = (
(600,1800,l),
(600,1900,l),
(500,1900,l),
(500,1800,l)
);
}
);
width = 1400;
}
);
unicode = 232;
},
{
glyphname = ecircumflex;
lastChange = "2024-07-24 17:29:08 +0000";
layers = (
{
layerId = m01;
shapes = (
{
closed = 1;
nodes = (
(300,400,l),
(300,700,l),
(1200,700,l),
(1200,1000,l),
(1100,1000,l),
(1100,800,l),
(300,800,l),
(300,1000,l),
(200,1000,l),
(200,400,l)
);
},
{
closed = 1;
nodes = (
(400,1000,l),
(400,1200,l),
(300,1200,l),
(300,1000,l)
);
},
{
closed = 1;
nodes = (
(500,1200,l),
(500,1300,l),
(400,1300,l),
(400,1200,l)
);
},
{
closed = 1;
nodes = (
(900,1300,l),
(900,1400,l),
(500,1400,l),
(500,1300,l)
);
},
{
closed = 1;
nodes = (
(1000,1200,l),
(1000,1300,l),
(900,1300,l),
(900,1200,l)
);
},
{
closed = 1;
nodes = (
(1000,1000,l),
(1100,1000,l),
(1100,1200,l),
(1000,1200,l)
);
},
{
closed = 1;
nodes = (
(300,200,l),
(400,200,l),
(400,400,l),
(300,400,l)
);
},
{
closed = 1;
nodes = (
(500,100,l),
(500,200,l),
(400,200,l),
(400,100,l)
);
},
{
closed = 1;
nodes = (
(900,0,l),
(900,100,l),
(500,100,l),
(500,0,l)
);
},
{
closed = 1;
nodes = (
(1000,100,l),
(1000,200,l),
(900,200,l),
(900,100,l)
);
},
{
closed = 1;
nodes = (
(1100,200,l),
(1100,300,l),
(1000,300,l),
(1000,200,l)
);
},
{
closed = 1;
nodes = (
(500,1600,l),
(500,1700,l),
(400,1700,l),
(400,1600,l)
);
},
{
closed = 1;
nodes = (
(600,1700,l),
(600,1800,l),
(500,1800,l),
(500,1700,l)
);
},
{
closed = 1;
nodes = (
(800,1800,l),
(800,1900,l),
(600,1900,l),
(600,1800,l)
);
},
{
closed = 1;
nodes = (
(900,1700,l),
(900,1800,l),
(800,1800,l),
(800,1700,l)
);
},
{
closed = 1;
nodes = (
(1000,1600,l),
(1000,1700,l),
(900,1700,l),
(900,1600,l)
);
}
);
width = 1400;
}
);
unicode = 234;
},
{
glyphname = edieresis;
lastChange = "2024-07-24 17:29:08 +0000";
layers = (
{
layerId = m01;
shapes = (
{
closed = 1;
nodes = (
(300,400,l),
(300,700,l),
(1200,700,l),
(1200,1000,l),
(1100,1000,l),
(1100,800,l),
(300,800,l),
(300,1000,l),
(200,1000,l),
(200,400,l)
);
},
{
closed = 1;
nodes = (
(400,1000,l),
(400,1200,l),
(300,1200,l),
(300,1000,l)
);
},
{
closed = 1;
nodes = (
(500,1200,l),
(500,1300,l),
(400,1300,l),
(400,1200,l)
);
},
{
closed = 1;
nodes = (
(900,1300,l),
(900,1400,l),
(500,1400,l),
(500,1300,l)
);
},
{
closed = 1;
nodes = (
(1000,1200,l),
(1000,1300,l),
(900,1300,l),
(900,1200,l)
);
},
{
closed = 1;
nodes = (
(1000,1000,l),
(1100,1000,l),
(1100,1200,l),
(1000,1200,l)
);
},
{
closed = 1;
nodes = (
(300,200,l),
(400,200,l),
(400,400,l),
(300,400,l)
);
},
{
closed = 1;
nodes = (
(500,100,l),
(500,200,l),
(400,200,l),
(400,100,l)
);
},
{
closed = 1;
nodes = (
(900,0,l),
(900,100,l),
(500,100,l),
(500,0,l)
);
},
{
closed = 1;
nodes = (
(1000,100,l),
(1000,200,l),
(900,200,l),
(900,100,l)
);
},
{
closed = 1;
nodes = (
(1100,200,l),
(1100,300,l),
(1000,300,l),
(1000,200,l)
);
},
{
closed = 1;
nodes = (
(600,1600,l),
(600,1800,l),
(500,1800,l),
(500,1600,l)
);
},
{
closed = 1;
nodes = (
(1000,1600,l),
(1000,1800,l),
(900,1800,l),
(900,1600,l)
);
}
);
width = 1400;
}
);
unicode = 235;
},
{
glyphname = iacute;
lastChange = "2024-07-24 17:40:24 +0000";
layers = (
{
layerId = m01;
shapes = (
{
closed = 1;
nodes = (
(600,0,l),
(600,1400,l),
(300,1400,l),
(300,1300,l),
(500,1300,l),
(500,0,l)
);
},
{
closed = 1;
nodes = (
(400,1700,l),
(400,1600,l),
(500,1600,l),
(500,1700,l)
);
},
{
closed = 1;
nodes = (
(600,1700,l),
(600,1800,l),
(500,1800,l),
(500,1700,l)
);
},
{
closed = 1;
nodes = (
(700,1800,l),
(700,1900,l),
(600,1900,l),
(600,1800,l)
);
}
);
width = 1000;
}
);
unicode = 237;
},
{
glyphname = igrave;
lastChange = "2024-07-24 17:40:29 +0000";
layers = (
{
layerId = m01;
shapes = (
{
closed = 1;
nodes = (
(600,0,l),
(600,1400,l),
(300,1400,l),
(300,1300,l),
(500,1300,l),
(500,0,l)
);
},
{
closed = 1;
nodes = (
(600,1600,l),
(600,1700,l),
(500,1700,l),
(500,1600,l)
);
},
{
closed = 1;
nodes = (
(500,1700,l),
(500,1800,l),
(400,1800,l),
(400,1700,l)
);
},
{
closed = 1;
nodes = (
(400,1800,l),
(400,1900,l),
(300,1900,l),
(300,1800,l)
);
}
);
width = 1000;
}
);
unicode = 236;
},
{
glyphname = icircumflex;
lastChange = "2024-07-24 17:29:08 +0000";
layers = (
{
layerId = m01;
shapes = (
{
closed = 1;
nodes = (
(600,0,l),
(600,1400,l),
(300,1400,l),
(300,1300,l),
(500,1300,l),
(500,0,l)
);
},
{
closed = 1;
nodes = (
(300,1800,l),
(300,1700,l),
(400,1700,l),
(400,1800,l)
);
},
{
closed = 1;
nodes = (
(600,1800,l),
(600,1900,l),
(400,1900,l),
(400,1800,l)
);
},
{
closed = 1;
nodes = (
(700,1700,l),
(700,1800,l),
(600,1800,l),
(600,1700,l)
);
},
{
closed = 1;
nodes = (
(800,1600,l),
(800,1700,l),
(700,1700,l),
(700,1600,l)
);
},
{
closed = 1;
nodes = (
(200,1700,l),
(200,1600,l),
(300,1600,l),
(300,1700,l)
);
}
);
width = 1000;
}
);
unicode = 238;
},
{
glyphname = idieresis;
lastChange = "2024-07-24 17:40:35 +0000";
layers = (
{
layerId = m01;
shapes = (
{
closed = 1;
nodes = (
(600,0,l),
(600,1400,l),
(300,1400,l),
(300,1300,l),
(500,1300,l),
(500,0,l)
);
},
{
closed = 1;
nodes = (
(800,1600,l),
(800,1800,l),
(700,1800,l),
(700,1600,l)
);
},
{
closed = 1;
nodes = (
(300,1600,l),
(300,1800,l),
(200,1800,l),
(200,1600,l)
);
}
);
width = 1100;
}
);
unicode = 239;
},
{
glyphname = ntilde;
lastChange = "2024-07-24 17:29:08 +0000";
layers = (
{
layerId = m01;
shapes = (
{
closed = 1;
nodes = (
(200,0,l),
(300,0,l),
(300,1100,l),
(400,1100,l),
(400,1200,l),
(300,1200,l),
(300,1400,l),
(200,1400,l)
);
},
{
closed = 1;
nodes = (
(500,1200,l),
(500,1300,l),
(400,1300,l),
(400,1200,l)
);
},
{
closed = 1;
nodes = (
(900,1300,l),
(900,1400,l),
(500,1400,l),
(500,1300,l)
);
},
{
closed = 1;
nodes = (
(1000,1200,l),
(1000,1300,l),
(900,1300,l),
(900,1200,l)
);
},
{
closed = 1;
nodes = (
(1000,1000,l),
(1100,1000,l),
(1100,1200,l),
(1000,1200,l)
);
},
{
closed = 1;
nodes = (
(1100,0,l),
(1200,0,l),
(1200,1000,l),
(1100,1000,l)
);
},
{
closed = 1;
nodes = (
(400,1700,l),
(400,1800,l),
(300,1800,l),
(300,1700,l)
);
},
{
closed = 1;
nodes = (
(700,1800,l),
(700,1900,l),
(400,1900,l),
(400,1800,l)
);
},
{
closed = 1;
nodes = (
(1000,1700,l),
(1000,1800,l),
(700,1800,l),
(700,1700,l)
);
},
{
closed = 1;
nodes = (
(1100,1800,l),
(1100,1900,l),
(1000,1900,l),
(1000,1800,l)
);
}
);
width = 1400;
}
);
unicode = 241;
},
{
glyphname = oacute;
lastChange = "2024-07-24 17:29:08 +0000";
layers = (
{
layerId = m01;
shapes = (
{
closed = 1;
nodes = (
(300,400,l),
(300,1000,l),
(200,1000,l),
(200,400,l)
);
},
{
closed = 1;
nodes = (
(300,1000,l),
(400,1000,l),
(400,1200,l),
(300,1200,l)
);
},
{
closed = 1;
nodes = (
(500,1200,l),
(500,1300,l),
(400,1300,l),
(400,1200,l)
);
},
{
closed = 1;
nodes = (
(900,1300,l),
(900,1400,l),
(500,1400,l),
(500,1300,l)
);
},
{
closed = 1;
nodes = (
(1000,1200,l),
(1000,1300,l),
(900,1300,l),
(900,1200,l)
);
},
{
closed = 1;
nodes = (
(1000,1000,l),
(1100,1000,l),
(1100,1200,l),
(1000,1200,l)
);
},
{
closed = 1;
nodes = (
(1100,400,l),
(1200,400,l),
(1200,1000,l),
(1100,1000,l)
);
},
{
closed = 1;
nodes = (
(1000,400,l),
(1000,200,l),
(1100,200,l),
(1100,400,l)
);
},
{
closed = 1;
nodes = (
(900,200,l),
(900,100,l),
(1000,100,l),
(1000,200,l)
);
},
{
closed = 1;
nodes = (
(500,100,l),
(500,0,l),
(900,0,l),
(900,100,l)
);
},
{
closed = 1;
nodes = (
(500,100,l),
(500,200,l),
(400,200,l),
(400,100,l)
);
},
{
closed = 1;
nodes = (
(400,200,l),
(400,400,l),
(300,400,l),
(300,200,l)
);
},
{
closed = 1;
nodes = (
(700,1600,l),
(700,1700,l),
(600,1700,l),
(600,1600,l)
);
},
{
closed = 1;
nodes = (
(800,1700,l),
(800,1800,l),
(700,1800,l),
(700,1700,l)
);
},
{
closed = 1;
nodes = (
(900,1800,l),
(900,1900,l),
(800,1900,l),
(800,1800,l)
);
}
);
width = 1400;
}
);
unicode = 243;
},
{
glyphname = ograve;
lastChange = "2024-07-24 17:29:08 +0000";
layers = (
{
layerId = m01;
shapes = (
{
closed = 1;
nodes = (
(300,400,l),
(300,1000,l),
(200,1000,l),
(200,400,l)
);
},
{
closed = 1;
nodes = (
(300,1000,l),
(400,1000,l),
(400,1200,l),
(300,1200,l)
);
},
{
closed = 1;
nodes = (
(500,1200,l),
(500,1300,l),
(400,1300,l),
(400,1200,l)
);
},
{
closed = 1;
nodes = (
(900,1300,l),
(900,1400,l),
(500,1400,l),
(500,1300,l)
);
},
{
closed = 1;
nodes = (
(1000,1200,l),
(1000,1300,l),
(900,1300,l),
(900,1200,l)
);
},
{
closed = 1;
nodes = (
(1000,1000,l),
(1100,1000,l),
(1100,1200,l),
(1000,1200,l)
);
},
{
closed = 1;
nodes = (
(1100,400,l),
(1200,400,l),
(1200,1000,l),
(1100,1000,l)
);
},
{
closed = 1;
nodes = (
(1000,400,l),
(1000,200,l),
(1100,200,l),
(1100,400,l)
);
},
{
closed = 1;
nodes = (
(900,200,l),
(900,100,l),
(1000,100,l),
(1000,200,l)
);
},
{
closed = 1;
nodes = (
(500,100,l),
(500,0,l),
(900,0,l),
(900,100,l)
);
},
{
closed = 1;
nodes = (
(500,100,l),
(500,200,l),
(400,200,l),
(400,100,l)
);
},
{
closed = 1;
nodes = (
(400,200,l),
(400,400,l),
(300,400,l),
(300,200,l)
);
},
{
closed = 1;
nodes = (
(900,1600,l),
(900,1700,l),
(800,1700,l),
(800,1600,l)
);
},
{
closed = 1;
nodes = (
(800,1700,l),
(800,1800,l),
(700,1800,l),
(700,1700,l)
);
},
{
closed = 1;
nodes = (
(700,1800,l),
(700,1900,l),
(600,1900,l),
(600,1800,l)
);
}
);
width = 1400;
}
);
unicode = 242;
},
{
glyphname = ocircumflex;
lastChange = "2024-07-24 17:29:08 +0000";
layers = (
{
layerId = m01;
shapes = (
{
closed = 1;
nodes = (
(300,400,l),
(300,1000,l),
(200,1000,l),
(200,400,l)
);
},
{
closed = 1;
nodes = (
(300,1000,l),
(400,1000,l),
(400,1200,l),
(300,1200,l)
);
},
{
closed = 1;
nodes = (
(500,1200,l),
(500,1300,l),
(400,1300,l),
(400,1200,l)
);
},
{
closed = 1;
nodes = (
(900,1300,l),
(900,1400,l),
(500,1400,l),
(500,1300,l)
);
},
{
closed = 1;
nodes = (
(1000,1200,l),
(1000,1300,l),
(900,1300,l),
(900,1200,l)
);
},
{
closed = 1;
nodes = (
(1000,1000,l),
(1100,1000,l),
(1100,1200,l),
(1000,1200,l)
);
},
{
closed = 1;
nodes = (
(1100,400,l),
(1200,400,l),
(1200,1000,l),
(1100,1000,l)
);
},
{
closed = 1;
nodes = (
(1000,400,l),
(1000,200,l),
(1100,200,l),
(1100,400,l)
);
},
{
closed = 1;
nodes = (
(900,200,l),
(900,100,l),
(1000,100,l),
(1000,200,l)
);
},
{
closed = 1;
nodes = (
(500,100,l),
(500,0,l),
(900,0,l),
(900,100,l)
);
},
{
closed = 1;
nodes = (
(500,100,l),
(500,200,l),
(400,200,l),
(400,100,l)
);
},
{
closed = 1;
nodes = (
(400,200,l),
(400,400,l),
(300,400,l),
(300,200,l)
);
},
{
closed = 1;
nodes = (
(500,1600,l),
(500,1700,l),
(400,1700,l),
(400,1600,l)
);
},
{
closed = 1;
nodes = (
(600,1700,l),
(600,1800,l),
(500,1800,l),
(500,1700,l)
);
},
{
closed = 1;
nodes = (
(800,1800,l),
(800,1900,l),
(600,1900,l),
(600,1800,l)
);
},
{
closed = 1;
nodes = (
(900,1700,l),
(900,1800,l),
(800,1800,l),
(800,1700,l)
);
},
{
closed = 1;
nodes = (
(1000,1600,l),
(1000,1700,l),
(900,1700,l),
(900,1600,l)
);
}
);
width = 1400;
}
);
unicode = 244;
},
{
glyphname = odieresis;
lastChange = "2024-07-24 17:29:08 +0000";
layers = (
{
layerId = m01;
shapes = (
{
closed = 1;
nodes = (
(300,400,l),
(300,1000,l),
(200,1000,l),
(200,400,l)
);
},
{
closed = 1;
nodes = (
(300,1000,l),
(400,1000,l),
(400,1200,l),
(300,1200,l)
);
},
{
closed = 1;
nodes = (
(500,1200,l),
(500,1300,l),
(400,1300,l),
(400,1200,l)
);
},
{
closed = 1;
nodes = (
(900,1300,l),
(900,1400,l),
(500,1400,l),
(500,1300,l)
);
},
{
closed = 1;
nodes = (
(1000,1200,l),
(1000,1300,l),
(900,1300,l),
(900,1200,l)
);
},
{
closed = 1;
nodes = (
(1000,1000,l),
(1100,1000,l),
(1100,1200,l),
(1000,1200,l)
);
},
{
closed = 1;
nodes = (
(1100,400,l),
(1200,400,l),
(1200,1000,l),
(1100,1000,l)
);
},
{
closed = 1;
nodes = (
(1000,400,l),
(1000,200,l),
(1100,200,l),
(1100,400,l)
);
},
{
closed = 1;
nodes = (
(900,200,l),
(900,100,l),
(1000,100,l),
(1000,200,l)
);
},
{
closed = 1;
nodes = (
(500,100,l),
(500,0,l),
(900,0,l),
(900,100,l)
);
},
{
closed = 1;
nodes = (
(500,100,l),
(500,200,l),
(400,200,l),
(400,100,l)
);
},
{
closed = 1;
nodes = (
(400,200,l),
(400,400,l),
(300,400,l),
(300,200,l)
);
},
{
closed = 1;
nodes = (
(500,1600,l),
(500,1800,l),
(400,1800,l),
(400,1600,l)
);
},
{
closed = 1;
nodes = (
(1000,1600,l),
(1000,1800,l),
(900,1800,l),
(900,1600,l)
);
}
);
width = 1400;
}
);
unicode = 246;
},
{
glyphname = otilde;
lastChange = "2024-07-24 17:29:08 +0000";
layers = (
{
layerId = m01;
shapes = (
{
closed = 1;
nodes = (
(300,400,l),
(300,1000,l),
(200,1000,l),
(200,400,l)
);
},
{
closed = 1;
nodes = (
(300,1000,l),
(400,1000,l),
(400,1200,l),
(300,1200,l)
);
},
{
closed = 1;
nodes = (
(500,1200,l),
(500,1300,l),
(400,1300,l),
(400,1200,l)
);
},
{
closed = 1;
nodes = (
(900,1300,l),
(900,1400,l),
(500,1400,l),
(500,1300,l)
);
},
{
closed = 1;
nodes = (
(1000,1200,l),
(1000,1300,l),
(900,1300,l),
(900,1200,l)
);
},
{
closed = 1;
nodes = (
(1000,1000,l),
(1100,1000,l),
(1100,1200,l),
(1000,1200,l)
);
},
{
closed = 1;
nodes = (
(1100,400,l),
(1200,400,l),
(1200,1000,l),
(1100,1000,l)
);
},
{
closed = 1;
nodes = (
(1000,400,l),
(1000,200,l),
(1100,200,l),
(1100,400,l)
);
},
{
closed = 1;
nodes = (
(900,200,l),
(900,100,l),
(1000,100,l),
(1000,200,l)
);
},
{
closed = 1;
nodes = (
(500,100,l),
(500,0,l),
(900,0,l),
(900,100,l)
);
},
{
closed = 1;
nodes = (
(500,100,l),
(500,200,l),
(400,200,l),
(400,100,l)
);
},
{
closed = 1;
nodes = (
(400,200,l),
(400,400,l),
(300,400,l),
(300,200,l)
);
},
{
closed = 1;
nodes = (
(400,1600,l),
(400,1700,l),
(300,1700,l),
(300,1600,l)
);
},
{
closed = 1;
nodes = (
(700,1700,l),
(700,1800,l),
(400,1800,l),
(400,1700,l)
);
},
{
closed = 1;
nodes = (
(1000,1600,l),
(1000,1700,l),
(700,1700,l),
(700,1600,l)
);
},
{
closed = 1;
nodes = (
(1100,1700,l),
(1100,1800,l),
(1000,1800,l),
(1000,1700,l)
);
}
);
width = 1400;
}
);
unicode = 245;
},
{
glyphname = uacute;
lastChange = "2024-07-24 17:29:08 +0000";
layers = (
{
layerId = m01;
shapes = (
{
closed = 1;
nodes = (
(200,400,l),
(300,400,l),
(300,1400,l),
(200,1400,l)
);
},
{
closed = 1;
nodes = (
(300,200,l),
(400,200,l),
(400,400,l),
(300,400,l)
);
},
{
closed = 1;
nodes = (
(500,100,l),
(500,200,l),
(400,200,l),
(400,100,l)
);
},
{
closed = 1;
nodes = (
(900,0,l),
(900,100,l),
(500,100,l),
(500,0,l)
);
},
{
closed = 1;
nodes = (
(1000,100,l),
(1000,200,l),
(900,200,l),
(900,100,l)
);
},
{
closed = 1;
nodes = (
(1100,200,l),
(1100,0,l),
(1200,0,l),
(1200,1400,l),
(1100,1400,l),
(1100,300,l),
(1000,300,l),
(1000,200,l)
);
},
{
closed = 1;
nodes = (
(700,1600,l),
(700,1700,l),
(600,1700,l),
(600,1600,l)
);
},
{
closed = 1;
nodes = (
(800,1700,l),
(800,1800,l),
(700,1800,l),
(700,1700,l)
);
},
{
closed = 1;
nodes = (
(900,1800,l),
(900,1900,l),
(800,1900,l),
(800,1800,l)
);
}
);
width = 1400;
}
);
unicode = 250;
},
{
glyphname = ugrave;
lastChange = "2024-07-24 17:29:08 +0000";
layers = (
{
layerId = m01;
shapes = (
{
closed = 1;
nodes = (
(200,400,l),
(300,400,l),
(300,1400,l),
(200,1400,l)
);
},
{
closed = 1;
nodes = (
(300,200,l),
(400,200,l),
(400,400,l),
(300,400,l)
);
},
{
closed = 1;
nodes = (
(500,100,l),
(500,200,l),
(400,200,l),
(400,100,l)
);
},
{
closed = 1;
nodes = (
(900,0,l),
(900,100,l),
(500,100,l),
(500,0,l)
);
},
{
closed = 1;
nodes = (
(1000,100,l),
(1000,200,l),
(900,200,l),
(900,100,l)
);
},
{
closed = 1;
nodes = (
(1100,200,l),
(1100,0,l),
(1200,0,l),
(1200,1400,l),
(1100,1400,l),
(1100,300,l),
(1000,300,l),
(1000,200,l)
);
},
{
closed = 1;
nodes = (
(800,1600,l),
(800,1700,l),
(700,1700,l),
(700,1600,l)
);
},
{
closed = 1;
nodes = (
(700,1700,l),
(700,1800,l),
(600,1800,l),
(600,1700,l)
);
},
{
closed = 1;
nodes = (
(600,1800,l),
(600,1900,l),
(500,1900,l),
(500,1800,l)
);
}
);
width = 1400;
}
);
unicode = 249;
},
{
glyphname = ucircumflex;
lastChange = "2024-07-24 17:29:08 +0000";
layers = (
{
layerId = m01;
shapes = (
{
closed = 1;
nodes = (
(200,400,l),
(300,400,l),
(300,1400,l),
(200,1400,l)
);
},
{
closed = 1;
nodes = (
(300,200,l),
(400,200,l),
(400,400,l),
(300,400,l)
);
},
{
closed = 1;
nodes = (
(500,100,l),
(500,200,l),
(400,200,l),
(400,100,l)
);
},
{
closed = 1;
nodes = (
(900,0,l),
(900,100,l),
(500,100,l),
(500,0,l)
);
},
{
closed = 1;
nodes = (
(1000,100,l),
(1000,200,l),
(900,200,l),
(900,100,l)
);
},
{
closed = 1;
nodes = (
(1100,200,l),
(1100,0,l),
(1200,0,l),
(1200,1400,l),
(1100,1400,l),
(1100,300,l),
(1000,300,l),
(1000,200,l)
);
},
{
closed = 1;
nodes = (
(500,1600,l),
(500,1700,l),
(400,1700,l),
(400,1600,l)
);
},
{
closed = 1;
nodes = (
(600,1700,l),
(600,1800,l),
(500,1800,l),
(500,1700,l)
);
},
{
closed = 1;
nodes = (
(800,1800,l),
(800,1900,l),
(600,1900,l),
(600,1800,l)
);
},
{
closed = 1;
nodes = (
(900,1700,l),
(900,1800,l),
(800,1800,l),
(800,1700,l)
);
},
{
closed = 1;
nodes = (
(1000,1600,l),
(1000,1700,l),
(900,1700,l),
(900,1600,l)
);
}
);
width = 1400;
}
);
unicode = 251;
},
{
glyphname = udieresis;
lastChange = "2024-07-24 17:29:08 +0000";
layers = (
{
layerId = m01;
shapes = (
{
closed = 1;
nodes = (
(200,400,l),
(300,400,l),
(300,1400,l),
(200,1400,l)
);
},
{
closed = 1;
nodes = (
(300,200,l),
(400,200,l),
(400,400,l),
(300,400,l)
);
},
{
closed = 1;
nodes = (
(500,100,l),
(500,200,l),
(400,200,l),
(400,100,l)
);
},
{
closed = 1;
nodes = (
(900,0,l),
(900,100,l),
(500,100,l),
(500,0,l)
);
},
{
closed = 1;
nodes = (
(1000,100,l),
(1000,200,l),
(900,200,l),
(900,100,l)
);
},
{
closed = 1;
nodes = (
(1100,200,l),
(1100,0,l),
(1200,0,l),
(1200,1400,l),
(1100,1400,l),
(1100,300,l),
(1000,300,l),
(1000,200,l)
);
},
{
closed = 1;
nodes = (
(500,1600,l),
(500,1800,l),
(400,1800,l),
(400,1600,l)
);
},
{
closed = 1;
nodes = (
(1000,1600,l),
(1000,1800,l),
(900,1800,l),
(900,1600,l)
);
}
);
width = 1400;
}
);
unicode = 252;
},
{
glyphname = dagger;
lastChange = "2024-07-24 17:40:52 +0000";
layers = (
{
layerId = m01;
shapes = (
{
closed = 1;
nodes = (
(400,1700,l),
(400,1100,l),
(500,1100,l),
(500,1700,l),
(700,1700,l),
(700,1800,l),
(500,1800,l),
(500,2000,l),
(400,2000,l),
(400,1800,l),
(200,1800,l),
(200,1700,l)
);
}
);
width = 1000;
}
);
unicode = 8224;
},
{
glyphname = degree;
lastChange = "2024-07-24 17:40:57 +0000";
layers = (
{
layerId = m01;
shapes = (
{
closed = 1;
nodes = (
(300,1700,l),
(300,1400,l),
(400,1400,l),
(400,1700,l)
);
},
{
closed = 1;
nodes = (
(700,1700,l),
(700,1800,l),
(400,1800,l),
(400,1700,l)
);
},
{
closed = 1;
nodes = (
(700,1400,l),
(800,1400,l),
(800,1700,l),
(700,1700,l)
);
},
{
closed = 1;
nodes = (
(400,1400,l),
(400,1300,l),
(700,1300,l),
(700,1400,l)
);
}
);
width = 1200;
}
);
unicode = 176;
},
{
glyphname = cent;
lastChange = "2024-07-24 17:29:08 +0000";
layers = (
{
layerId = m01;
shapes = (
{
closed = 1;
nodes = (
(700,1600,l),
(500,1600,l),
(500,1500,l),
(700,1500,l),
(700,300,l),
(500,300,l),
(500,200,l),
(700,200,l),
(700,0,l),
(800,0,l),
(800,200,l),
(1000,200,l),
(1000,300,l),
(800,300,l),
(800,1500,l),
(1000,1500,l),
(1000,1600,l),
(800,1600,l),
(800,1800,l),
(700,1800,l)
);
},
{
closed = 1;
nodes = (
(400,1500,l),
(400,1400,l),
(500,1400,l),
(500,1500,l)
);
},
{
closed = 1;
nodes = (
(300,1400,l),
(300,1200,l),
(400,1200,l),
(400,1400,l)
);
},
{
closed = 1;
nodes = (
(200,1200,l),
(200,600,l),
(300,600,l),
(300,1200,l)
);
},
{
closed = 1;
nodes = (
(300,400,l),
(400,400,l),
(400,600,l),
(300,600,l)
);
},
{
closed = 1;
nodes = (
(500,300,l),
(500,400,l),
(400,400,l),
(400,300,l)
);
},
{
closed = 1;
nodes = (
(1100,300,l),
(1100,400,l),
(1000,400,l),
(1000,300,l)
);
},
{
closed = 1;
nodes = (
(1200,400,l),
(1200,500,l),
(1100,500,l),
(1100,400,l)
);
},
{
closed = 1;
nodes = (
(1100,1400,l),
(1100,1500,l),
(1000,1500,l),
(1000,1400,l)
);
},
{
closed = 1;
nodes = (
(1200,1300,l),
(1200,1400,l),
(1100,1400,l),
(1100,1300,l)
);
}
);
width = 1400;
}
);
unicode = 162;
},
{
glyphname = sterling;
lastChange = "2024-07-24 17:29:08 +0000";
layers = (
{
layerId = m01;
shapes = (
{
closed = 1;
nodes = (
(1200,0,l),
(1200,100,l),
(500,100,l),
(500,900,l),
(800,900,l),
(800,1000,l),
(500,1000,l),
(500,1600,l),
(400,1600,l),
(400,1000,l),
(200,1000,l),
(200,900,l),
(400,900,l),
(400,100,l),
(200,100,l),
(200,0,l)
);
},
{
closed = 1;
nodes = (
(1300,100,l),
(1300,200,l),
(1200,200,l),
(1200,100,l)
);
},
{
closed = 1;
nodes = (
(1400,200,l),
(1400,400,l),
(1300,400,l),
(1300,200,l)
);
},
{
closed = 1;
nodes = (
(600,1600,l),
(600,1700,l),
(500,1700,l),
(500,1600,l)
);
},
{
closed = 1;
nodes = (
(1000,1700,l),
(1000,1800,l),
(600,1800,l),
(600,1700,l)
);
},
{
closed = 1;
nodes = (
(1100,1600,l),
(1100,1700,l),
(1000,1700,l),
(1000,1600,l)
);
}
);
width = 1600;
}
);
unicode = 163;
},
{
glyphname = section;
lastChange = "2024-07-24 17:41:04 +0000";
layers = (
{
layerId = m01;
shapes = (
{
closed = 1;
nodes = (
(400,200,l),
(400,400,l),
(300,400,l),
(300,200,l)
);
},
{
closed = 1;
nodes = (
(500,100,l),
(500,200,l),
(400,200,l),
(400,100,l)
);
},
{
closed = 1;
nodes = (
(1100,0,l),
(1100,100,l),
(500,100,l),
(500,0,l)
);
},
{
closed = 1;
nodes = (
(1200,100,l),
(1200,200,l),
(1100,200,l),
(1100,100,l)
);
},
{
closed = 1;
nodes = (
(1300,200,l),
(1300,500,l),
(1200,500,l),
(1200,200,l)
);
},
{
closed = 1;
nodes = (
(1200,500,l),
(1200,600,l),
(1000,600,l),
(1000,500,l)
);
},
{
closed = 1;
nodes = (
(1000,600,l),
(1000,700,l),
(800,700,l),
(800,600,l)
);
},
{
closed = 1;
nodes = (
(800,700,l),
(800,800,l),
(600,800,l),
(600,700,l)
);
},
{
closed = 1;
nodes = (
(600,800,l),
(600,900,l),
(400,900,l),
(400,800,l)
);
},
{
closed = 1;
nodes = (
(400,900,l),
(400,1200,l),
(300,1200,l),
(300,900,l)
);
},
{
closed = 1;
nodes = (
(600,1200,l),
(600,1300,l),
(400,1300,l),
(400,1200,l)
);
},
{
closed = 1;
nodes = (
(800,1100,l),
(800,1200,l),
(600,1200,l),
(600,1100,l)
);
},
{
closed = 1;
nodes = (
(1000,1000,l),
(1000,1100,l),
(800,1100,l),
(800,1000,l)
);
},
{
closed = 1;
nodes = (
(1200,900,l),
(1200,1000,l),
(1000,1000,l),
(1000,900,l)
);
},
{
closed = 1;
nodes = (
(1200,600,l),
(1300,600,l),
(1300,900,l),
(1200,900,l)
);
},
{
closed = 1;
nodes = (
(400,1300,l),
(400,1600,l),
(300,1600,l),
(300,1300,l)
);
},
{
closed = 1;
nodes = (
(500,1600,l),
(500,1700,l),
(400,1700,l),
(400,1600,l)
);
},
{
closed = 1;
nodes = (
(1100,1700,l),
(1100,1800,l),
(500,1800,l),
(500,1700,l)
);
},
{
closed = 1;
nodes = (
(1200,1600,l),
(1200,1700,l),
(1100,1700,l),
(1100,1600,l)
);
},
{
closed = 1;
nodes = (
(1200,1400,l),
(1300,1400,l),
(1300,1600,l),
(1200,1600,l)
);
}
);
width = 1600;
}
);
unicode = 167;
},
{
glyphname = bullet;
lastChange = "2024-07-24 17:29:08 +0000";
layers = (
{
layerId = m01;
shapes = (
{
closed = 1;
nodes = (
(1000,200,l),
(1000,300,l),
(1200,300,l),
(1200,400,l),
(1300,400,l),
(1300,600,l),
(1400,600,l),
(1400,1000,l),
(1300,1000,l),
(1300,1200,l),
(1200,1200,l),
(1200,1300,l),
(1000,1300,l),
(1000,1400,l),
(600,1400,l),
(600,1300,l),
(400,1300,l),
(400,1200,l),
(300,1200,l),
(300,1000,l),
(200,1000,l),
(200,600,l),
(300,600,l),
(300,400,l),
(400,400,l),
(400,300,l),
(600,300,l),
(600,200,l)
);
}
);
width = 1600;
}
);
unicode = 8226;
},
{
glyphname = paragraph;
lastChange = "2024-07-24 17:29:08 +0000";
layers = (
{
layerId = m01;
shapes = (
{
closed = 1;
nodes = (
(1000,0,l),
(1000,1800,l),
(600,1800,l),
(600,1700,l),
(900,1700,l),
(900,700,l),
(600,700,l),
(600,600,l),
(900,600,l),
(900,0,l)
);
},
{
closed = 1;
nodes = (
(400,1700,l),
(400,1600,l),
(600,1600,l),
(600,1700,l)
);
},
{
closed = 1;
nodes = (
(300,1600,l),
(300,1400,l),
(400,1400,l),
(400,1600,l)
);
},
{
closed = 1;
nodes = (
(200,1400,l),
(200,1000,l),
(300,1000,l),
(300,1400,l)
);
},
{
closed = 1;
nodes = (
(300,800,l),
(400,800,l),
(400,1000,l),
(300,1000,l)
);
},
{
closed = 1;
nodes = (
(600,700,l),
(600,800,l),
(400,800,l),
(400,700,l)
);
},
{
closed = 1;
nodes = (
(1400,1700,l),
(1400,1800,l),
(1200,1800,l),
(1200,0,l),
(1300,0,l),
(1300,1700,l)
);
}
);
width = 1600;
}
);
unicode = 182;
},
{
glyphname = germandbls;
lastChange = "2024-07-24 17:41:12 +0000";
layers = (
{
layerId = m01;
shapes = (
{
closed = 1;
nodes = (
(400,0,l),
(400,100,l),
(200,100,l),
(200,0,l)
);
},
{
closed = 1;
nodes = (
(500,100,l),
(500,1600,l),
(400,1600,l),
(400,100,l)
);
},
{
closed = 1;
nodes = (
(600,1600,l),
(600,1700,l),
(500,1700,l),
(500,1600,l)
);
},
{
closed = 1;
nodes = (
(1200,1700,l),
(1200,1800,l),
(600,1800,l),
(600,1700,l)
);
},
{
closed = 1;
nodes = (
(1300,1600,l),
(1300,1700,l),
(1200,1700,l),
(1200,1600,l)
);
},
{
closed = 1;
nodes = (
(1300,1200,l),
(1400,1200,l),
(1400,1600,l),
(1300,1600,l)
);
},
{
closed = 1;
nodes = (
(1200,1200,l),
(1200,1100,l),
(1300,1100,l),
(1300,1200,l)
);
},
{
closed = 1;
nodes = (
(1000,1100,l),
(1000,1000,l),
(1200,1000,l),
(1200,1100,l)
);
},
{
closed = 1;
nodes = (
(1300,900,l),
(1300,1000,l),
(1200,1000,l),
(1200,900,l)
);
},
{
closed = 1;
nodes = (
(1400,800,l),
(1400,900,l),
(1300,900,l),
(1300,800,l)
);
},
{
closed = 1;
nodes = (
(1400,300,l),
(1500,300,l),
(1500,800,l),
(1400,800,l)
);
},
{
closed = 1;
nodes = (
(1300,300,l),
(1300,200,l),
(1400,200,l),
(1400,300,l)
);
},
{
closed = 1;
nodes = (
(1100,200,l),
(1100,100,l),
(1300,100,l),
(1300,200,l)
);
},
{
closed = 1;
nodes = (
(800,100,l),
(800,0,l),
(1100,0,l),
(1100,100,l)
);
}
);
width = 1800;
}
);
unicode = 223;
},
{
glyphname = registered;
lastChange = "2024-07-24 17:41:16 +0000";
layers = (
{
layerId = m01;
shapes = (
{
closed = 1;
nodes = (
(600,100,l),
(600,200,l),
(500,200,l),
(500,300,l),
(400,300,l),
(400,400,l),
(300,400,l),
(300,200,l),
(400,200,l),
(400,100,l)
);
},
{
closed = 1;
nodes = (
(300,400,l),
(300,1100,l),
(200,1100,l),
(200,400,l)
);
},
{
closed = 1;
nodes = (
(400,1100,l),
(400,1200,l),
(500,1200,l),
(500,1300,l),
(600,1300,l),
(600,1400,l),
(400,1400,l),
(400,1300,l),
(300,1300,l),
(300,1100,l)
);
},
{
closed = 1;
nodes = (
(1300,1400,l),
(1300,1500,l),
(600,1500,l),
(600,1400,l)
);
},
{
closed = 1;
nodes = (
(1400,1300,l),
(1400,1200,l),
(1500,1200,l),
(1500,1100,l),
(1600,1100,l),
(1600,1300,l),
(1500,1300,l),
(1500,1400,l),
(1300,1400,l),
(1300,1300,l)
);
},
{
closed = 1;
nodes = (
(1600,400,l),
(1700,400,l),
(1700,1100,l),
(1600,1100,l)
);
},
{
closed = 1;
nodes = (
(1500,400,l),
(1500,300,l),
(1400,300,l),
(1400,200,l),
(1300,200,l),
(1300,100,l),
(1500,100,l),
(1500,200,l),
(1600,200,l),
(1600,400,l)
);
},
{
closed = 1;
nodes = (
(600,100,l),
(600,0,l),
(1300,0,l),
(1300,100,l)
);
},
{
closed = 1;
nodes = (
(700,400,l),
(800,400,l),
(800,700,l),
(900,700,l),
(900,600,l),
(1000,600,l),
(1000,700,l),
(1100,700,l),
(1100,800,l),
(800,800,l),
(800,1000,l),
(1100,1000,l),
(1100,1100,l),
(700,1100,l)
);
},
{
closed = 1;
nodes = (
(1100,800,l),
(1200,800,l),
(1200,1000,l),
(1100,1000,l)
);
},
{
closed = 1;
nodes = (
(1100,500,l),
(1100,600,l),
(1000,600,l),
(1000,500,l)
);
},
{
closed = 1;
nodes = (
(1200,400,l),
(1200,500,l),
(1100,500,l),
(1100,400,l)
);
}
);
width = 2000;
}
);
unicode = 174;
},
{
glyphname = copyright;
lastChange = "2024-07-24 17:41:19 +0000";
layers = (
{
layerId = m01;
shapes = (
{
closed = 1;
nodes = (
(300,200,l),
(400,200,l),
(400,100,l),
(600,100,l),
(600,200,l),
(500,200,l),
(500,300,l),
(400,300,l),
(400,400,l),
(300,400,l)
);
},
{
closed = 1;
nodes = (
(1300,0,l),
(1300,100,l),
(600,100,l),
(600,0,l)
);
},
{
closed = 1;
nodes = (
(1500,100,l),
(1500,200,l),
(1600,200,l),
(1600,400,l),
(1500,400,l),
(1500,300,l),
(1400,300,l),
(1400,200,l),
(1300,200,l),
(1300,100,l)
);
},
{
closed = 1;
nodes = (
(1700,400,l),
(1700,1100,l),
(1600,1100,l),
(1600,400,l)
);
},
{
closed = 1;
nodes = (
(1600,1100,l),
(1600,1300,l),
(1500,1300,l),
(1500,1400,l),
(1300,1400,l),
(1300,1300,l),
(1400,1300,l),
(1400,1200,l),
(1500,1200,l),
(1500,1100,l)
);
},
{
closed = 1;
nodes = (
(1300,1400,l),
(1300,1500,l),
(600,1500,l),
(600,1400,l)
);
},
{
closed = 1;
nodes = (
(300,400,l),
(300,1100,l),
(200,1100,l),
(200,400,l)
);
},
{
closed = 1;
nodes = (
(400,1100,l),
(400,1200,l),
(500,1200,l),
(500,1300,l),
(600,1300,l),
(600,1400,l),
(400,1400,l),
(400,1300,l),
(300,1300,l),
(300,1100,l)
);
},
{
closed = 1;
nodes = (
(1100,1000,l),
(1100,1100,l),
(800,1100,l),
(800,1000,l)
);
},
{
closed = 1;
nodes = (
(700,1000,l),
(700,500,l),
(800,500,l),
(800,1000,l)
);
},
{
closed = 1;
nodes = (
(1100,400,l),
(1100,500,l),
(800,500,l),
(800,400,l)
);
},
{
closed = 1;
nodes = (
(1200,500,l),
(1200,600,l),
(1100,600,l),
(1100,500,l)
);
},
{
closed = 1;
nodes = (
(1200,900,l),
(1200,1000,l),
(1100,1000,l),
(1100,900,l)
);
}
);
width = 2000;
}
);
unicode = 169;
},
{
glyphname = trademark;
lastChange = "2024-07-24 17:41:26 +0000";
layers = (
{
layerId = m01;
shapes = (
{
closed = 1;
nodes = (
(400,1700,l),
(400,1100,l),
(500,1100,l),
(500,1700,l),
(700,1700,l),
(700,1800,l),
(200,1800,l),
(200,1700,l)
);
},
{
closed = 1;
nodes = (
(900,1100,l),
(1000,1100,l),
(1000,1600,l),
(1100,1600,l),
(1100,1700,l),
(1000,1700,l),
(1000,1800,l),
(900,1800,l)
);
},
{
closed = 1;
nodes = (
(1200,1500,l),
(1200,1600,l),
(1100,1600,l),
(1100,1500,l)
);
},
{
closed = 1;
nodes = (
(1300,1400,l),
(1300,1500,l),
(1200,1500,l),
(1200,1400,l)
);
},
{
closed = 1;
nodes = (
(1400,1500,l),
(1400,1600,l),
(1300,1600,l),
(1300,1500,l)
);
},
{
closed = 1;
nodes = (
(1500,1600,l),
(1500,1100,l),
(1600,1100,l),
(1600,1800,l),
(1500,1800,l),
(1500,1700,l),
(1400,1700,l),
(1400,1600,l)
);
}
);
width = 2200;
}
);
unicode = 8482;
},
{
glyphname = acute;
lastChange = "2024-07-24 17:29:08 +0000";
layers = (
{
layerId = m01;
shapes = (
{
closed = 1;
nodes = (
(300,1400,l),
(300,1500,l),
(200,1500,l),
(200,1400,l)
);
},
{
closed = 1;
nodes = (
(400,1500,l),
(400,1600,l),
(300,1600,l),
(300,1500,l)
);
},
{
closed = 1;
nodes = (
(500,1600,l),
(500,1700,l),
(400,1700,l),
(400,1600,l)
);
},
{
closed = 1;
nodes = (
(600,1700,l),
(600,1800,l),
(500,1800,l),
(500,1700,l)
);
}
);
width = 800;
}
);
unicode = 180;
},
{
glyphname = dieresis;
lastChange = "2024-07-24 17:41:32 +0000";
layers = (
{
layerId = m01;
shapes = (
{
closed = 1;
nodes = (
(700,1700,l),
(700,1800,l),
(600,1800,l),
(600,1700,l)
);
},
{
closed = 1;
nodes = (
(300,1700,l),
(300,1800,l),
(200,1800,l),
(200,1700,l)
);
}
);
width = 1000;
}
);
unicode = 168;
},
{
glyphname = notequal;
lastChange = "2024-07-24 17:41:36 +0000";
layers = (
{
layerId = m01;
shapes = (
{
closed = 1;
nodes = (
(400,500,l),
(400,600,l),
(300,600,l),
(300,500,l)
);
},
{
closed = 1;
nodes = (
(500,600,l),
(500,700,l),
(1400,700,l),
(1400,800,l),
(700,800,l),
(700,900,l),
(600,900,l),
(600,800,l),
(100,800,l),
(100,700,l),
(400,700,l),
(400,600,l)
);
},
{
closed = 1;
nodes = (
(800,900,l),
(800,1000,l),
(700,1000,l),
(700,900,l)
);
},
{
closed = 1;
nodes = (
(900,1000,l),
(900,1100,l),
(1400,1100,l),
(1400,1200,l),
(1100,1200,l),
(1100,1300,l),
(1000,1300,l),
(1000,1200,l),
(100,1200,l),
(100,1100,l),
(800,1100,l),
(800,1000,l)
);
},
{
closed = 1;
nodes = (
(1200,1300,l),
(1200,1400,l),
(1100,1400,l),
(1100,1300,l)
);
}
);
width = 1600;
}
);
unicode = 8800;
},
{
glyphname = AE;
lastChange = "2024-07-24 17:41:40 +0000";
layers = (
{
layerId = m01;
shapes = (
{
closed = 1;
nodes = (
(400,0,l),
(400,200,l),
(300,200,l),
(300,0,l)
);
},
{
closed = 1;
nodes = (
(500,200,l),
(500,400,l),
(400,400,l),
(400,200,l)
);
},
{
closed = 1;
nodes = (
(600,400,l),
(600,600,l),
(500,600,l),
(500,400,l)
);
},
{
closed = 1;
nodes = (
(700,600,l),
(700,800,l),
(600,800,l),
(600,600,l)
);
},
{
closed = 1;
nodes = (
(800,800,l),
(800,900,l),
(1200,900,l),
(1200,0,l),
(2200,0,l),
(2200,100,l),
(1300,100,l),
(1300,900,l),
(2000,900,l),
(2000,1000,l),
(1300,1000,l),
(1300,1700,l),
(2200,1700,l),
(2200,1800,l),
(1100,1800,l),
(1100,1600,l),
(1200,1600,l),
(1200,1000,l),
(900,1000,l),
(900,1200,l),
(800,1200,l),
(800,1000,l),
(700,1000,l),
(700,800,l)
);
},
{
closed = 1;
nodes = (
(1000,1200,l),
(1000,1400,l),
(900,1400,l),
(900,1200,l)
);
},
{
closed = 1;
nodes = (
(1100,1400,l),
(1100,1600,l),
(1000,1600,l),
(1000,1400,l)
);
}
);
width = 2400;
}
);
unicode = 198;
},
{
glyphname = Oslash;
lastChange = "2024-07-24 17:29:08 +0000";
layers = (
{
layerId = m01;
shapes = (
{
closed = 1;
nodes = (
(300,200,l),
(400,200,l),
(400,400,l),
(300,400,l)
);
},
{
closed = 1;
nodes = (
(200,200,l),
(200,0,l),
(300,0,l),
(300,200,l)
);
},
{
closed = 1;
nodes = (
(600,100,l),
(600,200,l),
(400,200,l),
(400,100,l)
);
},
{
closed = 1;
nodes = (
(1000,0,l),
(1000,100,l),
(600,100,l),
(600,0,l)
);
},
{
closed = 1;
nodes = (
(1200,100,l),
(1200,200,l),
(1000,200,l),
(1000,100,l)
);
},
{
closed = 1;
nodes = (
(1300,200,l),
(1300,400,l),
(1200,400,l),
(1200,200,l)
);
},
{
closed = 1;
nodes = (
(1300,400,l),
(1400,400,l),
(1400,1400,l),
(1300,1400,l)
);
},
{
closed = 1;
nodes = (
(1100,1400,l),
(1100,1300,l),
(1200,1300,l),
(1200,1400,l)
);
},
{
closed = 1;
nodes = (
(1300,1400,l),
(1300,1600,l),
(1200,1600,l),
(1200,1400,l)
);
},
{
closed = 1;
nodes = (
(1200,1600,l),
(1200,1700,l),
(1000,1700,l),
(1000,1600,l)
);
},
{
closed = 1;
nodes = (
(1000,1700,l),
(1000,1800,l),
(600,1800,l),
(600,1700,l)
);
},
{
closed = 1;
nodes = (
(400,1700,l),
(400,1600,l),
(600,1600,l),
(600,1700,l)
);
},
{
closed = 1;
nodes = (
(300,1600,l),
(300,1400,l),
(400,1400,l),
(400,1600,l)
);
},
{
closed = 1;
nodes = (
(200,1400,l),
(200,400,l),
(300,400,l),
(300,1400,l)
);
},
{
closed = 1;
nodes = (
(500,400,l),
(500,500,l),
(400,500,l),
(400,400,l)
);
},
{
closed = 1;
nodes = (
(600,500,l),
(600,700,l),
(500,700,l),
(500,500,l)
);
},
{
closed = 1;
nodes = (
(700,700,l),
(700,800,l),
(600,800,l),
(600,700,l)
);
},
{
closed = 1;
nodes = (
(800,800,l),
(800,900,l),
(700,900,l),
(700,800,l)
);
},
{
closed = 1;
nodes = (
(900,900,l),
(900,1000,l),
(800,1000,l),
(800,900,l)
);
},
{
closed = 1;
nodes = (
(1000,1000,l),
(1000,1100,l),
(900,1100,l),
(900,1000,l)
);
},
{
closed = 1;
nodes = (
(1100,1100,l),
(1100,1300,l),
(1000,1300,l),
(1000,1100,l)
);
},
{
closed = 1;
nodes = (
(1400,1600,l),
(1400,1800,l),
(1300,1800,l),
(1300,1600,l)
);
}
);
width = 1600;
}
);
unicode = 216;
},
{
glyphname = infinity;
lastChange = "2024-07-24 17:41:46 +0000";
layers = (
{
layerId = m01;
shapes = (
{
closed = 1;
nodes = (
(700,400,l),
(700,500,l),
(300,500,l),
(300,400,l)
);
},
{
closed = 1;
nodes = (
(300,500,l),
(300,600,l),
(200,600,l),
(200,500,l)
);
},
{
closed = 1;
nodes = (
(200,600,l),
(200,900,l),
(100,900,l),
(100,600,l)
);
},
{
closed = 1;
nodes = (
(300,900,l),
(300,1000,l),
(200,1000,l),
(200,900,l)
);
},
{
closed = 1;
nodes = (
(700,1000,l),
(700,1100,l),
(300,1100,l),
(300,1000,l)
);
},
{
closed = 1;
nodes = (
(900,900,l),
(900,1000,l),
(700,1000,l),
(700,900,l)
);
},
{
closed = 1;
nodes = (
(1000,800,l),
(1000,900,l),
(900,900,l),
(900,800,l)
);
},
{
closed = 1;
nodes = (
(900,700,l),
(900,600,l),
(1000,600,l),
(1000,700,l)
);
},
{
closed = 1;
nodes = (
(1100,700,l),
(1100,800,l),
(1000,800,l),
(1000,700,l)
);
},
{
closed = 1;
nodes = (
(1200,600,l),
(1200,700,l),
(1100,700,l),
(1100,600,l)
);
},
{
closed = 1;
nodes = (
(1200,800,l),
(1200,900,l),
(1100,900,l),
(1100,800,l)
);
},
{
closed = 1;
nodes = (
(700,600,l),
(700,500,l),
(900,500,l),
(900,600,l)
);
},
{
closed = 1;
nodes = (
(1400,900,l),
(1400,1000,l),
(1200,1000,l),
(1200,900,l)
);
},
{
closed = 1;
nodes = (
(1800,1000,l),
(1800,1100,l),
(1400,1100,l),
(1400,1000,l)
);
},
{
closed = 1;
nodes = (
(1800,400,l),
(1800,500,l),
(1400,500,l),
(1400,400,l)
);
},
{
closed = 1;
nodes = (
(1400,500,l),
(1400,600,l),
(1200,600,l),
(1200,500,l)
);
},
{
closed = 1;
nodes = (
(1900,500,l),
(1900,600,l),
(1800,600,l),
(1800,500,l)
);
},
{
closed = 1;
nodes = (
(1900,600,l),
(2000,600,l),
(2000,900,l),
(1900,900,l)
);
},
{
closed = 1;
nodes = (
(1900,900,l),
(1900,1000,l),
(1800,1000,l),
(1800,900,l)
);
}
);
width = 2200;
}
);
unicode = 8734;
},
{
glyphname = plusminus;
lastChange = "2024-07-24 17:41:50 +0000";
layers = (
{
layerId = m01;
shapes = (
{
closed = 1;
nodes = (
(1100,100,l),
(1100,200,l),
(200,200,l),
(200,100,l)
);
},
{
closed = 1;
nodes = (
(700,500,l),
(700,900,l),
(1100,900,l),
(1100,1000,l),
(700,1000,l),
(700,1400,l),
(600,1400,l),
(600,1000,l),
(200,1000,l),
(200,900,l),
(600,900,l),
(600,500,l)
);
}
);
width = 1400;
}
);
unicode = 177;
},
{
glyphname = lessequal;
lastChange = "2024-07-24 17:29:08 +0000";
layers = (
{
layerId = m01;
shapes = (
{
closed = 1;
nodes = (
(1000,0,l),
(1000,100,l),
(200,100,l),
(200,0,l)
);
},
{
closed = 1;
nodes = (
(900,200,l),
(900,300,l),
(800,300,l),
(800,200,l)
);
},
{
closed = 1;
nodes = (
(800,300,l),
(800,400,l),
(700,400,l),
(700,300,l)
);
},
{
closed = 1;
nodes = (
(700,400,l),
(700,500,l),
(600,500,l),
(600,400,l)
);
},
{
closed = 1;
nodes = (
(600,500,l),
(600,600,l),
(500,600,l),
(500,500,l)
);
},
{
closed = 1;
nodes = (
(500,600,l),
(500,700,l),
(400,700,l),
(400,600,l)
);
},
{
closed = 1;
nodes = (
(400,700,l),
(400,800,l),
(300,800,l),
(300,700,l)
);
},
{
closed = 1;
nodes = (
(300,800,l),
(300,900,l),
(200,900,l),
(200,800,l)
);
},
{
closed = 1;
nodes = (
(400,900,l),
(400,1000,l),
(300,1000,l),
(300,900,l)
);
},
{
closed = 1;
nodes = (
(500,1000,l),
(500,1100,l),
(400,1100,l),
(400,1000,l)
);
},
{
closed = 1;
nodes = (
(600,1100,l),
(600,1200,l),
(500,1200,l),
(500,1100,l)
);
},
{
closed = 1;
nodes = (
(700,1200,l),
(700,1300,l),
(600,1300,l),
(600,1200,l)
);
},
{
closed = 1;
nodes = (
(800,1300,l),
(800,1400,l),
(700,1400,l),
(700,1300,l)
);
},
{
closed = 1;
nodes = (
(900,1400,l),
(900,1500,l),
(800,1500,l),
(800,1400,l)
);
}
);
width = 1200;
}
);
unicode = 8804;
},
{
glyphname = greaterequal;
lastChange = "2024-07-24 17:29:08 +0000";
layers = (
{
layerId = m01;
shapes = (
{
closed = 1;
nodes = (
(1000,0,l),
(1000,100,l),
(200,100,l),
(200,0,l)
);
},
{
closed = 1;
nodes = (
(400,200,l),
(400,300,l),
(300,300,l),
(300,200,l)
);
},
{
closed = 1;
nodes = (
(500,300,l),
(500,400,l),
(400,400,l),
(400,300,l)
);
},
{
closed = 1;
nodes = (
(600,400,l),
(600,500,l),
(500,500,l),
(500,400,l)
);
},
{
closed = 1;
nodes = (
(700,500,l),
(700,600,l),
(600,600,l),
(600,500,l)
);
},
{
closed = 1;
nodes = (
(800,600,l),
(800,700,l),
(700,700,l),
(700,600,l)
);
},
{
closed = 1;
nodes = (
(900,700,l),
(900,800,l),
(800,800,l),
(800,700,l)
);
},
{
closed = 1;
nodes = (
(1000,800,l),
(1000,900,l),
(900,900,l),
(900,800,l)
);
},
{
closed = 1;
nodes = (
(900,900,l),
(900,1000,l),
(800,1000,l),
(800,900,l)
);
},
{
closed = 1;
nodes = (
(800,1000,l),
(800,1100,l),
(700,1100,l),
(700,1000,l)
);
},
{
closed = 1;
nodes = (
(700,1100,l),
(700,1200,l),
(600,1200,l),
(600,1100,l)
);
},
{
closed = 1;
nodes = (
(600,1200,l),
(600,1300,l),
(500,1300,l),
(500,1200,l)
);
},
{
closed = 1;
nodes = (
(500,1300,l),
(500,1400,l),
(400,1400,l),
(400,1300,l)
);
},
{
closed = 1;
nodes = (
(400,1400,l),
(400,1500,l),
(300,1500,l),
(300,1400,l)
);
}
);
width = 1200;
}
);
unicode = 8805;
},
{
glyphname = yen;
lastChange = "2024-07-24 17:41:59 +0000";
layers = (
{
layerId = m01;
shapes = (
{
closed = 1;
nodes = (
(700,0,l),
(700,800,l),
(1100,800,l),
(1100,900,l),
(700,900,l),
(700,1300,l),
(600,1300,l),
(600,900,l),
(200,900,l),
(200,800,l),
(600,800,l),
(600,0,l)
);
},
{
closed = 1;
nodes = (
(1100,1300,l),
(1100,1400,l),
(900,1400,l),
(900,1500,l),
(800,1500,l),
(800,1400,l),
(700,1400,l),
(700,1300,l)
);
},
{
closed = 1;
nodes = (
(1000,1500,l),
(1000,1600,l),
(900,1600,l),
(900,1500,l)
);
},
{
closed = 1;
nodes = (
(1100,1600,l),
(1100,1700,l),
(1000,1700,l),
(1000,1600,l)
);
},
{
closed = 1;
nodes = (
(1200,1700,l),
(1200,1800,l),
(1100,1800,l),
(1100,1700,l)
);
},
{
closed = 1;
nodes = (
(600,1300,l),
(600,1400,l),
(500,1400,l),
(500,1500,l),
(400,1500,l),
(400,1400,l),
(200,1400,l),
(200,1300,l)
);
},
{
closed = 1;
nodes = (
(400,1500,l),
(400,1600,l),
(300,1600,l),
(300,1500,l)
);
},
{
closed = 1;
nodes = (
(300,1600,l),
(300,1700,l),
(200,1700,l),
(200,1600,l)
);
},
{
closed = 1;
nodes = (
(200,1700,l),
(200,1800,l),
(100,1800,l),
(100,1700,l)
);
}
);
width = 1400;
}
);
unicode = 165;
},
{
glyphname = micro;
lastChange = "2024-07-24 17:42:04 +0000";
layers = (
{
layerId = m01;
shapes = (
{
closed = 1;
nodes = (
(300,-300,l),
(300,-400,l),
(400,-400,l),
(400,-300,l)
);
},
{
closed = 1;
nodes = (
(500,-300,l),
(500,200,l),
(600,200,l),
(600,300,l),
(500,300,l),
(500,1400,l),
(400,1400,l),
(400,-300,l)
);
},
{
closed = 1;
nodes = (
(700,100,l),
(700,200,l),
(600,200,l),
(600,100,l)
);
},
{
closed = 1;
nodes = (
(1100,0,l),
(1100,100,l),
(700,100,l),
(700,0,l)
);
},
{
closed = 1;
nodes = (
(1200,100,l),
(1200,200,l),
(1100,200,l),
(1100,100,l)
);
},
{
closed = 1;
nodes = (
(1300,200,l),
(1300,1400,l),
(1200,1400,l),
(1200,200,l)
);
},
{
closed = 1;
nodes = (
(1400,100,l),
(1400,200,l),
(1300,200,l),
(1300,100,l)
);
},
{
closed = 1;
nodes = (
(1600,0,l),
(1600,100,l),
(1400,100,l),
(1400,0,l)
);
}
);
width = 1800;
}
);
unicode = 181;
},
{
glyphname = partialdiff;
lastChange = "2024-07-24 17:29:08 +0000";
layers = (
{
layerId = m01;
shapes = (
{
closed = 1;
nodes = (
(400,100,l),
(400,200,l),
(300,200,l),
(300,100,l)
);
},
{
closed = 1;
nodes = (
(300,200,l),
(300,600,l),
(200,600,l),
(200,200,l)
);
},
{
closed = 1;
nodes = (
(400,600,l),
(400,800,l),
(300,800,l),
(300,600,l)
);
},
{
closed = 1;
nodes = (
(500,800,l),
(500,900,l),
(400,900,l),
(400,800,l)
);
},
{
closed = 1;
nodes = (
(700,900,l),
(700,1000,l),
(500,1000,l),
(500,900,l)
);
},
{
closed = 1;
nodes = (
(1100,1000,l),
(1100,500,l),
(1200,500,l),
(1200,1200,l),
(1100,1200,l),
(1100,1100,l),
(700,1100,l),
(700,1000,l)
);
},
{
closed = 1;
nodes = (
(1000,500,l),
(1000,300,l),
(1100,300,l),
(1100,500,l)
);
},
{
closed = 1;
nodes = (
(900,300,l),
(900,200,l),
(1000,200,l),
(1000,300,l)
);
},
{
closed = 1;
nodes = (
(800,200,l),
(800,100,l),
(900,100,l),
(900,200,l)
);
},
{
closed = 1;
nodes = (
(400,100,l),
(400,0,l),
(800,0,l),
(800,100,l)
);
},
{
closed = 1;
nodes = (
(1100,1200,l),
(1100,1400,l),
(1000,1400,l),
(1000,1200,l)
);
},
{
closed = 1;
nodes = (
(1000,1400,l),
(1000,1500,l),
(900,1500,l),
(900,1400,l)
);
},
{
closed = 1;
nodes = (
(900,1500,l),
(900,1600,l),
(700,1600,l),
(700,1500,l)
);
},
{
closed = 1;
nodes = (
(700,1600,l),
(700,1700,l),
(400,1700,l),
(400,1600,l)
);
}
);
width = 1400;
}
);
unicode = 8706;
},
{
glyphname = summation;
lastChange = "2024-07-24 17:29:08 +0000";
layers = (
{
layerId = m01;
shapes = (
{
closed = 1;
nodes = (
(1400,0,l),
(1400,200,l),
(1300,200,l),
(1300,100,l),
(400,100,l),
(400,200,l),
(300,200,l),
(300,100,l),
(200,100,l),
(200,0,l)
);
},
{
closed = 1;
nodes = (
(1400,1600,l),
(1400,1800,l),
(200,1800,l),
(200,1700,l),
(300,1700,l),
(300,1600,l),
(400,1600,l),
(400,1700,l),
(1300,1700,l),
(1300,1600,l)
);
},
{
closed = 1;
nodes = (
(500,1500,l),
(500,1600,l),
(400,1600,l),
(400,1500,l)
);
},
{
closed = 1;
nodes = (
(600,1400,l),
(600,1500,l),
(500,1500,l),
(500,1400,l)
);
},
{
closed = 1;
nodes = (
(700,1300,l),
(700,1400,l),
(600,1400,l),
(600,1300,l)
);
},
{
closed = 1;
nodes = (
(800,1200,l),
(800,1300,l),
(700,1300,l),
(700,1200,l)
);
},
{
closed = 1;
nodes = (
(900,1100,l),
(900,1200,l),
(800,1200,l),
(800,1100,l)
);
},
{
closed = 1;
nodes = (
(1000,1000,l),
(1000,1100,l),
(900,1100,l),
(900,1000,l)
);
},
{
closed = 1;
nodes = (
(1000,800,l),
(1100,800,l),
(1100,1000,l),
(1000,1000,l)
);
},
{
closed = 1;
nodes = (
(900,800,l),
(900,700,l),
(1000,700,l),
(1000,800,l)
);
},
{
closed = 1;
nodes = (
(800,700,l),
(800,600,l),
(900,600,l),
(900,700,l)
);
},
{
closed = 1;
nodes = (
(700,600,l),
(700,500,l),
(800,500,l),
(800,600,l)
);
},
{
closed = 1;
nodes = (
(600,500,l),
(600,400,l),
(700,400,l),
(700,500,l)
);
},
{
closed = 1;
nodes = (
(500,400,l),
(500,300,l),
(600,300,l),
(600,400,l)
);
},
{
closed = 1;
nodes = (
(400,300,l),
(400,200,l),
(500,200,l),
(500,300,l)
);
}
);
width = 1600;
}
);
unicode = 8721;
},
{
glyphname = product;
lastChange = "2024-07-24 17:29:08 +0000";
layers = (
{
layerId = m01;
shapes = (
{
closed = 1;
nodes = (
(500,0,l),
(500,1700,l),
(1300,1700,l),
(1300,0,l),
(1400,0,l),
(1400,1700,l),
(1600,1700,l),
(1600,1800,l),
(200,1800,l),
(200,1700,l),
(400,1700,l),
(400,0,l)
);
}
);
width = 1800;
}
);
unicode = 8719;
},
{
glyphname = pi;
lastChange = "2024-07-24 17:42:11 +0000";
layers = (
{
layerId = m01;
shapes = (
{
closed = 1;
nodes = (
(300,1100,l),
(300,1200,l),
(200,1200,l),
(200,1100,l)
);
},
{
closed = 1;
nodes = (
(400,1200,l),
(400,1300,l),
(300,1300,l),
(300,1200,l)
);
},
{
closed = 1;
nodes = (
(600,1300,l),
(600,100,l),
(700,100,l),
(700,1300,l),
(1400,1300,l),
(1400,100,l),
(1500,100,l),
(1500,1300,l),
(1600,1300,l),
(1600,1400,l),
(400,1400,l),
(400,1300,l)
);
},
{
closed = 1;
nodes = (
(500,100,l),
(500,0,l),
(600,0,l),
(600,100,l)
);
},
{
closed = 1;
nodes = (
(1300,100,l),
(1300,0,l),
(1400,0,l),
(1400,100,l)
);
},
{
closed = 1;
nodes = (
(1700,1400,l),
(1700,1500,l),
(1600,1500,l),
(1600,1400,l)
);
}
);
width = 2000;
}
);
unicode = 960;
},
{
glyphname = integral;
lastChange = "2024-07-24 17:42:15 +0000";
layers = (
{
layerId = m01;
shapes = (
{
closed = 1;
nodes = (
(300,-600,l),
(300,-500,l),
(100,-500,l),
(100,-600,l)
);
},
{
closed = 1;
nodes = (
(400,-500,l),
(400,-400,l),
(300,-400,l),
(300,-500,l)
);
},
{
closed = 1;
nodes = (
(500,-400,l),
(500,1900,l),
(400,1900,l),
(400,-400,l)
);
},
{
closed = 1;
nodes = (
(600,1900,l),
(600,2000,l),
(500,2000,l),
(500,1900,l)
);
},
{
closed = 1;
nodes = (
(800,2000,l),
(800,2100,l),
(600,2100,l),
(600,2000,l)
);
}
);
width = 1000;
}
);
unicode = 8747;
},
{
glyphname = ordfeminine;
lastChange = "2024-07-24 17:42:17 +0000";
layers = (
{
layerId = m01;
shapes = (
{
closed = 1;
nodes = (
(300,1500,l),
(300,1600,l),
(200,1600,l),
(200,1500,l)
);
},
{
closed = 1;
nodes = (
(400,1600,l),
(400,1700,l),
(300,1700,l),
(300,1600,l)
);
},
{
closed = 1;
nodes = (
(800,1700,l),
(800,1800,l),
(400,1800,l),
(400,1700,l)
);
},
{
closed = 1;
nodes = (
(800,1500,l),
(600,1500,l),
(600,1400,l),
(800,1400,l),
(800,1100,l),
(700,1100,l),
(700,1000,l),
(800,1000,l),
(800,800,l),
(900,800,l),
(900,1700,l),
(800,1700,l)
);
},
{
closed = 1;
nodes = (
(400,1400,l),
(400,1300,l),
(600,1300,l),
(600,1400,l)
);
},
{
closed = 1;
nodes = (
(300,1300,l),
(300,1200,l),
(400,1200,l),
(400,1300,l)
);
},
{
closed = 1;
nodes = (
(200,1200,l),
(200,900,l),
(300,900,l),
(300,1200,l)
);
},
{
closed = 1;
nodes = (
(600,800,l),
(600,900,l),
(300,900,l),
(300,800,l)
);
},
{
closed = 1;
nodes = (
(700,900,l),
(700,1000,l),
(600,1000,l),
(600,900,l)
);
},
{
closed = 1;
nodes = (
(900,500,l),
(900,600,l),
(200,600,l),
(200,500,l)
);
}
);
width = 1200;
}
);
unicode = 170;
},
{
glyphname = ordmasculine;
lastChange = "2024-07-24 17:42:20 +0000";
layers = (
{
layerId = m01;
shapes = (
{
closed = 1;
nodes = (
(300,1700,l),
(300,1600,l),
(400,1600,l),
(400,1700,l)
);
},
{
closed = 1;
nodes = (
(700,1700,l),
(700,1800,l),
(400,1800,l),
(400,1700,l)
);
},
{
closed = 1;
nodes = (
(800,1600,l),
(800,1700,l),
(700,1700,l),
(700,1600,l)
);
},
{
closed = 1;
nodes = (
(200,1600,l),
(200,1000,l),
(300,1000,l),
(300,1600,l)
);
},
{
closed = 1;
nodes = (
(400,900,l),
(400,1000,l),
(300,1000,l),
(300,900,l)
);
},
{
closed = 1;
nodes = (
(700,800,l),
(700,900,l),
(400,900,l),
(400,800,l)
);
},
{
closed = 1;
nodes = (
(800,900,l),
(800,1000,l),
(700,1000,l),
(700,900,l)
);
},
{
closed = 1;
nodes = (
(900,1000,l),
(900,1600,l),
(800,1600,l),
(800,1000,l)
);
},
{
closed = 1;
nodes = (
(900,500,l),
(900,600,l),
(200,600,l),
(200,500,l)
);
}
);
width = 1200;
}
);
unicode = 186;
},
{
glyphname = Omega;
lastChange = "2024-07-24 17:42:26 +0000";
layers = (
{
layerId = m01;
shapes = (
{
closed = 1;
nodes = (
(800,0,l),
(800,200,l),
(700,200,l),
(700,100,l),
(500,100,l),
(500,0,l)
);
},
{
closed = 1;
nodes = (
(700,200,l),
(700,300,l),
(600,300,l),
(600,200,l)
);
},
{
closed = 1;
nodes = (
(600,300,l),
(600,500,l),
(500,500,l),
(500,300,l)
);
},
{
closed = 1;
nodes = (
(500,500,l),
(500,700,l),
(400,700,l),
(400,500,l)
);
},
{
closed = 1;
nodes = (
(400,700,l),
(400,1400,l),
(300,1400,l),
(300,700,l)
);
},
{
closed = 1;
nodes = (
(500,1400,l),
(500,1600,l),
(400,1600,l),
(400,1400,l)
);
},
{
closed = 1;
nodes = (
(700,1600,l),
(700,1700,l),
(500,1700,l),
(500,1600,l)
);
},
{
closed = 1;
nodes = (
(1300,1700,l),
(1300,1800,l),
(700,1800,l),
(700,1700,l)
);
},
{
closed = 1;
nodes = (
(1500,1600,l),
(1500,1700,l),
(1300,1700,l),
(1300,1600,l)
);
},
{
closed = 1;
nodes = (
(1500,1400,l),
(1600,1400,l),
(1600,1600,l),
(1500,1600,l)
);
},
{
closed = 1;
nodes = (
(1600,700,l),
(1700,700,l),
(1700,1400,l),
(1600,1400,l)
);
},
{
closed = 1;
nodes = (
(1500,700,l),
(1500,500,l),
(1600,500,l),
(1600,700,l)
);
},
{
closed = 1;
nodes = (
(1400,500,l),
(1400,300,l),
(1500,300,l),
(1500,500,l)
);
},
{
closed = 1;
nodes = (
(1300,300,l),
(1300,200,l),
(1400,200,l),
(1400,300,l)
);
},
{
closed = 1;
nodes = (
(1200,200,l),
(1200,0,l),
(1500,0,l),
(1500,100,l),
(1300,100,l),
(1300,200,l)
);
}
);
width = 2000;
}
);
unicode = 937;
},
{
glyphname = ae;
lastChange = "2024-07-24 17:42:30 +0000";
layers = (
{
layerId = m01;
shapes = (
{
closed = 1;
nodes = (
(300,100,l),
(300,200,l),
(200,200,l),
(200,100,l)
);
},
{
closed = 1;
nodes = (
(200,200,l),
(200,500,l),
(100,500,l),
(100,200,l)
);
},
{
closed = 1;
nodes = (
(300,500,l),
(300,600,l),
(200,600,l),
(200,500,l)
);
},
{
closed = 1;
nodes = (
(500,600,l),
(500,700,l),
(300,700,l),
(300,600,l)
);
},
{
closed = 1;
nodes = (
(700,700,l),
(700,800,l),
(500,800,l),
(500,700,l)
);
},
{
closed = 1;
nodes = (
(900,800,l),
(900,900,l),
(700,900,l),
(700,800,l)
);
},
{
closed = 1;
nodes = (
(1000,900,l),
(1000,300,l),
(900,300,l),
(900,200,l),
(1000,200,l),
(1000,0,l),
(1100,0,l),
(1100,200,l),
(1200,200,l),
(1200,300,l),
(1100,300,l),
(1100,700,l),
(2000,700,l),
(2000,1000,l),
(1900,1000,l),
(1900,800,l),
(1100,800,l),
(1100,1100,l),
(1200,1100,l),
(1200,1200,l),
(1000,1200,l),
(1000,1000,l),
(900,1000,l),
(900,900,l)
);
},
{
closed = 1;
nodes = (
(700,200,l),
(700,100,l),
(900,100,l),
(900,200,l)
);
},
{
closed = 1;
nodes = (
(300,100,l),
(300,0,l),
(700,0,l),
(700,100,l)
);
},
{
closed = 1;
nodes = (
(1000,1200,l),
(1000,1300,l),
(900,1300,l),
(900,1200,l)
);
},
{
closed = 1;
nodes = (
(900,1300,l),
(900,1400,l),
(400,1400,l),
(400,1300,l)
);
},
{
closed = 1;
nodes = (
(200,1300,l),
(200,1200,l),
(400,1200,l),
(400,1300,l)
);
},
{
closed = 1;
nodes = (
(100,1200,l),
(100,1100,l),
(200,1100,l),
(200,1200,l)
);
},
{
closed = 1;
nodes = (
(1300,1200,l),
(1300,1300,l),
(1200,1300,l),
(1200,1200,l)
);
},
{
closed = 1;
nodes = (
(1700,1300,l),
(1700,1400,l),
(1300,1400,l),
(1300,1300,l)
);
},
{
closed = 1;
nodes = (
(1800,1200,l),
(1800,1300,l),
(1700,1300,l),
(1700,1200,l)
);
},
{
closed = 1;
nodes = (
(1800,1000,l),
(1900,1000,l),
(1900,1200,l),
(1800,1200,l)
);
},
{
closed = 1;
nodes = (
(1300,100,l),
(1300,200,l),
(1200,200,l),
(1200,100,l)
);
},
{
closed = 1;
nodes = (
(1700,0,l),
(1700,100,l),
(1300,100,l),
(1300,0,l)
);
},
{
closed = 1;
nodes = (
(1800,100,l),
(1800,200,l),
(1700,200,l),
(1700,100,l)
);
},
{
closed = 1;
nodes = (
(1900,200,l),
(1900,300,l),
(1800,300,l),
(1800,200,l)
);
}
);
width = 2200;
}
);
unicode = 230;
},
{
glyphname = oslash;
lastChange = "2024-07-24 17:29:08 +0000";
layers = (
{
layerId = m01;
shapes = (
{
closed = 1;
nodes = (
(300,400,l),
(300,1000,l),
(200,1000,l),
(200,400,l)
);
},
{
closed = 1;
nodes = (
(300,1000,l),
(400,1000,l),
(400,1200,l),
(300,1200,l)
);
},
{
closed = 1;
nodes = (
(500,1200,l),
(500,1300,l),
(400,1300,l),
(400,1200,l)
);
},
{
closed = 1;
nodes = (
(900,1300,l),
(900,1400,l),
(500,1400,l),
(500,1300,l)
);
},
{
closed = 1;
nodes = (
(1000,1200,l),
(1000,1300,l),
(900,1300,l),
(900,1200,l)
);
},
{
closed = 1;
nodes = (
(1000,1000,l),
(1100,1000,l),
(1100,1200,l),
(1000,1200,l)
);
},
{
closed = 1;
nodes = (
(900,1000,l),
(900,900,l),
(1000,900,l),
(1000,1000,l)
);
},
{
closed = 1;
nodes = (
(1100,400,l),
(1200,400,l),
(1200,1000,l),
(1100,1000,l)
);
},
{
closed = 1;
nodes = (
(1000,400,l),
(1000,200,l),
(1100,200,l),
(1100,400,l)
);
},
{
closed = 1;
nodes = (
(900,200,l),
(900,100,l),
(1000,100,l),
(1000,200,l)
);
},
{
closed = 1;
nodes = (
(500,100,l),
(500,0,l),
(900,0,l),
(900,100,l)
);
},
{
closed = 1;
nodes = (
(500,100,l),
(500,200,l),
(400,200,l),
(400,100,l)
);
},
{
closed = 1;
nodes = (
(200,200,l),
(200,0,l),
(300,0,l),
(300,200,l)
);
},
{
closed = 1;
nodes = (
(400,200,l),
(400,400,l),
(300,400,l),
(300,200,l)
);
},
{
closed = 1;
nodes = (
(1200,1200,l),
(1200,1400,l),
(1100,1400,l),
(1100,1200,l)
);
},
{
closed = 1;
nodes = (
(800,900,l),
(800,800,l),
(900,800,l),
(900,900,l)
);
},
{
closed = 1;
nodes = (
(700,800,l),
(700,700,l),
(800,700,l),
(800,800,l)
);
},
{
closed = 1;
nodes = (
(600,700,l),
(600,600,l),
(700,600,l),
(700,700,l)
);
},
{
closed = 1;
nodes = (
(500,600,l),
(500,500,l),
(600,500,l),
(600,600,l)
);
},
{
closed = 1;
nodes = (
(400,500,l),
(400,400,l),
(500,400,l),
(500,500,l)
);
}
);
width = 1400;
}
);
unicode = 248;
},
{
glyphname = questiondown;
lastChange = "2024-07-24 17:42:35 +0000";
layers = (
{
layerId = m01;
shapes = (
{
closed = 1;
nodes = (
(300,200,l),
(300,600,l),
(200,600,l),
(200,200,l)
);
},
{
closed = 1;
nodes = (
(400,100,l),
(400,200,l),
(300,200,l),
(300,100,l)
);
},
{
closed = 1;
nodes = (
(1000,0,l),
(1000,100,l),
(400,100,l),
(400,0,l)
);
},
{
closed = 1;
nodes = (
(1100,100,l),
(1100,200,l),
(1000,200,l),
(1000,100,l)
);
},
{
closed = 1;
nodes = (
(1200,200,l),
(1200,300,l),
(1100,300,l),
(1100,200,l)
);
},
{
closed = 1;
nodes = (
(1300,300,l),
(1300,500,l),
(1200,500,l),
(1200,300,l)
);
},
{
closed = 1;
nodes = (
(400,600,l),
(400,700,l),
(300,700,l),
(300,600,l)
);
},
{
closed = 1;
nodes = (
(500,700,l),
(500,800,l),
(400,800,l),
(400,700,l)
);
},
{
closed = 1;
nodes = (
(600,800,l),
(600,900,l),
(500,900,l),
(500,800,l)
);
},
{
closed = 1;
nodes = (
(700,900,l),
(700,1100,l),
(600,1100,l),
(600,900,l)
);
},
{
closed = 1;
nodes = (
(800,1100,l),
(800,1400,l),
(700,1400,l),
(700,1100,l)
);
},
{
closed = 1;
nodes = (
(700,1600,l),
(800,1600,l),
(800,1800,l),
(700,1800,l)
);
}
);
width = 1600;
}
);
unicode = 191;
},
{
glyphname = exclamdown;
lastChange = "2024-07-24 17:42:40 +0000";
layers = (
{
layerId = m01;
shapes = (
{
closed = 1;
nodes = (
(400,1600,l),
(500,1600,l),
(500,1800,l),
(400,1800,l)
);
},
{
closed = 1;
nodes = (
(400,0,l),
(500,0,l),
(500,1400,l),
(400,1400,l)
);
}
);
width = 800;
}
);
unicode = 161;
},
{
glyphname = logicalnot;
lastChange = "2024-07-24 17:29:08 +0000";
layers = (
{
layerId = m01;
shapes = (
{
closed = 1;
nodes = (
(1100,900,l),
(1100,500,l),
(1200,500,l),
(1200,1000,l),
(200,1000,l),
(200,900,l)
);
}
);
width = 1400;
}
);
unicode = 172;
},
{
glyphname = radical;
lastChange = "2024-07-24 17:29:08 +0000";
layers = (
{
layerId = m01;
shapes = (
{
closed = 1;
nodes = (
(300,800,l),
(300,700,l),
(400,700,l),
(400,800,l)
);
},
{
closed = 1;
nodes = (
(500,800,l),
(500,700,l),
(600,700,l),
(600,900,l),
(400,900,l),
(400,800,l)
);
},
{
closed = 1;
nodes = (
(200,700,l),
(200,600,l),
(300,600,l),
(300,700,l)
);
},
{
closed = 1;
nodes = (
(600,500,l),
(700,500,l),
(700,700,l),
(600,700,l)
);
},
{
closed = 1;
nodes = (
(700,300,l),
(800,300,l),
(800,500,l),
(700,500,l)
);
},
{
closed = 1;
nodes = (
(800,0,l),
(900,0,l),
(900,300,l),
(800,300,l)
);
},
{
closed = 1;
nodes = (
(1000,300,l),
(1000,600,l),
(900,600,l),
(900,300,l)
);
},
{
closed = 1;
nodes = (
(1100,600,l),
(1100,900,l),
(1000,900,l),
(1000,600,l)
);
},
{
closed = 1;
nodes = (
(1200,900,l),
(1200,1200,l),
(1100,1200,l),
(1100,900,l)
);
},
{
closed = 1;
nodes = (
(1300,1200,l),
(1300,1500,l),
(1200,1500,l),
(1200,1200,l)
);
},
{
closed = 1;
nodes = (
(1400,1500,l),
(1400,1700,l),
(1700,1700,l),
(1700,1800,l),
(1300,1800,l),
(1300,1500,l)
);
}
);
width = 1900;
}
);
unicode = 8730;
},
{
glyphname = florin;
lastChange = "2024-07-24 17:42:46 +0000";
layers = (
{
layerId = m01;
shapes = (
{
closed = 1;
nodes = (
(300,-600,l),
(300,-500,l),
(100,-500,l),
(100,-600,l)
);
},
{
closed = 1;
nodes = (
(400,-500,l),
(400,-400,l),
(300,-400,l),
(300,-500,l)
);
},
{
closed = 1;
nodes = (
(500,-400,l),
(500,900,l),
(700,900,l),
(700,1000,l),
(500,1000,l),
(500,1900,l),
(400,1900,l),
(400,1000,l),
(200,1000,l),
(200,900,l),
(400,900,l),
(400,-400,l)
);
},
{
closed = 1;
nodes = (
(600,1900,l),
(600,2000,l),
(500,2000,l),
(500,1900,l)
);
},
{
closed = 1;
nodes = (
(800,2000,l),
(800,2100,l),
(600,2100,l),
(600,2000,l)
);
}
);
width = 1000;
}
);
unicode = 402;
},
{
glyphname = approxequal;
lastChange = "2024-07-24 17:42:50 +0000";
layers = (
{
layerId = m01;
shapes = (
{
closed = 1;
nodes = (
(200,1000,l),
(200,1100,l),
(100,1100,l),
(100,1000,l)
);
},
{
closed = 1;
nodes = (
(300,1100,l),
(300,1200,l),
(200,1200,l),
(200,1100,l)
);
},
{
closed = 1;
nodes = (
(700,1200,l),
(700,1300,l),
(300,1300,l),
(300,1200,l)
);
},
{
closed = 1;
nodes = (
(800,1100,l),
(800,1200,l),
(700,1200,l),
(700,1100,l)
);
},
{
closed = 1;
nodes = (
(1200,1000,l),
(1200,1100,l),
(800,1100,l),
(800,1000,l)
);
},
{
closed = 1;
nodes = (
(1300,1100,l),
(1300,1200,l),
(1200,1200,l),
(1200,1100,l)
);
},
{
closed = 1;
nodes = (
(1400,1200,l),
(1400,1300,l),
(1300,1300,l),
(1300,1200,l)
);
},
{
closed = 1;
nodes = (
(1200,700,l),
(1200,600,l),
(1300,600,l),
(1300,700,l)
);
},
{
closed = 1;
nodes = (
(1400,700,l),
(1400,800,l),
(1300,800,l),
(1300,700,l)
);
},
{
closed = 1;
nodes = (
(800,600,l),
(800,500,l),
(1200,500,l),
(1200,600,l)
);
},
{
closed = 1;
nodes = (
(800,600,l),
(800,700,l),
(700,700,l),
(700,600,l)
);
},
{
closed = 1;
nodes = (
(700,700,l),
(700,800,l),
(300,800,l),
(300,700,l)
);
},
{
closed = 1;
nodes = (
(200,700,l),
(200,600,l),
(300,600,l),
(300,700,l)
);
},
{
closed = 1;
nodes = (
(100,600,l),
(100,500,l),
(200,500,l),
(200,600,l)
);
}
);
width = 1600;
}
);
unicode = 8776;
},
{
glyphname = increment;
lastChange = "2024-07-24 17:42:54 +0000";
layers = (
{
layerId = m01;
shapes = (
{
closed = 1;
nodes = (
(1600,0,l),
(1600,100,l),
(1500,100,l),
(1500,300,l),
(1400,300,l),
(1400,100,l),
(300,100,l),
(300,300,l),
(200,300,l),
(200,100,l),
(100,100,l),
(100,0,l)
);
},
{
closed = 1;
nodes = (
(400,300,l),
(400,500,l),
(300,500,l),
(300,300,l)
);
},
{
closed = 1;
nodes = (
(500,500,l),
(500,700,l),
(400,700,l),
(400,500,l)
);
},
{
closed = 1;
nodes = (
(500,700,l),
(600,700,l),
(600,900,l),
(500,900,l)
);
},
{
closed = 1;
nodes = (
(700,900,l),
(700,1100,l),
(600,1100,l),
(600,900,l)
);
},
{
closed = 1;
nodes = (
(800,1100,l),
(800,1300,l),
(700,1300,l),
(700,1100,l)
);
},
{
closed = 1;
nodes = (
(900,1300,l),
(900,1500,l),
(800,1500,l),
(800,1300,l)
);
},
{
closed = 1;
nodes = (
(900,1100,l),
(1000,1100,l),
(1000,1300,l),
(900,1300,l)
);
},
{
closed = 1;
nodes = (
(1000,900,l),
(1100,900,l),
(1100,1100,l),
(1000,1100,l)
);
},
{
closed = 1;
nodes = (
(1100,700,l),
(1200,700,l),
(1200,900,l),
(1100,900,l)
);
},
{
closed = 1;
nodes = (
(1200,500,l),
(1300,500,l),
(1300,700,l),
(1200,700,l)
);
},
{
closed = 1;
nodes = (
(1300,300,l),
(1400,300,l),
(1400,500,l),
(1300,500,l)
);
}
);
width = 1800;
}
);
unicode = 8710;
},
{
glyphname = guillemetleft;
lastChange = "2024-07-24 17:43:02 +0000";
layers = (
{
layerId = m01;
shapes = (
{
closed = 1;
nodes = (
(800,0,l),
(800,100,l),
(700,100,l),
(700,0,l)
);
},
{
closed = 1;
nodes = (
(700,100,l),
(700,200,l),
(600,200,l),
(600,100,l)
);
},
{
closed = 1;
nodes = (
(600,200,l),
(600,300,l),
(500,300,l),
(500,200,l)
);
},
{
closed = 1;
nodes = (
(500,300,l),
(500,400,l),
(400,400,l),
(400,300,l)
);
},
{
closed = 1;
nodes = (
(400,400,l),
(400,500,l),
(300,500,l),
(300,400,l)
);
},
{
closed = 1;
nodes = (
(300,500,l),
(300,600,l),
(200,600,l),
(200,500,l)
);
},
{
closed = 1;
nodes = (
(200,600,l),
(200,700,l),
(100,700,l),
(100,600,l)
);
},
{
closed = 1;
nodes = (
(300,700,l),
(300,800,l),
(200,800,l),
(200,700,l)
);
},
{
closed = 1;
nodes = (
(400,800,l),
(400,900,l),
(300,900,l),
(300,800,l)
);
},
{
closed = 1;
nodes = (
(500,900,l),
(500,1000,l),
(400,1000,l),
(400,900,l)
);
},
{
closed = 1;
nodes = (
(600,1000,l),
(600,1100,l),
(500,1100,l),
(500,1000,l)
);
},
{
closed = 1;
nodes = (
(700,1100,l),
(700,1200,l),
(600,1200,l),
(600,1100,l)
);
},
{
closed = 1;
nodes = (
(800,1200,l),
(800,1300,l),
(700,1300,l),
(700,1200,l)
);
},
{
closed = 1;
nodes = (
(1100,1200,l),
(1100,1100,l),
(1200,1100,l),
(1200,1200,l)
);
},
{
closed = 1;
nodes = (
(1300,1200,l),
(1300,1300,l),
(1200,1300,l),
(1200,1200,l)
);
},
{
closed = 1;
nodes = (
(1000,1100,l),
(1000,1000,l),
(1100,1000,l),
(1100,1100,l)
);
},
{
closed = 1;
nodes = (
(900,1000,l),
(900,900,l),
(1000,900,l),
(1000,1000,l)
);
},
{
closed = 1;
nodes = (
(800,900,l),
(800,800,l),
(900,800,l),
(900,900,l)
);
},
{
closed = 1;
nodes = (
(700,800,l),
(700,700,l),
(800,700,l),
(800,800,l)
);
},
{
closed = 1;
nodes = (
(600,700,l),
(600,600,l),
(700,600,l),
(700,700,l)
);
},
{
closed = 1;
nodes = (
(800,500,l),
(800,600,l),
(700,600,l),
(700,500,l)
);
},
{
closed = 1;
nodes = (
(900,400,l),
(900,500,l),
(800,500,l),
(800,400,l)
);
},
{
closed = 1;
nodes = (
(1000,300,l),
(1000,400,l),
(900,400,l),
(900,300,l)
);
},
{
closed = 1;
nodes = (
(1100,200,l),
(1100,300,l),
(1000,300,l),
(1000,200,l)
);
},
{
closed = 1;
nodes = (
(1200,100,l),
(1200,200,l),
(1100,200,l),
(1100,100,l)
);
},
{
closed = 1;
nodes = (
(1300,0,l),
(1300,100,l),
(1200,100,l),
(1200,0,l)
);
}
);
width = 1600;
}
);
unicode = 171;
},
{
glyphname = guillemetright;
lastChange = "2024-07-24 17:43:06 +0000";
layers = (
{
layerId = m01;
shapes = (
{
closed = 1;
nodes = (
(400,0,l),
(400,100,l),
(300,100,l),
(300,0,l)
);
},
{
closed = 1;
nodes = (
(500,100,l),
(500,200,l),
(400,200,l),
(400,100,l)
);
},
{
closed = 1;
nodes = (
(600,200,l),
(600,300,l),
(500,300,l),
(500,200,l)
);
},
{
closed = 1;
nodes = (
(700,300,l),
(700,400,l),
(600,400,l),
(600,300,l)
);
},
{
closed = 1;
nodes = (
(800,400,l),
(800,500,l),
(700,500,l),
(700,400,l)
);
},
{
closed = 1;
nodes = (
(900,500,l),
(900,600,l),
(800,600,l),
(800,500,l)
);
},
{
closed = 1;
nodes = (
(1000,600,l),
(1000,700,l),
(900,700,l),
(900,600,l)
);
},
{
closed = 1;
nodes = (
(900,700,l),
(900,800,l),
(800,800,l),
(800,700,l)
);
},
{
closed = 1;
nodes = (
(800,800,l),
(800,900,l),
(700,900,l),
(700,800,l)
);
},
{
closed = 1;
nodes = (
(700,900,l),
(700,1000,l),
(600,1000,l),
(600,900,l)
);
},
{
closed = 1;
nodes = (
(600,1000,l),
(600,1100,l),
(500,1100,l),
(500,1000,l)
);
},
{
closed = 1;
nodes = (
(500,1100,l),
(500,1200,l),
(400,1200,l),
(400,1100,l)
);
},
{
closed = 1;
nodes = (
(400,1200,l),
(400,1300,l),
(300,1300,l),
(300,1200,l)
);
},
{
closed = 1;
nodes = (
(900,1200,l),
(900,1300,l),
(800,1300,l),
(800,1200,l)
);
},
{
closed = 1;
nodes = (
(1000,1100,l),
(1000,1200,l),
(900,1200,l),
(900,1100,l)
);
},
{
closed = 1;
nodes = (
(1100,1000,l),
(1100,1100,l),
(1000,1100,l),
(1000,1000,l)
);
},
{
closed = 1;
nodes = (
(1200,900,l),
(1200,1000,l),
(1100,1000,l),
(1100,900,l)
);
},
{
closed = 1;
nodes = (
(1300,800,l),
(1300,900,l),
(1200,900,l),
(1200,800,l)
);
},
{
closed = 1;
nodes = (
(1400,700,l),
(1400,800,l),
(1300,800,l),
(1300,700,l)
);
},
{
closed = 1;
nodes = (
(1300,600,l),
(1300,500,l),
(1400,500,l),
(1400,600,l)
);
},
{
closed = 1;
nodes = (
(1500,600,l),
(1500,700,l),
(1400,700,l),
(1400,600,l)
);
},
{
closed = 1;
nodes = (
(1200,500,l),
(1200,400,l),
(1300,400,l),
(1300,500,l)
);
},
{
closed = 1;
nodes = (
(1100,400,l),
(1100,300,l),
(1200,300,l),
(1200,400,l)
);
},
{
closed = 1;
nodes = (
(1000,300,l),
(1000,200,l),
(1100,200,l),
(1100,300,l)
);
},
{
closed = 1;
nodes = (
(900,200,l),
(900,100,l),
(1000,100,l),
(1000,200,l)
);
},
{
closed = 1;
nodes = (
(800,100,l),
(800,0,l),
(900,0,l),
(900,100,l)
);
}
);
width = 1600;
}
);
unicode = 187;
},
{
glyphname = ellipsis;
lastChange = "2024-07-24 17:43:10 +0000";
layers = (
{
layerId = m01;
shapes = (
{
closed = 1;
nodes = (
(200,0,l),
(300,0,l),
(300,200,l),
(200,200,l)
);
},
{
closed = 1;
nodes = (
(900,0,l),
(1000,0,l),
(1000,200,l),
(900,200,l)
);
},
{
closed = 1;
nodes = (
(1600,0,l),
(1700,0,l),
(1700,200,l),
(1600,200,l)
);
}
);
width = 2000;
}
);
unicode = 8230;
},
{
glyphname = Agrave;
lastChange = "2024-07-24 17:43:17 +0000";
layers = (
{
layerId = m01;
shapes = (
{
closed = 1;
nodes = (
(200,0,l),
(200,200,l),
(100,200,l),
(100,0,l)
);
},
{
closed = 1;
nodes = (
(300,200,l),
(300,400,l),
(200,400,l),
(200,200,l)
);
},
{
closed = 1;
nodes = (
(400,400,l),
(400,600,l),
(1300,600,l),
(1300,400,l),
(1400,400,l),
(1400,700,l),
(1300,700,l),
(1300,900,l),
(1200,900,l),
(1200,700,l),
(500,700,l),
(500,900,l),
(400,900,l),
(400,700,l),
(300,700,l),
(300,400,l)
);
},
{
closed = 1;
nodes = (
(600,900,l),
(600,1100,l),
(500,1100,l),
(500,900,l)
);
},
{
closed = 1;
nodes = (
(700,1100,l),
(700,1300,l),
(600,1300,l),
(600,1100,l)
);
},
{
closed = 1;
nodes = (
(700,1300,l),
(800,1300,l),
(800,1500,l),
(700,1500,l)
);
},
{
closed = 1;
nodes = (
(800,1500,l),
(900,1500,l),
(900,1800,l),
(800,1800,l)
);
},
{
closed = 1;
nodes = (
(900,1300,l),
(1000,1300,l),
(1000,1500,l),
(900,1500,l)
);
},
{
closed = 1;
nodes = (
(1000,1100,l),
(1100,1100,l),
(1100,1300,l),
(1000,1300,l)
);
},
{
closed = 1;
nodes = (
(1100,900,l),
(1200,900,l),
(1200,1100,l),
(1100,1100,l)
);
},
{
closed = 1;
nodes = (
(1400,200,l),
(1500,200,l),
(1500,400,l),
(1400,400,l)
);
},
{
closed = 1;
nodes = (
(1500,0,l),
(1600,0,l),
(1600,200,l),
(1500,200,l)
);
},
{
closed = 1;
nodes = (
(1000,1900,l),
(1000,2000,l),
(900,2000,l),
(900,1900,l)
);
},
{
closed = 1;
nodes = (
(900,2000,l),
(900,2100,l),
(800,2100,l),
(800,2000,l)
);
},
{
closed = 1;
nodes = (
(800,2100,l),
(800,2200,l),
(700,2200,l),
(700,2100,l)
);
}
);
width = 1800;
}
);
unicode = 192;
},
{
glyphname = Atilde;
lastChange = "2024-07-24 17:43:21 +0000";
layers = (
{
layerId = m01;
shapes = (
{
closed = 1;
nodes = (
(200,0,l),
(200,200,l),
(100,200,l),
(100,0,l)
);
},
{
closed = 1;
nodes = (
(300,200,l),
(300,400,l),
(200,400,l),
(200,200,l)
);
},
{
closed = 1;
nodes = (
(400,400,l),
(400,600,l),
(1300,600,l),
(1300,400,l),
(1400,400,l),
(1400,700,l),
(1300,700,l),
(1300,900,l),
(1200,900,l),
(1200,700,l),
(500,700,l),
(500,900,l),
(400,900,l),
(400,700,l),
(300,700,l),
(300,400,l)
);
},
{
closed = 1;
nodes = (
(600,900,l),
(600,1100,l),
(500,1100,l),
(500,900,l)
);
},
{
closed = 1;
nodes = (
(700,1100,l),
(700,1300,l),
(600,1300,l),
(600,1100,l)
);
},
{
closed = 1;
nodes = (
(700,1300,l),
(800,1300,l),
(800,1500,l),
(700,1500,l)
);
},
{
closed = 1;
nodes = (
(800,1500,l),
(900,1500,l),
(900,1800,l),
(800,1800,l)
);
},
{
closed = 1;
nodes = (
(900,1300,l),
(1000,1300,l),
(1000,1500,l),
(900,1500,l)
);
},
{
closed = 1;
nodes = (
(1000,1100,l),
(1100,1100,l),
(1100,1300,l),
(1000,1300,l)
);
},
{
closed = 1;
nodes = (
(1100,900,l),
(1200,900,l),
(1200,1100,l),
(1100,1100,l)
);
},
{
closed = 1;
nodes = (
(1400,200,l),
(1500,200,l),
(1500,400,l),
(1400,400,l)
);
},
{
closed = 1;
nodes = (
(1500,0,l),
(1600,0,l),
(1600,200,l),
(1500,200,l)
);
},
{
closed = 1;
nodes = (
(500,2100,l),
(500,2000,l),
(600,2000,l),
(600,2100,l)
);
},
{
closed = 1;
nodes = (
(900,2100,l),
(900,2200,l),
(600,2200,l),
(600,2100,l)
);
},
{
closed = 1;
nodes = (
(1200,2000,l),
(1200,2100,l),
(900,2100,l),
(900,2000,l)
);
},
{
closed = 1;
nodes = (
(1300,2100,l),
(1300,2200,l),
(1200,2200,l),
(1200,2100,l)
);
}
);
width = 1800;
}
);
unicode = 195;
},
{
glyphname = Otilde;
lastChange = "2024-07-24 17:40:06 +0000";
layers = (
{
layerId = m01;
shapes = (
{
closed = 1;
nodes = (
(300,300,l),
(300,500,l),
(200,500,l),
(200,300,l)
);
},
{
closed = 1;
nodes = (
(400,200,l),
(400,300,l),
(300,300,l),
(300,200,l)
);
},
{
closed = 1;
nodes = (
(600,100,l),
(600,200,l),
(400,200,l),
(400,100,l)
);
},
{
closed = 1;
nodes = (
(900,0,l),
(900,100,l),
(600,100,l),
(600,0,l)
);
},
{
closed = 1;
nodes = (
(1100,100,l),
(1100,200,l),
(900,200,l),
(900,100,l)
);
},
{
closed = 1;
nodes = (
(1200,200,l),
(1200,300,l),
(1100,300,l),
(1100,200,l)
);
},
{
closed = 1;
nodes = (
(1300,300,l),
(1300,500,l),
(1200,500,l),
(1200,300,l)
);
},
{
closed = 1;
nodes = (
(1300,1300,l),
(1300,1500,l),
(1200,1500,l),
(1200,1300,l)
);
},
{
closed = 1;
nodes = (
(1200,1500,l),
(1200,1600,l),
(1100,1600,l),
(1100,1500,l)
);
},
{
closed = 1;
nodes = (
(1100,1600,l),
(1100,1700,l),
(900,1700,l),
(900,1600,l)
);
},
{
closed = 1;
nodes = (
(900,1700,l),
(900,1800,l),
(600,1800,l),
(600,1700,l)
);
},
{
closed = 1;
nodes = (
(400,1700,l),
(400,1600,l),
(600,1600,l),
(600,1700,l)
);
},
{
closed = 1;
nodes = (
(300,1600,l),
(300,1500,l),
(400,1500,l),
(400,1600,l)
);
},
{
closed = 1;
nodes = (
(200,1500,l),
(200,1300,l),
(300,1300,l),
(300,1500,l)
);
},
{
closed = 1;
nodes = (
(100,1300,l),
(100,500,l),
(200,500,l),
(200,1300,l)
);
},
{
closed = 1;
nodes = (
(1400,500,l),
(1400,1300,l),
(1300,1300,l),
(1300,500,l)
);
},
{
closed = 1;
nodes = (
(1000,2000,l),
(1000,2100,l),
(700,2100,l),
(700,2000,l)
);
},
{
closed = 1;
nodes = (
(1100,2100,l),
(1100,2200,l),
(1000,2200,l),
(1000,2100,l)
);
},
{
closed = 1;
nodes = (
(700,2100,l),
(700,2200,l),
(400,2200,l),
(400,2100,l)
);
},
{
closed = 1;
nodes = (
(300,2100,l),
(300,2000,l),
(400,2000,l),
(400,2100,l)
);
}
);
width = 1600;
}
);
unicode = 213;
},
{
glyphname = OE;
lastChange = "2024-07-24 17:29:08 +0000";
layers = (
{
layerId = m01;
shapes = (
{
closed = 1;
nodes = (
(400,300,l),
(400,500,l),
(300,500,l),
(300,300,l)
);
},
{
closed = 1;
nodes = (
(500,200,l),
(500,300,l),
(400,300,l),
(400,200,l)
);
},
{
closed = 1;
nodes = (
(700,100,l),
(700,200,l),
(500,200,l),
(500,100,l)
);
},
{
closed = 1;
nodes = (
(1000,0,l),
(1000,100,l),
(700,100,l),
(700,0,l)
);
},
{
closed = 1;
nodes = (
(1200,100,l),
(1200,200,l),
(1000,200,l),
(1000,100,l)
);
},
{
closed = 1;
nodes = (
(1300,200,l),
(1300,0,l),
(2200,0,l),
(2200,100,l),
(1400,100,l),
(1400,900,l),
(2000,900,l),
(2000,1000,l),
(1400,1000,l),
(1400,1700,l),
(2200,1700,l),
(2200,1800,l),
(1300,1800,l),
(1300,1600,l),
(1200,1600,l),
(1200,1500,l),
(1300,1500,l),
(1300,300,l),
(1200,300,l),
(1200,200,l)
);
},
{
closed = 1;
nodes = (
(1200,1600,l),
(1200,1700,l),
(1000,1700,l),
(1000,1600,l)
);
},
{
closed = 1;
nodes = (
(500,1700,l),
(500,1600,l),
(700,1600,l),
(700,1700,l)
);
},
{
closed = 1;
nodes = (
(1000,1700,l),
(1000,1800,l),
(700,1800,l),
(700,1700,l)
);
},
{
closed = 1;
nodes = (
(400,1600,l),
(400,1500,l),
(500,1500,l),
(500,1600,l)
);
},
{
closed = 1;
nodes = (
(300,1500,l),
(300,1300,l),
(400,1300,l),
(400,1500,l)
);
},
{
closed = 1;
nodes = (
(200,1300,l),
(200,500,l),
(300,500,l),
(300,1300,l)
);
}
);
width = 2400;
}
);
unicode = 338;
},
{
glyphname = oe;
lastChange = "2024-07-24 17:29:08 +0000";
layers = (
{
layerId = m01;
shapes = (
{
closed = 1;
nodes = (
(300,400,l),
(300,1000,l),
(200,1000,l),
(200,400,l)
);
},
{
closed = 1;
nodes = (
(400,1000,l),
(400,1200,l),
(300,1200,l),
(300,1000,l)
);
},
{
closed = 1;
nodes = (
(500,1200,l),
(500,1300,l),
(400,1300,l),
(400,1200,l)
);
},
{
closed = 1;
nodes = (
(900,1300,l),
(900,1400,l),
(500,1400,l),
(500,1300,l)
);
},
{
closed = 1;
nodes = (
(1000,1200,l),
(1000,1300,l),
(900,1300,l),
(900,1200,l)
);
},
{
closed = 1;
nodes = (
(1100,1100,l),
(1100,1200,l),
(1000,1200,l),
(1000,1100,l)
);
},
{
closed = 1;
nodes = (
(300,200,l),
(400,200,l),
(400,400,l),
(300,400,l)
);
},
{
closed = 1;
nodes = (
(500,100,l),
(500,200,l),
(400,200,l),
(400,100,l)
);
},
{
closed = 1;
nodes = (
(900,0,l),
(900,100,l),
(500,100,l),
(500,0,l)
);
},
{
closed = 1;
nodes = (
(1000,100,l),
(1000,200,l),
(900,200,l),
(900,100,l)
);
},
{
closed = 1;
nodes = (
(1100,200,l),
(1100,300,l),
(1000,300,l),
(1000,200,l)
);
},
{
closed = 1;
nodes = (
(1200,300,l),
(1200,700,l),
(2000,700,l),
(2000,1000,l),
(1900,1000,l),
(1900,800,l),
(1200,800,l),
(1200,1100,l),
(1100,1100,l),
(1100,300,l)
);
},
{
closed = 1;
nodes = (
(1300,1100,l),
(1300,1200,l),
(1200,1200,l),
(1200,1100,l)
);
},
{
closed = 1;
nodes = (
(1400,1200,l),
(1400,1300,l),
(1300,1300,l),
(1300,1200,l)
);
},
{
closed = 1;
nodes = (
(1700,1300,l),
(1700,1400,l),
(1400,1400,l),
(1400,1300,l)
);
},
{
closed = 1;
nodes = (
(1800,1200,l),
(1800,1300,l),
(1700,1300,l),
(1700,1200,l)
);
},
{
closed = 1;
nodes = (
(1800,1000,l),
(1900,1000,l),
(1900,1200,l),
(1800,1200,l)
);
},
{
closed = 1;
nodes = (
(1300,200,l),
(1300,300,l),
(1200,300,l),
(1200,200,l)
);
},
{
closed = 1;
nodes = (
(1400,100,l),
(1400,200,l),
(1300,200,l),
(1300,100,l)
);
},
{
closed = 1;
nodes = (
(1700,0,l),
(1700,100,l),
(1400,100,l),
(1400,0,l)
);
},
{
closed = 1;
nodes = (
(1800,100,l),
(1800,200,l),
(1700,200,l),
(1700,100,l)
);
},
{
closed = 1;
nodes = (
(1900,200,l),
(1900,300,l),
(1800,300,l),
(1800,200,l)
);
}
);
width = 2200;
}
);
unicode = 339;
},
{
glyphname = hyphen;
lastChange = "2024-07-24 17:29:08 +0000";
layers = (
{
layerId = m01;
shapes = (
{
closed = 1;
nodes = (
(1000,700,l),
(1000,800,l),
(200,800,l),
(200,700,l)
);
}
);
width = 1200;
}
);
unicode = 45;
},
{
glyphname = emdash;
lastChange = "2024-07-24 17:29:08 +0000";
layers = (
{
layerId = m01;
shapes = (
{
closed = 1;
nodes = (
(1600,700,l),
(1600,800,l),
(200,800,l),
(200,700,l)
);
}
);
width = 1800;
}
);
unicode = 8212;
},
{
glyphname = quotedblleft;
lastChange = "2024-07-24 17:43:34 +0000";
layers = (
{
layerId = m01;
shapes = (
{
closed = 1;
nodes = (
(500,1300,l),
(500,1400,l),
(400,1400,l),
(400,1700,l),
(300,1700,l),
(300,1300,l)
);
},
{
closed = 1;
nodes = (
(500,1700,l),
(500,1800,l),
(400,1800,l),
(400,1700,l)
);
},
{
closed = 1;
nodes = (
(700,1700,l),
(700,1300,l),
(900,1300,l),
(900,1400,l),
(800,1400,l),
(800,1700,l)
);
},
{
closed = 1;
nodes = (
(900,1700,l),
(900,1800,l),
(800,1800,l),
(800,1700,l)
);
}
);
width = 1400;
}
);
unicode = 8220;
},
{
glyphname = quotedblright;
lastChange = "2024-07-24 17:43:39 +0000";
layers = (
{
layerId = m01;
shapes = (
{
closed = 1;
nodes = (
(600,1700,l),
(600,1400,l),
(700,1400,l),
(700,1800,l),
(500,1800,l),
(500,1700,l)
);
},
{
closed = 1;
nodes = (
(500,1400,l),
(500,1300,l),
(600,1300,l),
(600,1400,l)
);
},
{
closed = 1;
nodes = (
(1000,1700,l),
(1000,1400,l),
(1100,1400,l),
(1100,1800,l),
(900,1800,l),
(900,1700,l)
);
},
{
closed = 1;
nodes = (
(900,1400,l),
(900,1300,l),
(1000,1300,l),
(1000,1400,l)
);
}
);
width = 1400;
}
);
unicode = 8221;
},
{
glyphname = quoteleft;
lastChange = "2024-07-24 17:43:46 +0000";
layers = (
{
layerId = m01;
shapes = (
{
closed = 1;
nodes = (
(500,1300,l),
(500,1400,l),
(400,1400,l),
(400,1700,l),
(300,1700,l),
(300,1300,l)
);
},
{
closed = 1;
nodes = (
(500,1700,l),
(500,1800,l),
(400,1800,l),
(400,1700,l)
);
}
);
width = 800;
}
);
unicode = 8216;
},
{
glyphname = quoteright;
lastChange = "2024-07-24 17:43:46 +0000";
layers = (
{
layerId = m01;
shapes = (
{
closed = 1;
nodes = (
(400,1700,l),
(400,1400,l),
(500,1400,l),
(500,1800,l),
(300,1800,l),
(300,1700,l)
);
},
{
closed = 1;
nodes = (
(300,1400,l),
(300,1300,l),
(400,1300,l),
(400,1400,l)
);
}
);
width = 800;
}
);
unicode = 8217;
},
{
glyphname = divide;
lastChange = "2024-07-24 17:43:51 +0000";
layers = (
{
layerId = m01;
shapes = (
{
closed = 1;
nodes = (
(500,1200,l),
(600,1200,l),
(600,1400,l),
(500,1400,l)
);
},
{
closed = 1;
nodes = (
(1000,900,l),
(1000,1000,l),
(100,1000,l),
(100,900,l)
);
},
{
closed = 1;
nodes = (
(500,500,l),
(600,500,l),
(600,700,l),
(500,700,l)
);
}
);
width = 1200;
}
);
unicode = 247;
},
{
glyphname = lozenge;
lastChange = "2024-07-24 17:43:54 +0000";
layers = (
{
layerId = m01;
shapes = (
{
closed = 1;
nodes = (
(200,800,l),
(300,800,l),
(300,1000,l),
(200,1000,l)
);
},
{
closed = 1;
nodes = (
(400,1000,l),
(400,1100,l),
(300,1100,l),
(300,1000,l)
);
},
{
closed = 1;
nodes = (
(500,1100,l),
(500,1200,l),
(400,1200,l),
(400,1100,l)
);
},
{
closed = 1;
nodes = (
(600,1200,l),
(600,1300,l),
(500,1300,l),
(500,1200,l)
);
},
{
closed = 1;
nodes = (
(700,1300,l),
(700,1400,l),
(600,1400,l),
(600,1300,l)
);
},
{
closed = 1;
nodes = (
(800,1400,l),
(800,1500,l),
(700,1500,l),
(700,1400,l)
);
},
{
closed = 1;
nodes = (
(900,1500,l),
(900,1600,l),
(800,1600,l),
(800,1500,l)
);
},
{
closed = 1;
nodes = (
(1000,1400,l),
(1000,1500,l),
(900,1500,l),
(900,1400,l)
);
},
{
closed = 1;
nodes = (
(1100,1300,l),
(1100,1400,l),
(1000,1400,l),
(1000,1300,l)
);
},
{
closed = 1;
nodes = (
(1300,1100,l),
(1300,1200,l),
(1200,1200,l),
(1200,1100,l)
);
},
{
closed = 1;
nodes = (
(1200,1200,l),
(1200,1300,l),
(1100,1300,l),
(1100,1200,l)
);
},
{
closed = 1;
nodes = (
(1400,1000,l),
(1400,1100,l),
(1300,1100,l),
(1300,1000,l)
);
},
{
closed = 1;
nodes = (
(1400,800,l),
(1500,800,l),
(1500,1000,l),
(1400,1000,l)
);
},
{
closed = 1;
nodes = (
(1300,800,l),
(1300,700,l),
(1400,700,l),
(1400,800,l)
);
},
{
closed = 1;
nodes = (
(1200,700,l),
(1200,600,l),
(1300,600,l),
(1300,700,l)
);
},
{
closed = 1;
nodes = (
(1100,600,l),
(1100,500,l),
(1200,500,l),
(1200,600,l)
);
},
{
closed = 1;
nodes = (
(1000,500,l),
(1000,400,l),
(1100,400,l),
(1100,500,l)
);
},
{
closed = 1;
nodes = (
(900,400,l),
(900,300,l),
(1000,300,l),
(1000,400,l)
);
},
{
closed = 1;
nodes = (
(800,300,l),
(800,200,l),
(900,200,l),
(900,300,l)
);
},
{
closed = 1;
nodes = (
(800,300,l),
(800,400,l),
(700,400,l),
(700,300,l)
);
},
{
closed = 1;
nodes = (
(700,400,l),
(700,500,l),
(600,500,l),
(600,400,l)
);
},
{
closed = 1;
nodes = (
(600,500,l),
(600,600,l),
(500,600,l),
(500,500,l)
);
},
{
closed = 1;
nodes = (
(500,600,l),
(500,700,l),
(400,700,l),
(400,600,l)
);
},
{
closed = 1;
nodes = (
(400,700,l),
(400,800,l),
(300,800,l),
(300,700,l)
);
}
);
width = 1800;
}
);
unicode = 9674;
},
{
glyphname = ydieresis;
lastChange = "2024-07-24 17:43:58 +0000";
layers = (
{
layerId = m01;
shapes = (
{
closed = 1;
nodes = (
(200,1200,l),
(300,1200,l),
(300,1400,l),
(200,1400,l)
);
},
{
closed = 1;
nodes = (
(300,900,l),
(400,900,l),
(400,1200,l),
(300,1200,l)
);
},
{
closed = 1;
nodes = (
(400,700,l),
(500,700,l),
(500,900,l),
(400,900,l)
);
},
{
closed = 1;
nodes = (
(500,400,l),
(600,400,l),
(600,700,l),
(500,700,l)
);
},
{
closed = 1;
nodes = (
(600,200,l),
(700,200,l),
(700,400,l),
(600,400,l)
);
},
{
closed = 1;
nodes = (
(700,0,l),
(800,0,l),
(800,200,l),
(700,200,l)
);
},
{
closed = 1;
nodes = (
(600,0,l),
(600,-200,l),
(700,-200,l),
(700,0,l)
);
},
{
closed = 1;
nodes = (
(900,200,l),
(900,400,l),
(800,400,l),
(800,200,l)
);
},
{
closed = 1;
nodes = (
(1000,400,l),
(1000,700,l),
(900,700,l),
(900,400,l)
);
},
{
closed = 1;
nodes = (
(1100,700,l),
(1100,900,l),
(1000,900,l),
(1000,700,l)
);
},
{
closed = 1;
nodes = (
(1200,900,l),
(1200,1200,l),
(1100,1200,l),
(1100,900,l)
);
},
{
closed = 1;
nodes = (
(1300,1200,l),
(1300,1400,l),
(1200,1400,l),
(1200,1200,l)
);
},
{
closed = 1;
nodes = (
(500,-200,l),
(500,-400,l),
(600,-400,l),
(600,-200,l)
);
},
{
closed = 1;
nodes = (
(400,-400,l),
(400,-600,l),
(500,-600,l),
(500,-400,l)
);
},
{
closed = 1;
nodes = (
(500,1600,l),
(500,1800,l),
(400,1800,l),
(400,1600,l)
);
},
{
closed = 1;
nodes = (
(1100,1600,l),
(1100,1800,l),
(1000,1800,l),
(1000,1600,l)
);
}
);
width = 1400;
}
);
unicode = 255;
},
{
glyphname = .notdef;
lastChange = "2024-07-24 17:29:08 +0000";
layers = (
{
layerId = m01;
shapes = (
{
closed = 1;
nodes = (
(1800,0,l),
(1800,1700,l),
(200,1700,l),
(200,0,l)
);
},
{
closed = 1;
nodes = (
(300,100,l),
(300,1600,l),
(1700,1600,l),
(1700,100,l)
);
}
);
width = 2000;
}
);
},
{
export = 0;
glyphname = pixel;
lastChange = "2024-07-24 17:28:44 +0000";
layers = (
{
layerId = m01;
shapes = (
{
closed = 1;
nodes = (
(100,0,l),
(100,100,l),
(0,100,l),
(0,0,l)
);
}
